{"glyphs":{"0":{"ha":794,"x_min":63,"x_max":732,"o":"m 732 497 q 713 282 732 376 q 655 122 694 188 q 551 21 615 56 q 396 -14 486 -14 q 208 47 282 -14 q 99 223 135 108 q 63 497 63 338 q 95 772 63 658 q 201 947 128 886 q 396 1007 275 1007 q 584 947 510 1007 q 695 772 658 886 q 732 497 732 658 m 210 497 q 228 282 210 368 q 287 153 246 196 q 396 110 328 110 q 505 152 464 110 q 565 281 546 194 q 583 497 583 368 q 565 712 583 626 q 505 840 546 797 q 396 883 464 883 q 287 840 328 883 q 228 712 246 797 q 210 497 210 626 z "},"1":{"ha":794,"x_min":111,"x_max":517,"o":"m 517 0 l 371 0 l 371 658 q 372 723 371 693 q 374 781 372 753 q 376 836 375 810 q 339 801 358 818 q 294 763 319 785 l 186 675 l 111 769 l 394 992 l 517 992 l 517 0 z "},"2":{"ha":794,"x_min":64,"x_max":731,"o":"m 731 0 l 64 0 l 64 114 l 319 374 q 444 506 394 450 q 519 615 494 563 q 544 728 544 667 q 500 842 544 804 q 385 881 456 881 q 263 855 317 881 q 150 783 208 829 l 71 882 q 158 944 111 917 q 262 989 204 972 q 389 1006 319 1006 q 551 973 483 1006 q 656 881 619 940 q 693 740 693 821 q 661 593 693 661 q 571 459 629 525 q 433 317 513 393 l 249 138 l 249 131 l 731 131 l 731 0 z "},"3":{"ha":794,"x_min":60,"x_max":722,"o":"m 692 763 q 666 647 692 696 q 593 567 640 597 q 485 522 546 536 l 485 517 q 663 442 604 503 q 722 283 722 382 q 681 130 722 197 q 555 24 640 63 q 336 -14 469 -14 q 189 -1 257 -14 q 60 40 121 11 l 60 174 q 194 125 122 142 q 331 108 265 108 q 513 156 457 108 q 568 290 568 204 q 539 381 568 346 q 450 434 510 417 q 301 451 390 451 l 211 451 l 211 572 l 303 572 q 440 594 388 572 q 518 654 493 615 q 543 743 543 693 q 499 847 543 810 q 374 883 456 883 q 281 872 324 883 q 204 843 239 861 q 136 803 169 825 l 64 904 q 197 976 118 946 q 378 1006 275 1006 q 612 938 532 1006 q 692 763 692 871 z "},"4":{"ha":794,"x_min":28,"x_max":768,"o":"m 768 219 l 631 219 l 631 0 l 488 0 l 488 219 l 28 219 l 28 336 l 485 996 l 631 996 l 631 344 l 768 344 l 768 219 m 488 614 q 488 678 488 647 q 490 737 489 708 q 492 790 492 765 q 494 833 493 814 l 489 833 q 462 776 478 806 q 429 725 446 747 l 167 344 l 488 344 l 488 614 z "},"5":{"ha":794,"x_min":82,"x_max":719,"o":"m 392 615 q 564 581 490 615 q 678 481 638 546 q 719 321 719 415 q 675 142 719 217 q 547 26 631 67 q 342 -14 463 -14 q 197 0 265 -14 q 82 40 129 14 l 82 175 q 203 128 132 146 q 340 110 275 110 q 462 131 411 110 q 541 197 513 153 q 569 307 569 240 q 513 445 569 397 q 336 493 457 493 q 249 486 297 493 q 172 472 201 479 l 104 513 l 142 992 l 651 992 l 651 861 l 269 861 l 247 601 q 307 610 271 606 q 392 615 343 615 z "},"6":{"ha":794,"x_min":68,"x_max":735,"o":"m 68 422 q 80 592 68 508 q 122 749 92 675 q 204 881 151 824 q 338 972 257 939 q 535 1004 419 1004 q 601 1002 564 1004 q 661 993 638 1000 l 661 869 q 603 882 635 878 q 542 886 572 886 q 383 857 446 886 q 285 776 321 828 q 232 658 249 725 q 211 511 215 590 l 219 511 q 271 571 240 544 q 346 613 301 597 q 449 628 390 628 q 599 592 535 628 q 699 488 664 556 q 735 322 735 419 q 695 142 735 218 q 584 26 656 67 q 413 -14 513 -14 q 278 13 340 -14 q 168 93 215 39 q 94 230 121 147 q 68 422 68 313 m 411 108 q 540 160 490 108 q 590 322 590 213 q 547 461 590 410 q 415 513 503 513 q 311 488 356 513 q 242 424 267 463 q 217 344 217 385 q 229 260 217 301 q 266 183 242 218 q 326 128 290 149 q 411 108 363 108 z "},"7":{"ha":794,"x_min":54,"x_max":733,"o":"m 179 0 l 575 861 l 54 861 l 54 992 l 733 992 l 733 886 l 339 0 l 179 0 z "},"8":{"ha":794,"x_min":63,"x_max":731,"o":"m 396 1006 q 551 978 483 1006 q 659 899 619 951 q 699 767 699 846 q 674 663 699 707 q 607 584 649 618 q 514 525 565 550 q 622 459 572 496 q 701 374 671 422 q 731 257 731 325 q 690 113 731 174 q 574 19 649 53 q 399 -14 499 -14 q 216 18 292 -14 q 101 109 140 50 q 63 253 63 168 q 90 371 63 321 q 164 457 118 421 q 264 518 210 493 q 178 581 217 546 q 117 663 139 617 q 94 768 94 708 q 135 898 94 846 q 244 978 175 950 q 396 1006 313 1006 m 204 256 q 251 144 204 188 q 396 100 299 100 q 540 144 490 100 q 589 257 589 188 q 565 338 589 303 q 498 399 540 372 q 400 449 456 426 l 379 457 q 283 404 322 433 q 224 339 244 375 q 204 256 204 303 m 394 890 q 281 857 326 890 q 236 760 236 824 q 258 682 236 714 q 318 627 281 650 q 400 583 356 604 q 479 626 444 603 q 535 681 514 649 q 556 760 556 714 q 511 857 556 824 q 394 890 467 890 z "},"9":{"ha":794,"x_min":63,"x_max":729,"o":"m 729 568 q 717 399 729 483 q 675 241 704 315 q 592 109 646 167 q 458 19 539 51 q 261 -14 376 -14 q 196 -11 233 -14 q 133 -1 158 -8 l 133 122 q 192 110 160 114 q 256 106 225 106 q 413 134 351 106 q 512 214 475 163 q 565 333 549 265 q 585 478 582 401 l 576 478 q 525 419 556 446 q 451 378 494 393 q 346 363 407 363 q 197 399 261 363 q 97 502 132 435 q 63 667 63 569 q 102 848 63 772 q 215 964 142 924 q 385 1004 288 1004 q 519 978 457 1004 q 629 897 582 951 q 703 761 676 843 q 729 568 729 679 m 386 883 q 257 831 307 883 q 207 669 207 778 q 249 529 207 581 q 381 478 292 478 q 486 503 442 478 q 556 567 531 529 q 581 647 581 606 q 568 731 581 689 q 532 807 556 772 q 472 863 508 842 q 386 883 435 883 z "},"\u0000":{"ha":0,"x_min":0,"x_max":0,"o":""},"\r":{"ha":361,"x_min":0,"x_max":0,"o":""}," ":{"ha":361,"x_min":0,"x_max":0,"o":""},"!":{"ha":381,"x_min":94,"x_max":285,"o":"m 243 294 l 139 294 l 104 992 l 278 992 l 243 294 m 94 82 q 122 158 94 136 q 190 181 150 181 q 257 158 229 181 q 285 82 285 136 q 257 4 285 28 q 190 -19 229 -19 q 122 4 150 -19 q 94 82 94 28 z "},"\"":{"ha":593,"x_min":90,"x_max":503,"o":"m 239 992 l 211 633 l 118 633 l 90 992 l 239 992 m 503 992 l 475 633 l 382 633 l 354 992 l 503 992 z "},"#":{"ha":897,"x_min":33,"x_max":863,"o":"m 669 596 l 631 393 l 815 393 l 815 286 l 610 286 l 554 0 l 440 0 l 496 286 l 317 286 l 264 0 l 153 0 l 204 286 l 33 286 l 33 393 l 225 393 l 265 596 l 85 596 l 85 703 l 285 703 l 339 992 l 454 992 l 399 703 l 581 703 l 635 992 l 746 992 l 690 703 l 863 703 l 863 596 l 669 596 m 338 393 l 517 393 l 557 596 l 378 596 l 338 393 z "},"$":{"ha":794,"x_min":78,"x_max":724,"o":"m 351 64 q 199 79 271 67 q 79 114 128 92 l 79 250 q 205 208 129 226 q 351 188 281 189 l 351 447 q 195 511 256 476 q 106 594 135 546 q 78 707 78 642 q 112 824 78 775 q 208 903 146 874 q 351 938 269 932 l 351 1054 l 442 1054 l 442 939 q 579 923 517 938 q 697 885 642 908 l 651 765 q 549 798 604 785 q 442 815 494 811 l 442 560 q 591 501 528 532 q 689 426 654 471 q 724 307 724 381 q 651 146 724 208 q 442 69 578 83 l 442 -81 l 351 -81 l 351 64 m 442 193 q 547 228 514 201 q 579 299 579 256 q 566 349 579 328 q 523 385 553 369 q 442 415 493 400 l 442 193 m 351 813 q 280 797 308 810 q 237 763 251 783 q 222 714 222 742 q 235 660 222 683 q 275 622 247 638 q 351 592 303 606 l 351 813 z "},"%":{"ha":1183,"x_min":61,"x_max":1122,"o":"m 272 1006 q 434 924 379 1006 q 489 696 489 843 q 437 466 489 549 q 272 383 385 383 q 115 466 169 383 q 61 696 61 549 q 112 924 61 843 q 272 1006 163 1006 m 272 903 q 204 851 226 903 q 182 696 182 799 q 204 539 182 592 q 272 486 226 486 q 344 538 321 486 q 368 696 368 590 q 344 851 368 799 q 272 903 321 903 m 928 992 l 378 0 l 254 0 l 804 992 l 928 992 m 906 608 q 1067 527 1011 608 q 1122 299 1122 446 q 1069 69 1122 151 q 906 -14 1017 -14 q 748 69 803 -14 q 693 299 693 151 q 744 527 693 446 q 906 608 794 608 m 906 506 q 837 454 858 506 q 815 299 815 403 q 837 142 815 194 q 906 90 858 90 q 977 142 954 90 q 1000 299 1000 193 q 977 454 1000 403 q 906 506 954 506 z "},"&":{"ha":1024,"x_min":68,"x_max":1022,"o":"m 425 1007 q 558 981 501 1007 q 645 908 614 956 q 676 792 676 861 q 619 640 676 703 q 478 528 563 578 l 724 290 q 779 390 757 335 q 817 507 801 444 l 967 507 q 910 341 946 421 q 819 197 875 261 l 1022 0 l 831 0 l 722 104 q 631 43 679 69 q 524 1 582 17 q 394 -14 467 -14 q 221 19 294 -14 q 108 113 147 51 q 68 261 68 175 q 92 383 68 332 q 163 474 117 435 q 272 550 210 514 q 216 622 242 585 q 174 699 190 658 q 158 786 158 739 q 191 905 158 856 q 284 981 224 954 q 425 1007 344 1007 m 360 460 q 287 406 317 433 q 240 347 257 379 q 222 269 222 314 q 272 156 222 199 q 401 114 321 114 q 534 138 478 114 q 631 196 590 161 l 360 460 m 421 889 q 335 863 369 889 q 300 783 300 836 q 324 698 300 738 q 390 613 347 658 q 500 695 465 656 q 535 786 535 735 q 503 861 535 833 q 421 889 471 889 z "},"'":{"ha":329,"x_min":90,"x_max":239,"o":"m 239 992 l 211 633 l 118 633 l 90 992 l 239 992 z "},"(":{"ha":433,"x_min":56,"x_max":392,"o":"m 56 381 q 77 603 56 494 q 144 810 99 711 q 260 992 190 908 l 392 992 q 245 704 294 861 q 196 382 196 547 q 218 169 196 275 q 283 -34 240 64 q 390 -219 326 -132 l 260 -219 q 144 -41 190 -137 q 77 163 99 56 q 56 381 56 269 z "},")":{"ha":433,"x_min":42,"x_max":378,"o":"m 378 381 q 356 163 378 269 q 290 -41 335 56 q 174 -219 244 -137 l 43 -219 q 150 -34 107 -132 q 215 169 193 64 q 236 382 236 275 q 215 599 236 492 q 150 806 193 706 q 42 992 107 906 l 174 992 q 290 810 244 908 q 356 603 335 711 q 378 381 378 494 z "},"*":{"ha":763,"x_min":53,"x_max":708,"o":"m 453 1056 l 425 794 l 688 868 l 708 728 l 460 707 l 621 493 l 492 424 l 376 657 l 274 424 l 140 493 l 299 707 l 53 728 l 75 868 l 333 794 l 304 1056 l 453 1056 z "},"+":{"ha":794,"x_min":67,"x_max":725,"o":"m 453 546 l 725 546 l 725 433 l 453 433 l 453 154 l 339 154 l 339 433 l 67 433 l 67 546 l 339 546 l 339 826 l 453 826 l 453 546 z "},",":{"ha":379,"x_min":53,"x_max":279,"o":"m 279 146 q 247 40 267 97 q 206 -73 228 -17 q 160 -179 183 -129 l 53 -179 q 80 -65 67 -125 q 104 54 93 -4 q 122 161 115 113 l 269 161 l 279 146 z "},"-":{"ha":447,"x_min":51,"x_max":396,"o":"m 51 310 l 51 435 l 396 435 l 396 310 l 51 310 z "},".":{"ha":379,"x_min":94,"x_max":285,"o":"m 94 82 q 122 158 94 136 q 189 181 150 181 q 257 158 229 181 q 285 82 285 136 q 257 4 285 28 q 189 -19 229 -19 q 122 4 150 -19 q 94 82 94 28 z "},"/":{"ha":533,"x_min":13,"x_max":522,"o":"m 522 992 l 153 0 l 13 0 l 382 992 l 522 992 z "},":":{"ha":379,"x_min":94,"x_max":285,"o":"m 94 82 q 122 158 94 136 q 189 181 150 181 q 257 158 229 181 q 285 82 285 136 q 257 4 285 28 q 189 -19 229 -19 q 122 4 150 -19 q 94 82 94 28 m 94 665 q 122 744 94 722 q 189 767 150 767 q 257 744 229 767 q 285 665 285 722 q 257 589 285 613 q 189 565 229 565 q 122 589 150 565 q 94 665 94 613 z "},";":{"ha":379,"x_min":43,"x_max":283,"o":"m 271 146 q 239 40 258 97 q 197 -73 219 -17 q 151 -179 174 -129 l 43 -179 q 63 -94 53 -139 q 83 -5 74 -50 q 99 83 92 40 q 113 161 107 125 l 261 161 l 271 146 m 92 665 q 119 744 92 722 q 188 767 147 767 q 255 744 226 767 q 283 665 283 722 q 255 589 283 613 q 188 565 226 565 q 119 589 147 565 q 92 665 92 613 z "},"<":{"ha":794,"x_min":67,"x_max":726,"o":"m 726 154 l 67 444 l 67 522 l 726 851 l 726 728 l 221 489 l 726 278 l 726 154 z "},"=":{"ha":794,"x_min":72,"x_max":719,"o":"m 72 569 l 72 682 l 719 682 l 719 569 l 72 569 m 72 296 l 72 410 l 719 410 l 719 296 l 72 296 z "},">":{"ha":794,"x_min":67,"x_max":726,"o":"m 67 278 l 572 489 l 67 728 l 67 851 l 726 522 l 726 444 l 67 154 l 67 278 z "},"?":{"ha":621,"x_min":13,"x_max":585,"o":"m 193 335 q 203 424 193 386 q 241 495 214 461 q 313 565 268 529 q 392 635 364 607 q 433 691 421 664 q 444 757 444 718 q 405 849 444 817 q 290 881 365 881 q 171 863 225 881 q 65 821 117 846 l 13 932 q 143 985 72 964 q 300 1006 214 1006 q 510 939 436 1006 q 585 761 585 872 q 565 658 585 701 q 509 578 546 614 q 422 500 472 542 q 354 438 378 464 q 322 385 331 411 q 314 322 314 360 l 314 294 l 193 294 l 193 335 m 164 82 q 191 158 164 136 q 260 181 218 181 q 326 158 299 181 q 354 82 354 136 q 326 4 354 28 q 260 -19 299 -19 q 191 4 218 -19 q 164 82 164 28 z "},"@":{"ha":1247,"x_min":78,"x_max":1171,"o":"m 1171 496 q 1156 371 1171 432 q 1110 260 1140 310 q 1034 180 1079 210 q 926 150 989 150 q 829 183 867 150 q 782 261 792 217 l 774 261 q 699 182 747 214 q 581 150 651 150 q 409 222 469 150 q 349 411 349 293 q 386 574 349 503 q 492 685 424 644 q 653 725 560 725 q 778 715 715 725 q 875 690 840 704 l 861 408 q 860 374 860 386 q 860 358 860 363 q 883 269 860 292 q 935 247 906 247 q 1002 281 975 247 q 1044 372 1029 315 q 1058 497 1058 429 q 1008 710 1058 624 q 869 843 957 797 q 668 889 781 889 q 464 853 553 889 q 315 750 375 817 q 223 593 254 683 q 192 394 192 503 q 240 169 192 263 q 379 28 288 76 q 604 -19 471 -19 q 767 -1 688 -19 q 911 42 847 18 l 911 -64 q 772 -106 849 -89 q 606 -122 696 -122 q 321 -61 439 -122 q 140 115 203 0 q 78 390 78 229 q 118 629 78 519 q 235 820 158 739 q 422 947 313 901 q 668 992 531 992 q 869 958 778 992 q 1028 859 961 924 q 1133 703 1096 794 q 1171 496 1171 611 m 471 408 q 506 285 471 324 q 597 247 540 247 q 706 303 674 247 q 743 449 738 360 l 751 615 q 709 624 735 621 q 656 628 683 628 q 548 596 589 628 q 489 514 507 564 q 471 408 471 464 z "},"A":{"ha":908,"x_min":0,"x_max":907,"o":"m 750 0 l 644 286 l 261 286 l 156 0 l 0 0 l 376 996 l 532 996 l 907 0 l 750 0 m 503 696 q 488 742 499 711 q 468 806 478 774 q 453 860 458 839 q 437 799 446 832 q 419 740 428 767 q 406 696 411 713 l 306 417 l 603 417 l 503 696 z "},"B":{"ha":911,"x_min":132,"x_max":838,"o":"m 422 992 q 710 937 613 992 q 807 744 807 882 q 786 641 807 686 q 726 566 765 596 q 628 526 686 536 l 628 519 q 735 484 688 510 q 810 410 782 458 q 838 283 838 361 q 795 130 838 193 q 674 33 753 67 q 488 0 596 0 l 132 0 l 132 992 l 422 992 m 447 578 q 608 615 564 578 q 651 726 651 653 q 599 833 651 801 q 431 865 546 865 l 282 865 l 282 578 l 447 578 m 282 456 l 282 125 l 464 125 q 632 172 585 125 q 679 297 679 219 q 658 381 679 344 q 588 436 638 417 q 454 456 539 456 l 282 456 z "},"C":{"ha":879,"x_min":83,"x_max":835,"o":"m 556 876 q 424 851 482 876 q 324 775 365 825 q 262 654 283 725 q 240 494 240 583 q 275 292 240 378 q 379 161 310 207 q 554 115 449 115 q 677 127 618 115 q 797 158 736 139 l 797 29 q 678 -3 739 7 q 536 -14 617 -14 q 284 49 385 -14 q 133 226 183 111 q 83 496 83 342 q 115 702 83 608 q 206 864 146 796 q 353 969 265 932 q 557 1006 442 1006 q 704 990 632 1006 q 835 944 776 974 l 779 819 q 674 859 731 842 q 556 876 618 876 z "},"D":{"ha":1018,"x_min":132,"x_max":935,"o":"m 935 506 q 872 226 935 339 q 692 57 810 114 q 410 0 575 0 l 132 0 l 132 992 l 439 992 q 701 936 590 992 q 874 773 813 881 q 935 506 935 665 m 778 501 q 738 707 778 626 q 619 826 697 788 q 429 865 540 865 l 282 865 l 282 126 l 403 126 q 684 221 590 126 q 778 501 778 315 z "},"E":{"ha":774,"x_min":132,"x_max":690,"o":"m 690 0 l 132 0 l 132 992 l 690 992 l 690 864 l 282 864 l 282 581 l 665 581 l 665 454 l 282 454 l 282 129 l 690 129 l 690 0 z "},"F":{"ha":733,"x_min":132,"x_max":690,"o":"m 281 0 l 132 0 l 132 992 l 690 992 l 690 864 l 281 864 l 281 540 l 664 540 l 664 413 l 281 413 l 281 0 z "},"G":{"ha":1010,"x_min":83,"x_max":904,"o":"m 546 533 l 904 533 l 904 39 q 742 -1 825 13 q 554 -14 660 -14 q 298 47 403 -14 q 138 222 193 108 q 83 496 83 336 q 144 765 83 651 q 320 942 206 879 q 599 1006 435 1006 q 756 990 681 1006 q 894 946 831 974 l 840 821 q 726 860 789 844 q 593 876 663 876 q 403 830 483 876 q 281 698 324 783 q 239 494 239 613 q 274 297 239 383 q 383 163 308 211 q 579 114 458 114 q 679 120 638 114 q 756 135 721 126 l 756 404 l 546 404 l 546 533 z "},"H":{"ha":1039,"x_min":132,"x_max":906,"o":"m 906 0 l 756 0 l 756 453 l 282 453 l 282 0 l 132 0 l 132 992 l 282 992 l 282 581 l 756 581 l 756 992 l 906 992 l 906 0 z "},"I":{"ha":492,"x_min":53,"x_max":438,"o":"m 438 0 l 53 0 l 53 86 l 171 121 l 171 869 l 53 906 l 53 992 l 438 992 l 438 906 l 321 869 l 321 121 l 438 86 l 438 0 z "},"J":{"ha":403,"x_min":-107,"x_max":276,"o":"m 1 -272 q -60 -267 -33 -272 q -107 -254 -86 -262 l -107 -129 q -60 -139 -85 -135 q -7 -143 -35 -143 q 59 -129 28 -143 q 108 -79 90 -115 q 126 22 126 -43 l 126 992 l 276 992 l 276 29 q 242 -142 276 -75 q 147 -241 208 -210 q 1 -272 85 -272 z "},"K":{"ha":878,"x_min":132,"x_max":878,"o":"m 878 0 l 704 0 l 379 457 l 282 376 l 282 0 l 132 0 l 132 992 l 282 992 l 282 513 q 354 597 318 556 q 426 681 390 639 l 694 992 l 867 992 l 488 558 l 878 0 z "},"L":{"ha":744,"x_min":132,"x_max":706,"o":"m 132 0 l 132 992 l 282 992 l 282 129 l 706 129 l 706 0 l 132 0 z "},"M":{"ha":1275,"x_min":132,"x_max":1143,"o":"m 564 0 l 264 843 l 258 843 q 263 768 260 815 q 267 667 265 721 q 268 560 268 613 l 268 0 l 132 0 l 132 992 l 346 992 l 631 196 l 636 196 l 929 992 l 1143 992 l 1143 0 l 997 0 l 997 568 q 999 669 997 617 q 1003 767 1001 721 q 1007 842 1006 813 l 1001 842 l 693 0 l 564 0 z "},"N":{"ha":1078,"x_min":132,"x_max":946,"o":"m 946 0 l 764 0 l 263 801 l 257 801 q 262 721 260 765 q 266 628 264 676 q 268 528 268 579 l 268 0 l 132 0 l 132 992 l 313 992 l 813 194 l 817 194 q 814 268 815 224 q 810 363 813 313 q 807 458 808 414 l 807 992 l 946 992 l 946 0 z "},"O":{"ha":1090,"x_min":83,"x_max":1007,"o":"m 1007 497 q 978 288 1007 382 q 892 126 950 194 q 748 22 835 58 q 546 -14 661 -14 q 341 23 428 -14 q 197 127 254 60 q 111 289 139 194 q 83 499 83 383 q 133 765 83 651 q 287 943 183 879 q 547 1007 390 1007 q 802 944 700 1007 q 956 766 904 881 q 1007 497 1007 651 m 242 497 q 274 292 242 378 q 374 160 306 207 q 546 114 442 114 q 718 160 651 114 q 817 292 785 207 q 849 497 849 378 q 777 777 849 676 q 547 878 706 878 q 374 832 442 878 q 274 701 306 786 q 242 497 242 617 z "},"P":{"ha":850,"x_min":132,"x_max":782,"o":"m 410 992 q 693 913 604 992 q 782 694 782 835 q 762 575 782 632 q 696 473 742 518 q 574 402 650 428 q 389 376 499 376 l 282 376 l 282 0 l 132 0 l 132 992 l 410 992 m 399 865 l 282 865 l 282 503 l 372 503 q 514 522 457 503 q 599 581 571 540 q 628 689 628 622 q 573 822 628 778 q 399 865 518 865 z "},"Q":{"ha":1090,"x_min":83,"x_max":1007,"o":"m 1007 497 q 976 283 1007 379 q 885 118 946 186 q 732 17 824 50 l 969 -236 l 764 -236 l 575 -12 q 560 -13 568 -12 q 546 -14 553 -14 q 341 23 428 -14 q 197 127 254 60 q 111 289 139 194 q 83 499 83 383 q 133 765 83 651 q 287 943 183 879 q 547 1007 390 1007 q 802 944 700 1007 q 956 766 904 881 q 1007 497 1007 651 m 242 497 q 274 292 242 378 q 374 160 306 207 q 546 114 442 114 q 718 160 651 114 q 817 292 785 207 q 849 497 849 378 q 777 777 849 676 q 547 878 706 878 q 374 832 442 878 q 274 701 306 786 q 242 497 242 617 z "},"R":{"ha":879,"x_min":132,"x_max":865,"o":"m 410 992 q 619 960 538 992 q 742 865 701 928 q 782 706 782 801 q 753 577 782 629 q 681 492 725 525 q 588 440 636 460 l 865 0 l 693 0 l 454 401 l 282 401 l 282 0 l 132 0 l 132 992 l 410 992 m 400 864 l 282 864 l 282 526 l 407 526 q 575 570 522 526 q 628 700 628 614 q 603 795 628 760 q 528 847 579 831 q 400 864 478 864 z "},"S":{"ha":764,"x_min":69,"x_max":701,"o":"m 701 268 q 658 117 701 179 q 535 20 615 54 q 343 -14 454 -14 q 239 -8 289 -14 q 146 10 189 -1 q 69 38 103 21 l 69 179 q 200 134 125 154 q 353 114 275 114 q 464 132 419 114 q 531 182 508 150 q 553 257 553 214 q 530 334 553 303 q 459 392 507 365 q 331 450 411 419 q 230 497 275 471 q 151 557 185 522 q 99 638 117 592 q 81 744 81 683 q 122 885 81 826 q 235 974 163 943 q 403 1006 307 1006 q 552 990 483 1006 q 683 946 621 974 l 636 822 q 521 861 579 846 q 399 876 463 876 q 306 860 343 876 q 249 814 268 843 q 231 746 231 785 q 251 669 231 700 q 318 613 272 639 q 439 557 364 588 q 581 488 522 525 q 671 398 640 450 q 701 268 701 346 z "},"T":{"ha":782,"x_min":18,"x_max":763,"o":"m 465 0 l 315 0 l 315 863 l 18 863 l 18 992 l 763 992 l 763 863 l 465 863 l 465 0 z "},"U":{"ha":1025,"x_min":124,"x_max":901,"o":"m 901 350 q 859 165 901 247 q 729 34 817 82 q 508 -14 642 -14 q 222 87 319 -14 q 124 353 124 188 l 124 992 l 274 992 l 274 360 q 333 176 274 238 q 515 114 393 114 q 651 144 599 114 q 728 230 704 175 q 753 361 753 285 l 753 992 l 901 992 l 901 350 z "},"V":{"ha":854,"x_min":0,"x_max":854,"o":"m 854 992 l 504 0 l 349 0 l 0 992 l 154 992 l 367 369 q 390 298 379 336 q 411 222 401 260 q 426 151 421 185 q 442 222 433 185 q 463 299 451 260 q 486 371 475 338 l 699 992 l 854 992 z "},"W":{"ha":1307,"x_min":11,"x_max":1294,"o":"m 1294 992 l 1033 0 l 874 0 l 699 613 q 683 668 690 638 q 668 728 675 699 q 656 782 661 758 q 649 818 651 806 q 643 782 647 806 q 632 728 639 758 q 618 667 625 699 q 603 608 611 636 l 431 0 l 271 0 l 11 992 l 165 992 l 311 406 q 325 343 318 375 q 338 279 332 311 q 349 217 344 247 q 358 163 354 188 q 367 219 363 189 q 379 283 372 250 q 394 347 386 315 q 410 406 401 379 l 575 992 l 725 992 l 896 403 q 912 343 904 375 q 926 278 919 311 q 938 216 933 246 q 947 163 943 186 q 959 238 951 197 q 976 323 967 279 q 996 406 986 367 l 1142 992 l 1294 992 z "},"X":{"ha":847,"x_min":4,"x_max":843,"o":"m 843 0 l 672 0 l 419 414 l 164 0 l 4 0 l 333 515 l 25 992 l 192 992 l 425 613 l 660 992 l 819 992 l 511 514 l 843 0 z "},"Y":{"ha":810,"x_min":0,"x_max":810,"o":"m 406 528 l 649 992 l 810 992 l 479 385 l 479 0 l 331 0 l 331 379 l 0 992 l 163 992 l 406 528 z "},"Z":{"ha":797,"x_min":47,"x_max":749,"o":"m 749 0 l 47 0 l 47 107 l 556 863 l 63 863 l 63 992 l 736 992 l 736 885 l 228 129 l 749 129 l 749 0 z "},"[":{"ha":458,"x_min":107,"x_max":424,"o":"m 424 -219 l 107 -219 l 107 992 l 424 992 l 424 879 l 243 879 l 243 -107 l 424 -107 l 424 -219 z "},"\\":{"ha":533,"x_min":13,"x_max":522,"o":"m 151 992 l 522 0 l 382 0 l 13 992 l 151 992 z "},"]":{"ha":458,"x_min":35,"x_max":351,"o":"m 35 -107 l 214 -107 l 214 879 l 35 879 l 35 992 l 351 992 l 351 -219 l 35 -219 l 35 -107 z "},"^":{"ha":794,"x_min":47,"x_max":747,"o":"m 47 365 l 342 999 l 419 999 l 747 365 l 624 365 l 383 846 l 169 365 l 47 365 z "},"_":{"ha":603,"x_min":-3,"x_max":606,"o":"m 606 -215 l -3 -215 l -3 -125 l 606 -125 l 606 -215 z "},"`":{"ha":424,"x_min":56,"x_max":368,"o":"m 226 1064 q 268 995 243 1033 q 320 921 293 957 q 368 858 347 885 l 368 842 l 269 842 q 215 888 246 861 q 152 945 183 915 q 95 1003 121 975 q 56 1050 69 1031 l 56 1064 l 226 1064 z "},"a":{"ha":797,"x_min":63,"x_max":686,"o":"m 406 763 q 617 701 547 763 q 686 507 686 639 l 686 0 l 582 0 l 553 104 l 547 104 q 481 38 515 64 q 403 -1 447 11 q 297 -14 360 -14 q 177 10 231 -14 q 93 85 124 35 q 63 213 63 136 q 149 386 63 326 q 414 451 236 446 l 542 456 l 542 497 q 504 614 542 581 q 399 647 467 647 q 288 631 340 647 q 188 590 235 614 l 140 697 q 262 744 193 725 q 406 763 331 763 m 440 357 q 263 315 313 351 q 214 211 214 278 q 249 126 214 153 q 339 100 285 100 q 483 149 426 100 q 540 294 540 197 l 540 360 l 440 357 z "},"b":{"ha":861,"x_min":115,"x_max":789,"o":"m 263 801 q 260 715 263 756 q 256 650 258 674 l 263 650 q 349 729 294 697 q 489 761 403 761 q 706 664 624 761 q 789 375 789 567 q 751 160 789 246 q 646 30 714 74 q 488 -14 578 -14 q 347 17 400 -14 q 263 92 294 49 l 251 92 l 224 0 l 115 0 l 115 1056 l 263 1056 l 263 801 m 454 642 q 340 614 382 642 q 281 529 299 586 q 263 385 263 472 l 263 374 q 304 176 263 244 q 457 107 346 107 q 592 176 546 107 q 638 376 638 246 q 592 575 638 508 q 454 642 546 642 z "},"c":{"ha":681,"x_min":72,"x_max":636,"o":"m 417 -14 q 236 26 314 -14 q 115 152 158 67 q 72 369 72 238 q 119 594 72 508 q 245 722 165 681 q 428 763 325 763 q 545 749 490 763 q 636 719 600 736 l 592 600 q 509 626 553 615 q 426 638 465 638 q 312 608 357 638 q 245 519 267 578 q 224 371 224 460 q 246 228 224 286 q 312 140 268 169 q 421 110 356 110 q 531 124 483 110 q 619 160 578 138 l 619 32 q 532 -3 579 8 q 417 -14 485 -14 z "},"d":{"ha":861,"x_min":72,"x_max":746,"o":"m 372 -14 q 155 83 238 -14 q 72 372 72 181 q 156 664 72 565 q 375 763 239 763 q 474 748 432 763 q 548 708 517 733 q 601 653 579 683 l 610 653 q 603 709 607 672 q 599 775 599 746 l 599 1056 l 746 1056 l 746 0 l 631 0 l 606 100 l 599 100 q 547 42 578 68 q 472 1 515 17 q 372 -14 429 -14 m 407 107 q 560 167 515 107 q 604 349 604 228 l 604 371 q 562 572 604 503 q 406 642 519 642 q 269 569 315 642 q 224 369 224 496 q 269 175 224 243 q 407 107 315 107 z "},"e":{"ha":794,"x_min":72,"x_max":726,"o":"m 410 763 q 579 722 508 763 q 688 604 650 681 q 726 424 726 528 l 726 343 l 224 343 q 284 167 226 228 q 446 106 342 106 q 574 119 518 106 q 690 158 631 132 l 690 36 q 577 -1 635 11 q 440 -14 519 -14 q 249 29 332 -14 q 119 158 165 72 q 72 368 72 243 q 115 582 72 494 q 233 716 157 669 q 410 763 308 763 m 410 649 q 283 597 331 649 q 226 451 235 546 l 579 451 q 561 554 579 510 q 506 624 543 599 q 410 649 468 649 z "},"f":{"ha":496,"x_min":22,"x_max":556,"o":"m 481 636 l 296 636 l 296 0 l 149 0 l 149 636 l 22 636 l 22 706 l 149 751 l 149 799 q 178 952 149 894 q 264 1036 208 1010 q 399 1063 319 1063 q 488 1054 447 1063 q 556 1036 528 1046 l 518 924 q 467 937 496 931 q 406 943 438 943 q 323 907 350 943 q 296 797 296 871 l 296 749 l 481 749 l 481 636 z "},"g":{"ha":861,"x_min":72,"x_max":746,"o":"m 374 763 q 504 735 446 763 q 603 650 563 707 l 610 650 l 626 749 l 746 749 l 746 -10 q 708 -187 746 -115 q 594 -297 671 -260 q 400 -333 517 -333 q 251 -322 319 -333 q 126 -287 183 -311 l 126 -158 q 256 -202 185 -187 q 408 -217 328 -217 q 550 -165 500 -217 q 600 -18 600 -112 l 600 7 q 601 55 600 25 q 604 99 603 85 l 599 99 q 503 13 560 40 q 374 -14 447 -14 q 152 88 232 -14 q 72 372 72 190 q 153 658 72 553 q 374 763 233 763 m 404 640 q 306 609 346 640 q 244 518 265 578 q 224 371 224 458 q 270 172 224 240 q 407 104 317 104 q 497 118 460 104 q 558 161 533 132 q 594 235 582 190 q 606 344 606 281 l 606 372 q 584 527 606 468 q 518 613 563 586 q 404 640 474 640 z "},"h":{"ha":875,"x_min":115,"x_max":764,"o":"m 263 774 q 260 704 263 739 q 254 647 257 669 l 264 647 q 323 711 288 686 q 402 749 358 736 q 492 761 446 761 q 641 733 581 761 q 733 644 701 704 q 764 488 764 583 l 764 0 l 618 0 l 618 467 q 581 598 618 554 q 464 642 544 642 q 344 611 388 642 q 281 522 300 581 q 263 376 263 463 l 263 0 l 115 0 l 115 1056 l 263 1056 l 263 774 z "},"i":{"ha":378,"x_min":106,"x_max":274,"o":"m 263 749 l 263 0 l 115 0 l 115 749 l 263 749 m 190 1033 q 249 1014 224 1033 q 274 949 274 994 q 249 884 274 904 q 190 864 224 864 q 130 884 154 864 q 106 949 106 904 q 130 1014 106 994 q 190 1033 154 1033 z "},"j":{"ha":378,"x_min":-81,"x_max":274,"o":"m 36 -333 q -28 -328 1 -333 q -81 -317 -58 -324 l -81 -199 q -36 -208 -58 -204 q 14 -212 -14 -212 q 86 -188 57 -212 q 115 -96 115 -164 l 115 749 l 263 749 l 263 -103 q 239 -224 263 -172 q 166 -305 215 -276 q 36 -333 117 -333 m 106 949 q 130 1014 106 994 q 190 1033 154 1033 q 249 1014 224 1033 q 274 949 274 994 q 249 884 274 904 q 190 864 224 864 q 130 884 154 864 q 106 949 106 904 z "},"k":{"ha":776,"x_min":115,"x_max":768,"o":"m 261 528 q 259 461 261 499 q 254 392 257 424 l 258 392 q 285 426 269 406 q 318 467 301 446 q 349 503 335 488 l 578 749 l 749 749 l 447 428 l 768 0 l 594 0 l 347 335 l 261 263 l 261 0 l 115 0 l 115 1056 l 261 1056 l 261 528 z "},"l":{"ha":378,"x_min":115,"x_max":263,"o":"m 263 0 l 115 0 l 115 1056 l 263 1056 l 263 0 z "},"m":{"ha":1318,"x_min":115,"x_max":1208,"o":"m 954 763 q 1144 697 1081 763 q 1208 488 1208 632 l 1208 0 l 1061 0 l 1061 468 q 1027 598 1061 554 q 921 642 993 642 q 778 580 821 642 q 735 401 735 518 l 735 0 l 589 0 l 589 468 q 573 564 589 525 q 526 622 557 603 q 447 642 496 642 q 338 611 378 642 q 280 522 297 581 q 263 378 263 463 l 263 0 l 115 0 l 115 749 l 232 749 l 253 649 l 261 649 q 319 713 285 688 q 394 750 353 738 q 481 763 436 763 q 624 733 565 763 q 708 642 682 703 l 719 642 q 819 733 756 704 q 954 763 883 763 z "},"n":{"ha":875,"x_min":115,"x_max":764,"o":"m 494 763 q 694 697 625 763 q 764 488 764 632 l 764 0 l 618 0 l 618 467 q 581 598 618 554 q 464 642 544 642 q 306 574 350 642 q 263 378 263 506 l 263 0 l 115 0 l 115 749 l 232 749 l 253 649 l 261 649 q 322 713 286 688 q 403 750 358 738 q 494 763 447 763 z "},"o":{"ha":846,"x_min":72,"x_max":775,"o":"m 775 375 q 750 210 775 282 q 679 88 725 138 q 568 12 633 38 q 421 -14 503 -14 q 282 12 346 -14 q 172 88 218 38 q 99 210 125 138 q 72 376 72 282 q 115 586 72 500 q 237 717 157 672 q 425 763 317 763 q 606 717 528 763 q 730 586 685 672 q 775 375 775 500 m 224 375 q 244 231 224 292 q 310 139 265 171 q 424 107 354 107 q 538 139 493 107 q 603 231 582 171 q 624 375 624 292 q 602 519 624 461 q 537 609 581 578 q 422 640 493 640 q 271 571 318 640 q 224 375 224 501 z "},"p":{"ha":861,"x_min":115,"x_max":789,"o":"m 489 763 q 706 665 624 763 q 789 375 789 568 q 751 161 789 249 q 646 30 714 74 q 488 -14 578 -14 q 388 1 431 -14 q 315 40 344 15 q 263 92 285 64 l 253 92 q 260 33 257 67 q 263 -28 263 -1 l 263 -333 l 115 -333 l 115 749 l 235 749 l 256 649 l 263 649 q 315 706 285 679 q 389 747 346 732 q 489 763 432 763 m 454 642 q 343 615 385 642 q 283 534 301 588 q 263 399 264 481 l 263 376 q 281 230 263 290 q 341 138 299 169 q 457 107 383 107 q 559 141 519 107 q 618 236 599 175 q 638 378 638 297 q 593 571 638 500 q 454 642 549 642 z "},"q":{"ha":861,"x_min":72,"x_max":746,"o":"m 599 -15 q 601 43 599 11 q 607 100 603 75 l 599 100 q 512 19 567 53 q 369 -14 457 -14 q 155 83 238 -14 q 72 374 72 181 q 110 588 72 501 q 217 719 149 675 q 374 763 285 763 q 515 729 461 763 q 603 649 569 696 l 608 649 l 626 749 l 746 749 l 746 -333 l 599 -333 l 599 -15 m 408 106 q 522 132 479 106 q 583 212 564 158 q 604 346 603 265 l 604 371 q 561 573 604 504 q 406 642 518 642 q 269 569 314 642 q 224 369 224 496 q 269 174 224 243 q 408 106 314 106 z "},"r":{"ha":590,"x_min":115,"x_max":567,"o":"m 485 763 q 528 760 504 763 q 567 756 551 758 l 551 618 q 515 625 536 622 q 476 628 494 628 q 397 612 435 628 q 328 566 358 596 q 280 493 297 536 q 263 394 263 450 l 263 0 l 115 0 l 115 749 l 232 749 l 251 615 l 257 615 q 314 689 281 656 q 390 742 347 722 q 485 763 433 763 z "},"s":{"ha":672,"x_min":68,"x_max":613,"o":"m 613 211 q 576 88 613 138 q 472 12 540 38 q 308 -14 404 -14 q 173 -2 229 -14 q 69 32 117 10 l 69 161 q 185 119 119 138 q 313 100 250 100 q 433 126 396 100 q 469 197 469 153 q 456 242 469 222 q 403 284 442 263 q 292 333 365 306 q 171 391 221 363 q 94 459 121 419 q 68 561 68 499 q 147 710 68 658 q 354 763 225 763 q 483 749 422 763 q 600 710 543 736 l 551 597 q 451 633 503 618 q 347 647 400 647 q 246 626 281 647 q 211 568 211 606 q 227 522 211 542 q 283 483 243 503 q 393 436 324 464 q 512 382 463 410 q 587 314 561 354 q 613 211 613 274 z "},"t":{"ha":532,"x_min":25,"x_max":497,"o":"m 385 106 q 444 111 414 106 q 497 124 475 117 l 497 13 q 433 -6 474 1 q 353 -14 393 -14 q 241 7 292 -14 q 160 79 190 28 q 129 222 129 131 l 129 636 l 25 636 l 25 703 l 135 758 l 186 917 l 276 917 l 276 749 l 490 749 l 490 636 l 276 636 l 276 225 q 306 135 276 164 q 385 106 336 106 z "},"u":{"ha":875,"x_min":108,"x_max":760,"o":"m 760 749 l 760 0 l 642 0 l 621 99 l 614 99 q 553 35 590 60 q 471 -2 515 10 q 379 -14 426 -14 q 231 15 292 -14 q 140 103 171 43 q 108 258 108 164 l 108 749 l 257 749 l 257 281 q 294 150 257 193 q 408 107 331 107 q 531 138 486 107 q 594 227 575 168 q 613 369 613 286 l 613 749 l 760 749 z "},"v":{"ha":731,"x_min":0,"x_max":731,"o":"m 283 0 l 0 749 l 156 749 l 311 311 q 331 249 321 283 q 350 182 342 214 q 361 126 358 150 l 367 126 q 380 183 371 150 q 400 249 389 215 q 419 311 411 283 l 575 749 l 731 749 l 446 0 l 283 0 z "},"w":{"ha":1121,"x_min":15,"x_max":1106,"o":"m 621 375 q 605 436 614 403 q 588 503 596 469 q 572 567 579 538 q 561 613 565 596 l 556 613 q 547 567 553 596 q 532 503 540 538 q 515 435 524 469 q 497 374 507 401 l 386 1 l 222 1 l 15 750 l 165 750 l 263 371 q 283 289 274 332 q 299 206 292 246 q 310 140 307 167 l 315 140 q 324 185 318 158 q 335 242 329 213 q 348 300 342 272 q 361 346 354 328 l 481 750 l 642 750 l 758 346 q 776 280 767 318 q 794 205 786 242 q 804 142 801 168 l 810 142 q 819 203 813 165 q 837 286 826 242 q 857 371 847 331 l 957 750 l 1106 750 l 896 1 l 728 1 l 621 375 z "},"x":{"ha":754,"x_min":19,"x_max":735,"o":"m 286 382 l 32 749 l 200 749 l 378 479 l 556 749 l 722 749 l 468 382 l 735 0 l 568 0 l 378 286 l 186 0 l 19 0 l 286 382 z "},"y":{"ha":732,"x_min":1,"x_max":732,"o":"m 1 749 l 160 749 l 315 324 q 338 261 328 292 q 355 201 347 231 q 367 142 363 171 l 372 142 q 394 227 379 178 q 426 325 410 276 l 574 749 l 732 749 l 411 -101 q 346 -226 385 -174 q 253 -306 307 -278 q 128 -333 200 -333 q 68 -330 93 -333 q 25 -322 43 -326 l 25 -206 q 62 -211 40 -208 q 107 -214 83 -214 q 181 -197 150 -214 q 234 -150 213 -181 q 271 -81 256 -119 l 301 0 l 1 749 z "},"z":{"ha":660,"x_min":49,"x_max":610,"o":"m 610 0 l 49 0 l 49 93 l 435 635 l 72 635 l 72 749 l 599 749 l 599 644 l 221 114 l 610 114 l 610 0 z "},"{":{"ha":533,"x_min":33,"x_max":486,"o":"m 486 -219 q 329 -196 392 -218 q 235 -126 267 -174 q 204 -8 204 -79 l 204 199 q 185 274 204 246 q 127 314 165 301 q 33 326 89 326 l 33 446 q 127 460 89 447 q 185 500 165 472 q 204 572 204 528 l 204 781 q 236 899 204 853 q 331 969 268 946 q 486 992 394 992 l 486 876 q 410 863 442 875 q 360 825 378 850 q 342 756 342 800 l 342 556 q 303 445 342 486 q 189 392 265 404 l 189 383 q 304 328 267 369 q 342 219 342 288 l 342 15 q 359 -53 342 -28 q 408 -91 376 -79 q 486 -104 440 -103 l 486 -219 z "},"|":{"ha":765,"x_min":325,"x_max":440,"o":"m 325 1054 l 440 1054 l 440 -329 l 325 -329 l 325 1054 z "},"}":{"ha":533,"x_min":47,"x_max":500,"o":"m 47 -104 q 124 -90 93 -103 q 174 -52 156 -78 q 192 17 192 -26 l 192 218 q 230 328 192 288 q 344 382 268 369 l 344 390 q 230 444 268 403 q 192 554 192 485 l 192 757 q 174 826 192 800 q 125 864 157 851 q 47 876 93 876 l 47 992 q 206 969 143 992 q 299 899 268 946 q 329 781 329 853 l 329 574 q 349 500 329 528 q 407 459 368 472 q 500 446 446 446 l 500 326 q 407 314 446 326 q 349 274 368 301 q 329 200 329 246 l 329 -8 q 297 -127 329 -81 q 203 -197 265 -174 q 47 -219 140 -219 l 47 -104 z "},"~":{"ha":794,"x_min":67,"x_max":726,"o":"m 374 436 q 289 466 322 458 q 225 474 256 474 q 143 450 186 474 q 67 392 100 426 l 67 514 q 142 569 100 550 q 235 588 185 588 q 315 579 275 588 q 419 543 356 571 q 504 513 471 521 q 567 506 538 506 q 650 529 607 506 q 726 588 693 553 l 726 467 q 651 411 693 431 q 558 392 608 392 q 477 401 518 392 q 374 436 436 410 z "}," ":{"ha":361,"x_min":0,"x_max":0,"o":""},"¡":{"ha":381,"x_min":94,"x_max":285,"o":"m 136 444 l 242 444 l 276 -251 l 101 -251 l 136 444 m 285 658 q 257 581 285 603 q 190 558 229 558 q 123 581 151 558 q 94 657 94 603 q 123 735 94 711 q 189 758 151 758 q 257 735 229 758 q 285 658 285 711 z "},"¢":{"ha":794,"x_min":118,"x_max":683,"o":"m 494 896 q 599 882 550 894 q 683 853 647 869 l 639 733 q 555 761 600 750 q 471 772 510 772 q 358 743 403 772 q 290 654 313 714 q 268 504 268 594 q 291 356 268 414 q 358 272 314 299 q 468 244 403 244 q 575 256 529 244 q 667 289 621 268 l 667 163 q 587 133 628 143 q 493 119 546 122 l 493 -14 l 392 -14 l 392 124 q 247 178 308 136 q 151 301 185 221 q 118 503 118 381 q 152 711 118 631 q 248 835 186 792 q 392 890 310 878 l 392 1006 l 494 1006 l 494 896 z "},"£":{"ha":794,"x_min":47,"x_max":750,"o":"m 467 1004 q 606 988 543 1004 q 718 949 669 972 l 669 833 q 576 868 626 853 q 474 883 526 883 q 367 847 406 883 q 328 726 328 811 l 328 553 l 601 553 l 601 443 l 328 443 l 328 313 q 314 224 328 260 q 278 166 300 188 q 231 131 256 144 l 750 131 l 750 0 l 47 0 l 47 122 q 117 156 88 133 q 164 215 147 178 q 181 311 181 253 l 181 443 l 51 443 l 51 553 l 181 553 l 181 736 q 217 884 181 825 q 318 974 253 943 q 467 1004 383 1004 z "},"¤":{"ha":794,"x_min":81,"x_max":711,"o":"m 126 490 q 138 568 126 531 q 171 638 150 606 l 81 729 l 158 804 l 247 717 q 317 750 279 739 q 397 761 356 761 q 474 750 438 761 q 544 717 511 739 l 635 804 l 711 731 l 624 639 q 656 570 643 608 q 668 490 668 532 q 657 410 668 449 q 624 340 646 372 l 710 251 l 635 176 l 544 264 q 475 232 513 243 q 397 221 438 221 q 317 233 356 221 q 247 265 279 244 l 158 178 l 82 253 l 171 342 q 138 411 150 374 q 126 490 126 449 m 233 490 q 255 408 233 444 q 314 349 276 371 q 397 326 351 326 q 481 349 443 326 q 540 408 518 371 q 563 490 563 444 q 540 575 563 538 q 481 635 518 613 q 397 657 443 657 q 314 635 351 657 q 255 575 276 613 q 233 490 233 538 z "},"¥":{"ha":794,"x_min":15,"x_max":776,"o":"m 396 529 l 624 992 l 776 992 l 503 475 l 664 475 l 664 376 l 467 376 l 467 269 l 664 269 l 664 171 l 467 171 l 467 0 l 325 0 l 325 171 l 128 171 l 128 269 l 325 269 l 325 376 l 128 376 l 128 475 l 285 475 l 15 992 l 169 992 l 396 529 z "},"¦":{"ha":765,"x_min":325,"x_max":440,"o":"m 325 1054 l 440 1054 l 440 518 l 325 518 l 325 1054 m 325 207 l 440 207 l 440 -329 l 325 -329 l 325 207 z "},"§":{"ha":701,"x_min":79,"x_max":617,"o":"m 90 547 q 122 656 90 614 q 194 719 153 697 q 119 786 146 747 q 93 879 93 825 q 165 1013 93 964 q 367 1063 238 1063 q 498 1049 442 1063 q 607 1013 554 1035 l 564 908 q 469 944 517 929 q 360 958 422 958 q 253 938 285 958 q 222 882 222 918 q 238 838 222 857 q 292 799 254 818 q 393 756 329 781 q 513 698 464 729 q 590 626 563 667 q 617 531 617 586 q 588 417 617 461 q 518 349 558 374 q 590 286 565 322 q 615 197 615 250 q 535 46 615 100 q 314 -8 456 -8 q 182 3 239 -8 q 79 39 125 15 l 79 154 q 151 125 111 139 q 234 103 190 111 q 318 94 278 94 q 449 122 413 94 q 485 188 485 150 q 472 231 485 213 q 424 270 460 250 q 317 318 388 290 q 194 375 246 346 q 117 445 143 404 q 90 547 90 486 m 208 561 q 226 503 208 529 q 285 454 244 478 q 394 404 326 431 l 418 396 q 472 442 447 414 q 497 513 497 469 q 480 572 497 546 q 419 623 463 599 q 296 674 376 647 q 235 634 263 664 q 208 561 208 604 z "},"¨":{"ha":817,"x_min":201,"x_max":614,"o":"m 201 947 q 224 1005 201 988 q 275 1022 246 1022 q 328 1005 306 1022 q 350 949 350 988 q 328 891 350 910 q 275 872 306 872 q 224 891 246 872 q 201 947 201 910 m 467 947 q 488 1005 467 988 q 540 1022 510 1022 q 592 1005 569 1022 q 614 949 614 988 q 592 891 614 910 q 540 872 569 872 q 488 891 510 872 q 467 947 467 910 z "},"©":{"ha":1156,"x_min":68,"x_max":1088,"o":"m 599 183 q 391 269 460 183 q 322 496 322 354 q 355 658 322 588 q 450 768 388 728 q 604 808 513 808 q 692 797 647 808 q 775 767 736 786 l 735 679 q 667 706 700 697 q 606 715 635 715 q 478 657 524 715 q 433 496 433 599 q 473 333 433 390 q 604 275 513 275 q 676 284 636 275 q 750 307 715 293 l 750 217 q 682 193 717 203 q 599 183 647 183 m 578 -14 q 374 24 467 -14 q 212 130 281 61 q 106 292 143 199 q 68 496 68 385 q 106 699 68 606 q 213 860 143 792 q 375 967 282 929 q 578 1006 468 1006 q 776 968 683 1006 q 938 862 868 931 q 1048 700 1008 793 q 1088 496 1088 607 q 1050 292 1088 385 q 944 130 1013 199 q 782 24 875 61 q 578 -14 689 -14 m 578 64 q 742 96 665 64 q 878 186 819 128 q 970 323 938 244 q 1003 496 1003 401 q 971 663 1003 585 q 882 801 939 742 q 748 894 825 861 q 578 928 671 928 q 407 896 485 928 q 272 806 329 864 q 183 669 214 749 q 151 496 151 590 q 183 327 151 406 q 271 190 214 249 q 406 97 328 131 q 578 64 485 64 z "},"ª":{"ha":507,"x_min":40,"x_max":440,"o":"m 256 1003 q 394 962 349 1003 q 440 838 440 921 l 440 533 l 368 533 l 350 597 q 282 545 322 565 q 190 525 242 525 q 112 541 146 525 q 59 588 78 557 q 40 667 40 619 q 65 748 40 717 q 141 796 90 779 q 265 815 192 813 l 340 818 l 340 843 q 313 903 340 885 q 244 921 286 921 q 173 910 208 921 q 103 883 138 900 l 68 958 q 155 990 107 978 q 256 1003 203 1003 m 274 747 q 171 723 197 744 q 144 668 144 701 q 163 620 144 635 q 213 606 182 606 q 309 637 278 606 q 340 721 340 668 l 340 750 l 274 747 z "},"«":{"ha":750,"x_min":56,"x_max":696,"o":"m 56 379 l 294 667 l 400 608 l 207 371 l 400 133 l 294 74 l 56 361 l 56 379 m 350 379 l 592 667 l 696 608 l 503 371 l 696 133 l 592 74 l 350 361 l 350 379 z "},"¬":{"ha":794,"x_min":67,"x_max":725,"o":"m 725 546 l 725 175 l 613 175 l 613 433 l 67 433 l 67 546 l 725 546 z "},"­":{"ha":447,"x_min":51,"x_max":396,"o":"m 51 310 l 51 435 l 396 435 l 396 310 l 51 310 z "},"®":{"ha":1156,"x_min":68,"x_max":1088,"o":"m 386 192 l 386 800 l 565 800 q 732 755 679 800 q 785 619 785 710 q 751 516 785 554 q 676 461 718 478 l 838 192 l 717 192 l 579 431 l 493 431 l 493 192 l 386 192 m 563 518 q 647 546 617 518 q 676 617 676 574 q 649 688 676 665 q 561 710 622 710 l 493 710 l 493 518 l 563 518 m 578 -14 q 374 24 467 -14 q 212 130 281 61 q 106 292 143 199 q 68 496 68 385 q 106 699 68 606 q 213 860 143 792 q 375 967 282 929 q 578 1006 468 1006 q 776 968 683 1006 q 938 862 868 931 q 1048 700 1008 793 q 1088 496 1088 607 q 1050 292 1088 385 q 944 130 1013 199 q 782 24 875 61 q 578 -14 689 -14 m 578 64 q 742 96 665 64 q 878 186 819 128 q 970 323 938 244 q 1003 496 1003 401 q 971 663 1003 585 q 882 801 939 742 q 748 894 825 861 q 578 928 671 928 q 407 896 485 928 q 272 806 329 864 q 183 669 214 749 q 151 496 151 590 q 183 327 151 406 q 271 190 214 249 q 406 97 328 131 q 578 64 485 64 z "},"¯":{"ha":694,"x_min":-4,"x_max":699,"o":"m 699 1056 l -4 1056 l -4 1160 l 699 1160 l 699 1056 z "},"°":{"ha":594,"x_min":69,"x_max":524,"o":"m 297 567 q 178 594 229 567 q 99 672 128 622 q 69 786 69 721 q 98 900 69 850 q 177 978 126 950 q 297 1006 228 1006 q 415 978 364 1006 q 495 901 467 950 q 524 786 524 851 q 495 672 524 721 q 415 594 467 622 q 297 567 364 567 m 299 663 q 390 697 358 663 q 421 786 421 731 q 389 877 421 843 q 299 911 357 911 q 206 877 238 911 q 174 786 174 843 q 206 697 174 731 q 299 663 238 663 z "},"±":{"ha":794,"x_min":67,"x_max":726,"o":"m 67 0 l 67 114 l 726 114 l 726 0 l 67 0 m 453 561 l 725 561 l 725 449 l 453 449 l 453 169 l 339 169 l 339 449 l 67 449 l 67 561 l 339 561 l 339 842 l 453 842 l 453 561 z "},"²":{"ha":499,"x_min":35,"x_max":440,"o":"m 440 578 l 35 578 l 35 664 l 192 818 q 272 900 244 868 q 309 958 299 932 q 319 1011 319 983 q 297 1070 319 1050 q 236 1090 274 1090 q 166 1075 199 1090 q 97 1031 133 1060 l 38 1106 q 129 1163 79 1142 q 243 1185 179 1185 q 384 1141 332 1185 q 436 1019 436 1097 q 419 938 436 975 q 366 861 401 900 q 279 772 331 822 l 179 679 l 440 679 l 440 578 z "},"³":{"ha":499,"x_min":29,"x_max":453,"o":"m 238 1185 q 383 1142 332 1185 q 435 1031 435 1099 q 406 942 435 978 q 329 892 376 907 l 329 886 q 420 838 388 875 q 453 747 453 801 q 394 617 453 667 q 211 567 336 567 q 115 576 160 567 q 29 608 71 586 l 29 708 q 122 671 75 685 q 213 657 168 657 q 308 683 278 657 q 339 753 339 708 q 303 819 339 796 q 197 842 268 842 l 119 842 l 119 926 l 193 926 q 292 953 264 926 q 321 1017 321 979 q 296 1076 321 1057 q 232 1094 271 1094 q 158 1081 193 1094 q 86 1042 124 1067 l 31 1115 q 122 1166 74 1147 q 238 1185 171 1185 z "},"´":{"ha":424,"x_min":56,"x_max":368,"o":"m 368 1050 q 327 1003 353 1031 q 270 945 301 975 q 208 888 239 915 q 153 842 178 861 l 56 842 l 56 858 q 103 921 76 885 q 154 995 129 957 q 196 1064 179 1033 l 368 1064 l 368 1050 z "},"µ":{"ha":881,"x_min":115,"x_max":765,"o":"m 765 749 l 765 0 l 650 0 l 628 100 l 619 100 q 567 38 597 64 q 499 -1 538 13 q 411 -14 461 -14 q 324 3 361 -14 q 261 49 286 19 l 256 49 q 260 6 258 32 q 262 -51 261 -19 q 263 -117 263 -83 l 263 -333 l 115 -333 l 115 749 l 263 749 l 263 279 q 301 151 263 194 q 417 107 339 107 q 537 138 493 107 q 599 227 581 168 q 618 369 618 286 l 618 749 l 765 749 z "},"¶":{"ha":910,"x_min":76,"x_max":771,"o":"m 771 -176 l 682 -176 l 682 961 l 549 961 l 549 -176 l 460 -176 l 460 379 q 413 370 439 374 q 361 367 386 367 q 211 399 275 367 q 112 506 147 431 q 76 707 76 581 q 115 916 76 840 q 222 1024 153 992 q 382 1056 292 1056 l 771 1056 l 771 -176 z "},"·":{"ha":379,"x_min":94,"x_max":285,"o":"m 94 490 q 122 567 94 544 q 189 589 150 589 q 257 567 229 589 q 285 490 285 544 q 257 413 285 436 q 189 389 229 389 q 122 413 150 389 q 94 490 94 436 z "},"¸":{"ha":304,"x_min":7,"x_max":292,"o":"m 292 -186 q 242 -294 292 -256 q 85 -333 192 -333 q 40 -331 61 -333 q 7 -325 19 -328 l 7 -237 q 44 -243 21 -240 q 88 -246 67 -246 q 151 -234 128 -246 q 174 -190 174 -222 q 140 -140 174 -158 q 51 -115 107 -122 l 110 0 l 204 0 l 174 -64 q 233 -87 206 -72 q 276 -126 260 -103 q 292 -186 292 -150 z "},"¹":{"ha":499,"x_min":54,"x_max":351,"o":"m 351 1172 l 351 578 l 235 578 l 235 938 q 235 983 235 960 q 238 1027 236 1006 q 240 1065 239 1049 q 211 1039 228 1054 q 179 1013 194 1024 l 111 961 l 54 1035 l 242 1172 l 351 1172 z "},"º":{"ha":528,"x_min":43,"x_max":485,"o":"m 485 765 q 424 588 485 650 q 263 525 364 525 q 105 587 167 525 q 43 765 43 649 q 103 942 43 881 q 265 1003 163 1003 q 380 975 331 1003 q 457 894 429 947 q 485 765 485 842 m 144 765 q 173 649 144 688 q 264 610 201 610 q 354 649 326 610 q 382 765 382 688 q 354 881 382 843 q 264 918 326 918 q 173 881 201 918 q 144 765 144 843 z "},"»":{"ha":750,"x_min":54,"x_max":694,"o":"m 694 361 l 454 74 l 350 133 l 543 371 l 350 608 l 454 667 l 694 379 l 694 361 m 399 361 l 160 74 l 54 133 l 247 371 l 54 608 l 160 667 l 399 379 l 399 361 z "},"¼":{"ha":1069,"x_min":42,"x_max":1057,"o":"m 188 0 l 776 992 l 897 992 l 308 0 l 188 0 m 222 757 q 223 802 222 779 q 225 847 224 825 q 228 885 226 868 q 199 858 215 874 q 167 832 183 843 l 99 781 l 42 854 l 229 992 l 339 992 l 339 397 l 222 397 l 222 757 m 851 0 l 851 125 l 583 125 l 583 206 l 854 599 l 972 599 l 972 217 l 1057 217 l 1057 125 l 972 125 l 972 0 l 851 0 m 689 217 l 851 217 l 851 340 q 853 406 851 369 q 856 476 854 443 q 828 426 849 460 q 793 369 807 392 l 689 217 z "},"½":{"ha":1113,"x_min":31,"x_max":1056,"o":"m 158 0 l 747 992 l 868 992 l 279 0 l 158 0 m 211 757 q 212 791 211 774 q 213 825 213 808 q 215 858 214 842 q 217 885 215 874 q 188 858 204 874 q 156 832 171 843 l 86 781 l 31 854 l 218 992 l 328 992 l 328 397 l 211 397 l 211 757 m 650 0 l 650 86 l 807 240 q 887 322 860 290 q 924 380 914 354 q 933 433 933 406 q 910 492 933 472 q 850 513 888 513 q 781 497 814 513 q 711 453 747 482 l 653 528 q 744 585 694 564 q 858 607 794 607 q 999 563 947 607 q 1051 442 1051 519 q 1033 360 1051 397 q 981 283 1015 322 q 894 194 946 244 l 794 101 l 1056 101 l 1056 0 l 650 0 z "},"¾":{"ha":1111,"x_min":33,"x_max":1099,"o":"m 244 0 l 833 992 l 956 992 l 367 0 l 244 0 m 215 386 q 119 396 164 386 q 33 428 75 406 l 33 528 q 126 490 79 504 q 217 476 172 476 q 313 502 282 476 q 343 572 343 528 q 308 638 343 615 q 201 661 272 661 l 124 661 l 124 746 l 197 746 q 297 772 268 746 q 325 836 325 799 q 300 895 325 876 q 236 914 275 914 q 163 900 197 914 q 90 861 128 886 l 35 935 q 126 985 78 967 q 242 1004 175 1004 q 388 961 336 1004 q 439 850 439 918 q 410 762 439 797 q 333 711 381 726 l 333 706 q 424 658 392 694 q 457 567 457 621 q 399 436 457 486 q 215 386 340 386 m 893 0 l 893 125 l 625 125 l 625 206 l 894 599 l 1014 599 l 1014 217 l 1099 217 l 1099 125 l 1014 125 l 1014 0 l 893 0 m 731 217 l 893 217 l 893 340 q 894 406 893 369 q 897 476 896 443 q 869 426 890 460 q 835 369 849 392 l 731 217 z "},"¿":{"ha":621,"x_min":35,"x_max":607,"o":"m 428 404 q 417 316 428 354 q 379 244 406 278 q 307 174 353 211 q 228 105 257 133 q 187 49 199 76 q 175 -18 175 21 q 215 -110 175 -78 q 329 -142 256 -142 q 450 -124 396 -142 q 554 -82 504 -106 l 607 -193 q 476 -246 547 -225 q 319 -267 406 -267 q 109 -200 183 -267 q 35 -22 35 -133 q 54 81 35 38 q 110 161 74 125 q 199 239 147 197 q 267 302 243 276 q 298 354 290 328 q 306 417 306 381 l 306 444 l 428 444 l 428 404 m 457 657 q 429 581 457 603 q 360 558 401 558 q 294 581 322 558 q 265 657 265 603 q 294 735 265 711 q 360 758 322 758 q 429 735 401 758 q 457 657 457 711 z "},"À":{"ha":908,"x_min":0,"x_max":907,"o":"m 750 0 l 644 286 l 261 286 l 156 0 l 0 0 l 376 996 l 532 996 l 907 0 l 750 0 m 503 696 q 488 742 499 711 q 468 806 478 774 q 453 860 458 839 q 437 799 446 832 q 419 740 428 767 q 406 696 411 713 l 306 417 l 603 417 l 503 696 m 422 1307 q 464 1238 439 1276 q 516 1164 489 1200 q 564 1101 543 1128 l 564 1085 l 465 1085 q 410 1131 442 1104 q 348 1188 379 1158 q 291 1246 317 1218 q 251 1293 265 1274 l 251 1307 l 422 1307 z "},"Á":{"ha":908,"x_min":0,"x_max":907,"o":"m 750 0 l 644 286 l 261 286 l 156 0 l 0 0 l 376 996 l 532 996 l 907 0 l 750 0 m 503 696 q 488 742 499 711 q 468 806 478 774 q 453 860 458 839 q 437 799 446 832 q 419 740 428 767 q 406 696 411 713 l 306 417 l 603 417 l 503 696 m 685 1293 q 644 1246 669 1274 q 587 1188 618 1218 q 525 1131 556 1158 q 469 1085 494 1104 l 372 1085 l 372 1101 q 419 1164 393 1128 q 471 1238 446 1200 q 513 1307 496 1276 l 685 1307 l 685 1293 z "},"Â":{"ha":908,"x_min":0,"x_max":907,"o":"m 750 0 l 644 286 l 261 286 l 156 0 l 0 0 l 376 996 l 532 996 l 907 0 l 750 0 m 503 696 q 488 742 499 711 q 468 806 478 774 q 453 860 458 839 q 437 799 446 832 q 419 740 428 767 q 406 696 411 713 l 306 417 l 603 417 l 503 696 m 531 1307 q 580 1238 549 1276 q 645 1163 611 1200 q 704 1101 679 1126 l 704 1085 l 603 1085 q 527 1139 567 1107 q 450 1208 488 1171 q 374 1140 413 1171 q 300 1085 336 1108 l 200 1085 l 200 1101 q 259 1164 226 1128 q 322 1238 292 1200 q 372 1307 353 1276 l 531 1307 z "},"Ã":{"ha":908,"x_min":0,"x_max":907,"o":"m 750 0 l 644 286 l 261 286 l 156 0 l 0 0 l 376 996 l 532 996 l 907 0 l 750 0 m 503 696 q 488 742 499 711 q 468 806 478 774 q 453 860 458 839 q 437 799 446 832 q 419 740 428 767 q 406 696 411 713 l 306 417 l 603 417 l 503 696 m 190 1085 q 208 1164 194 1129 q 242 1222 221 1199 q 290 1258 263 1246 q 353 1271 318 1271 q 410 1260 382 1271 q 465 1233 439 1249 q 515 1206 490 1218 q 563 1194 540 1194 q 610 1214 592 1194 q 636 1272 628 1233 l 715 1272 q 664 1135 707 1185 q 554 1086 621 1086 q 498 1097 525 1086 q 444 1124 471 1108 q 392 1151 417 1140 q 344 1163 368 1163 q 297 1143 314 1163 q 269 1085 279 1124 l 190 1085 z "},"Ä":{"ha":908,"x_min":0,"x_max":907,"o":"m 750 0 l 644 286 l 261 286 l 156 0 l 0 0 l 376 996 l 532 996 l 907 0 l 750 0 m 503 696 q 488 742 499 711 q 468 806 478 774 q 453 860 458 839 q 437 799 446 832 q 419 740 428 767 q 406 696 411 713 l 306 417 l 603 417 l 503 696 m 247 1190 q 269 1248 247 1231 q 321 1265 292 1265 q 374 1248 351 1265 q 396 1192 396 1231 q 374 1134 396 1153 q 321 1115 351 1115 q 269 1134 292 1115 q 247 1190 247 1153 m 513 1190 q 534 1248 513 1231 q 586 1265 556 1265 q 638 1248 615 1265 q 660 1192 660 1231 q 638 1134 660 1153 q 586 1115 615 1115 q 534 1134 556 1115 q 513 1190 513 1153 z "},"Å":{"ha":908,"x_min":0,"x_max":907,"o":"m 750 0 l 644 286 l 261 286 l 156 0 l 0 0 l 376 996 l 532 996 l 907 0 l 750 0 m 503 696 q 488 742 499 711 q 468 806 478 774 q 453 860 458 839 q 437 799 446 832 q 419 740 428 767 q 406 696 411 713 l 306 417 l 603 417 l 503 696 m 451 919 q 338 959 381 919 q 294 1071 294 999 q 338 1181 294 1142 q 451 1221 381 1221 q 564 1181 518 1221 q 610 1072 610 1142 q 565 959 610 999 q 451 919 519 919 m 451 996 q 504 1016 483 996 q 525 1071 525 1036 q 503 1124 525 1104 q 451 1144 482 1144 q 398 1124 419 1144 q 376 1071 376 1104 q 396 1016 376 1036 q 451 996 415 996 z "},"Æ":{"ha":1253,"x_min":-1,"x_max":1169,"o":"m 1169 0 l 631 0 l 631 286 l 288 286 l 153 0 l -1 0 l 463 992 l 1169 992 l 1169 864 l 781 864 l 781 581 l 1144 581 l 1144 454 l 781 454 l 781 129 l 1169 129 l 1169 0 m 344 417 l 631 417 l 631 861 l 549 861 l 344 417 z "},"Ç":{"ha":879,"x_min":83,"x_max":835,"o":"m 556 876 q 424 851 482 876 q 324 775 365 825 q 262 654 283 725 q 240 494 240 583 q 275 292 240 378 q 379 161 310 207 q 554 115 449 115 q 677 127 618 115 q 797 158 736 139 l 797 29 q 678 -3 739 7 q 536 -14 617 -14 q 284 49 385 -14 q 133 226 183 111 q 83 496 83 342 q 115 702 83 608 q 206 864 146 796 q 353 969 265 932 q 557 1006 442 1006 q 704 990 632 1006 q 835 944 776 974 l 779 819 q 674 859 731 842 q 556 876 618 876 m 663 -186 q 613 -294 663 -256 q 456 -333 563 -333 q 411 -331 432 -333 q 378 -325 390 -328 l 378 -237 q 415 -243 392 -240 q 458 -246 438 -246 q 522 -234 499 -246 q 544 -190 544 -222 q 511 -140 544 -158 q 422 -115 478 -122 l 481 0 l 575 0 l 544 -64 q 603 -87 576 -72 q 647 -126 631 -103 q 663 -186 663 -150 z "},"È":{"ha":774,"x_min":132,"x_max":690,"o":"m 690 0 l 132 0 l 132 992 l 690 992 l 690 864 l 282 864 l 282 581 l 665 581 l 665 454 l 282 454 l 282 129 l 690 129 l 690 0 m 392 1307 q 433 1238 408 1276 q 485 1164 458 1200 q 533 1101 513 1128 l 533 1085 l 435 1085 q 380 1131 411 1104 q 317 1188 349 1158 q 260 1246 286 1218 q 221 1293 235 1274 l 221 1307 l 392 1307 z "},"É":{"ha":774,"x_min":132,"x_max":690,"o":"m 690 0 l 132 0 l 132 992 l 690 992 l 690 864 l 282 864 l 282 581 l 665 581 l 665 454 l 282 454 l 282 129 l 690 129 l 690 0 m 654 1293 q 613 1246 639 1274 q 556 1188 588 1218 q 494 1131 525 1158 q 439 1085 464 1104 l 342 1085 l 342 1101 q 389 1164 363 1128 q 440 1238 415 1200 q 482 1307 465 1276 l 654 1307 l 654 1293 z "},"Ê":{"ha":774,"x_min":132,"x_max":690,"o":"m 690 0 l 132 0 l 132 992 l 690 992 l 690 864 l 282 864 l 282 581 l 665 581 l 665 454 l 282 454 l 282 129 l 690 129 l 690 0 m 500 1307 q 549 1238 518 1276 q 615 1163 581 1200 q 674 1101 649 1126 l 674 1085 l 572 1085 q 497 1139 536 1107 q 419 1208 457 1171 q 344 1140 382 1171 q 269 1085 306 1108 l 169 1085 l 169 1101 q 228 1164 196 1128 q 292 1238 261 1200 q 342 1307 322 1276 l 500 1307 z "},"Ë":{"ha":774,"x_min":132,"x_max":690,"o":"m 690 0 l 132 0 l 132 992 l 690 992 l 690 864 l 282 864 l 282 581 l 665 581 l 665 454 l 282 454 l 282 129 l 690 129 l 690 0 m 215 1190 q 238 1248 215 1231 q 289 1265 260 1265 q 342 1248 319 1265 q 364 1192 364 1231 q 342 1134 364 1153 q 289 1115 319 1115 q 238 1134 260 1115 q 215 1190 215 1153 m 481 1190 q 502 1248 481 1231 q 554 1265 524 1265 q 606 1248 583 1265 q 628 1192 628 1231 q 606 1134 628 1153 q 554 1115 583 1115 q 502 1134 524 1115 q 481 1190 481 1153 z "},"Ì":{"ha":492,"x_min":44,"x_max":438,"o":"m 438 0 l 53 0 l 53 86 l 171 121 l 171 869 l 53 906 l 53 992 l 438 992 l 438 906 l 321 869 l 321 121 l 438 86 l 438 0 m 215 1307 q 257 1238 232 1276 q 309 1164 282 1200 q 357 1101 336 1128 l 357 1085 l 258 1085 q 203 1131 235 1104 q 141 1188 172 1158 q 84 1246 110 1218 q 44 1293 58 1274 l 44 1307 l 215 1307 z "},"Í":{"ha":492,"x_min":53,"x_max":478,"o":"m 438 0 l 53 0 l 53 86 l 171 121 l 171 869 l 53 906 l 53 992 l 438 992 l 438 906 l 321 869 l 321 121 l 438 86 l 438 0 m 478 1293 q 437 1246 463 1274 q 380 1188 411 1218 q 318 1131 349 1158 q 263 1085 288 1104 l 165 1085 l 165 1101 q 213 1164 186 1128 q 264 1238 239 1200 q 306 1307 289 1276 l 478 1307 l 478 1293 z "},"Î":{"ha":492,"x_min":-6,"x_max":499,"o":"m 438 0 l 53 0 l 53 86 l 171 121 l 171 869 l 53 906 l 53 992 l 438 992 l 438 906 l 321 869 l 321 121 l 438 86 l 438 0 m 325 1307 q 374 1238 343 1276 q 440 1163 406 1200 q 499 1101 474 1126 l 499 1085 l 397 1085 q 322 1139 361 1107 q 244 1208 282 1171 q 169 1140 207 1171 q 94 1085 131 1108 l -6 1085 l -6 1101 q 53 1164 21 1128 q 117 1238 86 1200 q 167 1307 147 1276 l 325 1307 z "},"Ï":{"ha":492,"x_min":40,"x_max":453,"o":"m 438 0 l 53 0 l 53 86 l 171 121 l 171 869 l 53 906 l 53 992 l 438 992 l 438 906 l 321 869 l 321 121 l 438 86 l 438 0 m 40 1190 q 63 1248 40 1231 q 114 1265 85 1265 q 167 1248 144 1265 q 189 1192 189 1231 q 167 1134 189 1153 q 114 1115 144 1115 q 63 1134 85 1115 q 40 1190 40 1153 m 306 1190 q 327 1248 306 1231 q 379 1265 349 1265 q 431 1248 408 1265 q 453 1192 453 1231 q 431 1134 453 1153 q 379 1115 408 1115 q 327 1134 349 1115 q 306 1190 306 1153 z "},"Ð":{"ha":1018,"x_min":39,"x_max":935,"o":"m 439 992 q 701 936 590 992 q 874 773 813 881 q 935 506 935 665 q 872 226 935 339 q 692 57 810 114 q 408 0 575 0 l 139 0 l 139 426 l 39 426 l 39 554 l 139 554 l 139 992 l 439 992 m 429 865 l 289 865 l 289 554 l 511 554 l 511 426 l 289 426 l 289 126 l 403 126 q 685 221 592 126 q 778 501 778 315 q 736 707 778 626 q 617 826 694 788 q 429 865 540 865 z "},"Ñ":{"ha":1078,"x_min":132,"x_max":946,"o":"m 946 0 l 764 0 l 263 801 l 257 801 q 262 721 260 765 q 266 628 264 676 q 268 528 268 579 l 268 0 l 132 0 l 132 992 l 313 992 l 813 194 l 817 194 q 814 268 815 224 q 810 363 813 313 q 807 458 808 414 l 807 992 l 946 992 l 946 0 m 276 1085 q 294 1164 281 1129 q 328 1222 307 1199 q 376 1258 349 1246 q 439 1271 404 1271 q 497 1260 468 1271 q 551 1233 525 1249 q 601 1206 576 1218 q 649 1194 626 1194 q 696 1214 678 1194 q 722 1272 714 1233 l 801 1272 q 750 1135 793 1185 q 640 1086 707 1086 q 584 1097 611 1086 q 530 1124 557 1108 q 478 1151 503 1140 q 431 1163 454 1163 q 383 1143 400 1163 q 356 1085 365 1124 l 276 1085 z "},"Ò":{"ha":1090,"x_min":83,"x_max":1007,"o":"m 1007 497 q 978 288 1007 382 q 892 126 950 194 q 748 22 835 58 q 546 -14 661 -14 q 341 23 428 -14 q 197 127 254 60 q 111 289 139 194 q 83 499 83 383 q 133 765 83 651 q 287 943 183 879 q 547 1007 390 1007 q 802 944 700 1007 q 956 766 904 881 q 1007 497 1007 651 m 242 497 q 274 292 242 378 q 374 160 306 207 q 546 114 442 114 q 718 160 651 114 q 817 292 785 207 q 849 497 849 378 q 777 777 849 676 q 547 878 706 878 q 374 832 442 878 q 274 701 306 786 q 242 497 242 617 m 515 1307 q 557 1238 532 1276 q 609 1164 582 1200 q 657 1101 636 1128 l 657 1085 l 558 1085 q 503 1131 535 1104 q 441 1188 472 1158 q 384 1246 410 1218 q 344 1293 358 1274 l 344 1307 l 515 1307 z "},"Ó":{"ha":1090,"x_min":83,"x_max":1007,"o":"m 1007 497 q 978 288 1007 382 q 892 126 950 194 q 748 22 835 58 q 546 -14 661 -14 q 341 23 428 -14 q 197 127 254 60 q 111 289 139 194 q 83 499 83 383 q 133 765 83 651 q 287 943 183 879 q 547 1007 390 1007 q 802 944 700 1007 q 956 766 904 881 q 1007 497 1007 651 m 242 497 q 274 292 242 378 q 374 160 306 207 q 546 114 442 114 q 718 160 651 114 q 817 292 785 207 q 849 497 849 378 q 777 777 849 676 q 547 878 706 878 q 374 832 442 878 q 274 701 306 786 q 242 497 242 617 m 778 1293 q 737 1246 763 1274 q 680 1188 711 1218 q 618 1131 649 1158 q 563 1085 588 1104 l 465 1085 l 465 1101 q 513 1164 486 1128 q 564 1238 539 1200 q 606 1307 589 1276 l 778 1307 l 778 1293 z "},"Ô":{"ha":1090,"x_min":83,"x_max":1007,"o":"m 1007 497 q 978 288 1007 382 q 892 126 950 194 q 748 22 835 58 q 546 -14 661 -14 q 341 23 428 -14 q 197 127 254 60 q 111 289 139 194 q 83 499 83 383 q 133 765 83 651 q 287 943 183 879 q 547 1007 390 1007 q 802 944 700 1007 q 956 766 904 881 q 1007 497 1007 651 m 242 497 q 274 292 242 378 q 374 160 306 207 q 546 114 442 114 q 718 160 651 114 q 817 292 785 207 q 849 497 849 378 q 777 777 849 676 q 547 878 706 878 q 374 832 442 878 q 274 701 306 786 q 242 497 242 617 m 624 1307 q 673 1238 642 1276 q 738 1163 704 1200 q 797 1101 772 1126 l 797 1085 l 696 1085 q 620 1139 660 1107 q 543 1208 581 1171 q 467 1140 506 1171 q 393 1085 429 1108 l 293 1085 l 293 1101 q 352 1164 319 1128 q 415 1238 385 1200 q 465 1307 446 1276 l 624 1307 z "},"Õ":{"ha":1090,"x_min":83,"x_max":1007,"o":"m 1007 497 q 978 288 1007 382 q 892 126 950 194 q 748 22 835 58 q 546 -14 661 -14 q 341 23 428 -14 q 197 127 254 60 q 111 289 139 194 q 83 499 83 383 q 133 765 83 651 q 287 943 183 879 q 547 1007 390 1007 q 802 944 700 1007 q 956 766 904 881 q 1007 497 1007 651 m 242 497 q 274 292 242 378 q 374 160 306 207 q 546 114 442 114 q 718 160 651 114 q 817 292 785 207 q 849 497 849 378 q 777 777 849 676 q 547 878 706 878 q 374 832 442 878 q 274 701 306 786 q 242 497 242 617 m 283 1085 q 301 1164 288 1129 q 335 1222 314 1199 q 383 1258 356 1246 q 446 1271 411 1271 q 503 1260 475 1271 q 558 1233 532 1249 q 608 1206 583 1218 q 656 1194 633 1194 q 703 1214 685 1194 q 729 1272 721 1233 l 808 1272 q 757 1135 800 1185 q 647 1086 714 1086 q 591 1097 618 1086 q 537 1124 564 1108 q 485 1151 510 1140 q 438 1163 461 1163 q 390 1143 407 1163 q 363 1085 372 1124 l 283 1085 z "},"Ö":{"ha":1090,"x_min":83,"x_max":1007,"o":"m 1007 497 q 978 288 1007 382 q 892 126 950 194 q 748 22 835 58 q 546 -14 661 -14 q 341 23 428 -14 q 197 127 254 60 q 111 289 139 194 q 83 499 83 383 q 133 765 83 651 q 287 943 183 879 q 547 1007 390 1007 q 802 944 700 1007 q 956 766 904 881 q 1007 497 1007 651 m 242 497 q 274 292 242 378 q 374 160 306 207 q 546 114 442 114 q 718 160 651 114 q 817 292 785 207 q 849 497 849 378 q 777 777 849 676 q 547 878 706 878 q 374 832 442 878 q 274 701 306 786 q 242 497 242 617 m 340 1190 q 363 1248 340 1231 q 414 1265 385 1265 q 467 1248 444 1265 q 489 1192 489 1231 q 467 1134 489 1153 q 414 1115 444 1115 q 363 1134 385 1115 q 340 1190 340 1153 m 606 1190 q 627 1248 606 1231 q 679 1265 649 1265 q 731 1248 708 1265 q 753 1192 753 1231 q 731 1134 753 1153 q 679 1115 708 1115 q 627 1134 649 1115 q 606 1190 606 1153 z "},"×":{"ha":794,"x_min":89,"x_max":704,"o":"m 624 797 l 704 718 l 476 490 l 701 263 l 624 183 l 394 408 l 171 183 l 90 264 l 315 490 l 89 717 l 169 797 l 396 571 l 624 797 z "},"Ø":{"ha":1090,"x_min":83,"x_max":1007,"o":"m 1007 497 q 978 288 1007 382 q 892 126 950 194 q 748 22 835 58 q 546 -14 661 -14 q 409 1 471 -14 q 297 46 347 17 l 232 -49 l 140 13 l 210 113 q 115 278 146 181 q 83 499 83 376 q 133 765 83 651 q 287 943 183 879 q 547 1007 390 1007 q 679 992 618 1007 q 790 949 740 976 l 853 1039 l 944 978 l 876 882 q 974 717 942 815 q 1007 497 1007 619 m 849 497 q 789 754 849 660 l 376 160 q 451 126 408 139 q 546 114 494 114 q 718 160 651 114 q 817 292 785 207 q 849 497 849 378 m 242 497 q 256 355 242 419 q 299 242 269 290 l 713 835 q 639 867 681 856 q 547 878 597 878 q 374 832 442 878 q 274 701 306 786 q 242 497 242 617 z "},"Ù":{"ha":1025,"x_min":124,"x_max":901,"o":"m 901 350 q 859 165 901 247 q 729 34 817 82 q 508 -14 642 -14 q 222 87 319 -14 q 124 353 124 188 l 124 992 l 274 992 l 274 360 q 333 176 274 238 q 515 114 393 114 q 651 144 599 114 q 728 230 704 175 q 753 361 753 285 l 753 992 l 901 992 l 901 350 m 482 1307 q 524 1238 499 1276 q 576 1164 549 1200 q 624 1101 603 1128 l 624 1085 l 525 1085 q 470 1131 501 1104 q 408 1188 439 1158 q 351 1246 376 1218 q 311 1293 325 1274 l 311 1307 l 482 1307 z "},"Ú":{"ha":1025,"x_min":124,"x_max":901,"o":"m 901 350 q 859 165 901 247 q 729 34 817 82 q 508 -14 642 -14 q 222 87 319 -14 q 124 353 124 188 l 124 992 l 274 992 l 274 360 q 333 176 274 238 q 515 114 393 114 q 651 144 599 114 q 728 230 704 175 q 753 361 753 285 l 753 992 l 901 992 l 901 350 m 744 1293 q 703 1246 729 1274 q 647 1188 678 1218 q 585 1131 615 1158 q 529 1085 554 1104 l 432 1085 l 432 1101 q 479 1164 453 1128 q 531 1238 506 1200 q 572 1307 556 1276 l 744 1307 l 744 1293 z "},"Û":{"ha":1025,"x_min":124,"x_max":901,"o":"m 901 350 q 859 165 901 247 q 729 34 817 82 q 508 -14 642 -14 q 222 87 319 -14 q 124 353 124 188 l 124 992 l 274 992 l 274 360 q 333 176 274 238 q 515 114 393 114 q 651 144 599 114 q 728 230 704 175 q 753 361 753 285 l 753 992 l 901 992 l 901 350 m 592 1307 q 641 1238 610 1276 q 706 1163 672 1200 q 765 1101 740 1126 l 765 1085 l 664 1085 q 588 1139 628 1107 q 511 1208 549 1171 q 435 1140 474 1171 q 361 1085 397 1108 l 261 1085 l 261 1101 q 320 1164 288 1128 q 383 1238 353 1200 q 433 1307 414 1276 l 592 1307 z "},"Ü":{"ha":1025,"x_min":124,"x_max":901,"o":"m 901 350 q 859 165 901 247 q 729 34 817 82 q 508 -14 642 -14 q 222 87 319 -14 q 124 353 124 188 l 124 992 l 274 992 l 274 360 q 333 176 274 238 q 515 114 393 114 q 651 144 599 114 q 728 230 704 175 q 753 361 753 285 l 753 992 l 901 992 l 901 350 m 307 1190 q 329 1248 307 1231 q 381 1265 351 1265 q 433 1248 411 1265 q 456 1192 456 1231 q 433 1134 456 1153 q 381 1115 411 1115 q 329 1134 351 1115 q 307 1190 307 1153 m 572 1190 q 594 1248 572 1231 q 646 1265 615 1265 q 697 1248 675 1265 q 719 1192 719 1231 q 697 1134 719 1153 q 646 1115 675 1115 q 594 1134 615 1115 q 572 1190 572 1153 z "},"Ý":{"ha":810,"x_min":0,"x_max":810,"o":"m 406 528 l 649 992 l 810 992 l 479 385 l 479 0 l 331 0 l 331 379 l 0 992 l 163 992 l 406 528 m 636 1293 q 595 1246 621 1274 q 538 1188 569 1218 q 476 1131 507 1158 q 421 1085 446 1104 l 324 1085 l 324 1101 q 371 1164 344 1128 q 422 1238 397 1200 q 464 1307 447 1276 l 636 1307 l 636 1293 z "},"Þ":{"ha":850,"x_min":132,"x_max":782,"o":"m 782 528 q 763 408 782 465 q 698 307 743 351 q 578 236 653 263 q 392 210 503 210 l 282 210 l 282 0 l 132 0 l 132 992 l 282 992 l 282 825 l 411 825 q 694 746 607 825 q 782 528 782 667 m 372 335 q 516 353 460 335 q 600 415 572 372 q 628 524 628 457 q 572 656 628 613 q 394 699 517 699 l 282 699 l 282 335 l 372 335 z "},"ß":{"ha":910,"x_min":115,"x_max":851,"o":"m 761 853 q 742 768 761 804 q 693 705 722 732 q 635 656 664 678 q 586 613 606 633 q 567 571 567 593 q 577 538 567 553 q 615 502 588 522 q 694 447 643 482 q 778 383 743 417 q 832 310 813 350 q 851 215 851 271 q 817 85 851 136 q 722 10 783 35 q 576 -14 661 -14 q 461 -2 511 -14 q 374 32 411 10 l 374 158 q 429 131 397 144 q 498 108 461 117 q 569 100 535 100 q 672 128 639 100 q 704 208 704 157 q 693 263 704 239 q 653 310 682 286 q 574 365 625 333 q 483 431 517 401 q 436 490 450 460 q 422 557 422 521 q 441 631 422 600 q 488 683 460 661 q 545 728 517 706 q 592 775 574 750 q 611 838 611 800 q 563 917 611 890 q 442 943 515 943 q 352 930 393 943 q 287 885 311 917 q 263 797 263 854 l 263 0 l 115 0 l 115 800 q 158 952 115 894 q 275 1036 201 1010 q 442 1063 349 1063 q 608 1039 536 1063 q 721 969 681 1015 q 761 853 761 922 z "},"à":{"ha":797,"x_min":63,"x_max":686,"o":"m 406 763 q 617 701 547 763 q 686 507 686 639 l 686 0 l 582 0 l 553 104 l 547 104 q 481 38 515 64 q 403 -1 447 11 q 297 -14 360 -14 q 177 10 231 -14 q 93 85 124 35 q 63 213 63 136 q 149 386 63 326 q 414 451 236 446 l 542 456 l 542 497 q 504 614 542 581 q 399 647 467 647 q 288 631 340 647 q 188 590 235 614 l 140 697 q 262 744 193 725 q 406 763 331 763 m 440 357 q 263 315 313 351 q 214 211 214 278 q 249 126 214 153 q 339 100 285 100 q 483 149 426 100 q 540 294 540 197 l 540 360 l 440 357 m 368 1064 q 410 995 385 1033 q 462 921 435 957 q 510 858 489 885 l 510 842 l 411 842 q 356 888 388 861 q 294 945 325 915 q 237 1003 263 975 q 197 1050 211 1031 l 197 1064 l 368 1064 z "},"á":{"ha":797,"x_min":63,"x_max":686,"o":"m 406 763 q 617 701 547 763 q 686 507 686 639 l 686 0 l 582 0 l 553 104 l 547 104 q 481 38 515 64 q 403 -1 447 11 q 297 -14 360 -14 q 177 10 231 -14 q 93 85 124 35 q 63 213 63 136 q 149 386 63 326 q 414 451 236 446 l 542 456 l 542 497 q 504 614 542 581 q 399 647 467 647 q 288 631 340 647 q 188 590 235 614 l 140 697 q 262 744 193 725 q 406 763 331 763 m 440 357 q 263 315 313 351 q 214 211 214 278 q 249 126 214 153 q 339 100 285 100 q 483 149 426 100 q 540 294 540 197 l 540 360 l 440 357 m 631 1050 q 590 1003 615 1031 q 533 945 564 975 q 471 888 501 915 q 415 842 440 861 l 318 842 l 318 858 q 365 921 339 885 q 417 995 392 957 q 458 1064 442 1033 l 631 1064 l 631 1050 z "},"â":{"ha":797,"x_min":63,"x_max":686,"o":"m 406 763 q 617 701 547 763 q 686 507 686 639 l 686 0 l 582 0 l 553 104 l 547 104 q 481 38 515 64 q 403 -1 447 11 q 297 -14 360 -14 q 177 10 231 -14 q 93 85 124 35 q 63 213 63 136 q 149 386 63 326 q 414 451 236 446 l 542 456 l 542 497 q 504 614 542 581 q 399 647 467 647 q 288 631 340 647 q 188 590 235 614 l 140 697 q 262 744 193 725 q 406 763 331 763 m 440 357 q 263 315 313 351 q 214 211 214 278 q 249 126 214 153 q 339 100 285 100 q 483 149 426 100 q 540 294 540 197 l 540 360 l 440 357 m 478 1064 q 527 995 496 1033 q 592 920 558 957 q 651 858 626 883 l 651 842 l 550 842 q 474 896 514 864 q 397 965 435 928 q 322 897 360 928 q 247 842 283 865 l 147 842 l 147 858 q 206 921 174 885 q 269 995 239 957 q 319 1064 300 1033 l 478 1064 z "},"ã":{"ha":797,"x_min":63,"x_max":686,"o":"m 406 763 q 617 701 547 763 q 686 507 686 639 l 686 0 l 582 0 l 553 104 l 547 104 q 481 38 515 64 q 403 -1 447 11 q 297 -14 360 -14 q 177 10 231 -14 q 93 85 124 35 q 63 213 63 136 q 149 386 63 326 q 414 451 236 446 l 542 456 l 542 497 q 504 614 542 581 q 399 647 467 647 q 288 631 340 647 q 188 590 235 614 l 140 697 q 262 744 193 725 q 406 763 331 763 m 440 357 q 263 315 313 351 q 214 211 214 278 q 249 126 214 153 q 339 100 285 100 q 483 149 426 100 q 540 294 540 197 l 540 360 l 440 357 m 138 842 q 155 921 142 886 q 189 979 168 956 q 238 1015 210 1003 q 300 1028 265 1028 q 358 1017 329 1028 q 412 990 386 1006 q 463 963 438 975 q 510 951 488 951 q 557 971 539 951 q 583 1029 575 990 l 663 1029 q 611 892 654 942 q 501 843 568 843 q 445 854 472 843 q 391 881 418 865 q 340 908 364 897 q 292 919 315 919 q 244 900 261 919 q 217 842 226 881 l 138 842 z "},"ä":{"ha":797,"x_min":63,"x_max":686,"o":"m 406 763 q 617 701 547 763 q 686 507 686 639 l 686 0 l 582 0 l 553 104 l 547 104 q 481 38 515 64 q 403 -1 447 11 q 297 -14 360 -14 q 177 10 231 -14 q 93 85 124 35 q 63 213 63 136 q 149 386 63 326 q 414 451 236 446 l 542 456 l 542 497 q 504 614 542 581 q 399 647 467 647 q 288 631 340 647 q 188 590 235 614 l 140 697 q 262 744 193 725 q 406 763 331 763 m 440 357 q 263 315 313 351 q 214 211 214 278 q 249 126 214 153 q 339 100 285 100 q 483 149 426 100 q 540 294 540 197 l 540 360 l 440 357 m 193 947 q 215 1005 193 988 q 267 1022 238 1022 q 319 1005 297 1022 q 342 949 342 988 q 319 891 342 910 q 267 872 297 872 q 215 891 238 872 q 193 947 193 910 m 458 947 q 480 1005 458 988 q 532 1022 501 1022 q 583 1005 561 1022 q 606 949 606 988 q 583 891 606 910 q 532 872 561 872 q 480 891 501 872 q 458 947 458 910 z "},"å":{"ha":797,"x_min":63,"x_max":686,"o":"m 406 763 q 617 701 547 763 q 686 507 686 639 l 686 0 l 582 0 l 553 104 l 547 104 q 481 38 515 64 q 403 -1 447 11 q 297 -14 360 -14 q 177 10 231 -14 q 93 85 124 35 q 63 213 63 136 q 149 386 63 326 q 414 451 236 446 l 542 456 l 542 497 q 504 614 542 581 q 399 647 467 647 q 288 631 340 647 q 188 590 235 614 l 140 697 q 262 744 193 725 q 406 763 331 763 m 440 357 q 263 315 313 351 q 214 211 214 278 q 249 126 214 153 q 339 100 285 100 q 483 149 426 100 q 540 294 540 197 l 540 360 l 440 357 m 397 842 q 283 881 326 842 q 240 993 240 921 q 283 1103 240 1064 q 397 1143 326 1143 q 510 1103 464 1143 q 556 994 556 1064 q 510 881 556 921 q 397 842 465 842 m 397 918 q 450 938 429 918 q 471 993 471 958 q 449 1047 471 1026 q 397 1067 428 1067 q 344 1047 365 1067 q 322 993 322 1026 q 342 938 322 958 q 397 918 361 918 z "},"æ":{"ha":1222,"x_min":63,"x_max":1154,"o":"m 853 763 q 1013 722 944 763 q 1117 605 1081 681 q 1154 426 1154 529 l 1154 343 l 674 343 q 730 165 676 224 q 881 106 783 106 q 1006 119 950 106 q 1118 158 1063 132 l 1118 36 q 1006 -1 1063 11 q 875 -14 950 -14 q 758 3 813 -14 q 662 53 704 19 q 589 138 619 88 q 516 56 556 90 q 425 4 476 22 q 300 -14 374 -14 q 180 10 233 -14 q 94 85 126 35 q 63 213 63 136 q 99 341 63 289 q 211 421 136 393 q 397 451 286 449 l 524 456 l 524 506 q 485 615 524 583 q 381 647 447 647 q 274 631 326 647 q 174 592 221 615 l 128 697 q 250 744 179 726 q 392 763 321 763 q 532 735 475 763 q 621 651 589 708 q 718 733 660 704 q 853 763 776 763 m 426 357 q 260 315 307 351 q 214 211 214 278 q 247 126 214 153 q 333 100 279 100 q 429 122 386 100 q 497 186 472 143 q 522 294 522 229 l 522 360 l 426 357 m 851 649 q 728 599 774 649 q 676 451 683 549 l 1006 451 q 989 554 1006 510 q 938 624 972 599 q 851 649 904 649 z "},"ç":{"ha":681,"x_min":72,"x_max":636,"o":"m 417 -14 q 236 26 314 -14 q 115 152 158 67 q 72 369 72 238 q 119 594 72 508 q 245 722 165 681 q 428 763 325 763 q 545 749 490 763 q 636 719 600 736 l 592 600 q 509 626 553 615 q 426 638 465 638 q 312 608 357 638 q 245 519 267 578 q 224 371 224 460 q 246 228 224 286 q 312 140 268 169 q 421 110 356 110 q 531 124 483 110 q 619 160 578 138 l 619 32 q 532 -3 579 8 q 417 -14 485 -14 m 542 -186 q 492 -294 542 -256 q 335 -333 442 -333 q 290 -331 311 -333 q 257 -325 269 -328 l 257 -237 q 294 -243 271 -240 q 338 -246 317 -246 q 401 -234 378 -246 q 424 -190 424 -222 q 390 -140 424 -158 q 301 -115 357 -122 l 360 0 l 454 0 l 424 -64 q 483 -87 456 -72 q 526 -126 510 -103 q 542 -186 542 -150 z "},"è":{"ha":794,"x_min":72,"x_max":726,"o":"m 410 763 q 579 722 508 763 q 688 604 650 681 q 726 424 726 528 l 726 343 l 224 343 q 284 167 226 228 q 446 106 342 106 q 574 119 518 106 q 690 158 631 132 l 690 36 q 577 -1 635 11 q 440 -14 519 -14 q 249 29 332 -14 q 119 158 165 72 q 72 368 72 243 q 115 582 72 494 q 233 716 157 669 q 410 763 308 763 m 410 649 q 283 597 331 649 q 226 451 235 546 l 579 451 q 561 554 579 510 q 506 624 543 599 q 410 649 468 649 m 369 1064 q 411 995 386 1033 q 463 921 436 957 q 511 858 490 885 l 511 842 l 413 842 q 358 888 389 861 q 295 945 326 915 q 238 1003 264 975 q 199 1050 213 1031 l 199 1064 l 369 1064 z "},"é":{"ha":794,"x_min":72,"x_max":726,"o":"m 410 763 q 579 722 508 763 q 688 604 650 681 q 726 424 726 528 l 726 343 l 224 343 q 284 167 226 228 q 446 106 342 106 q 574 119 518 106 q 690 158 631 132 l 690 36 q 577 -1 635 11 q 440 -14 519 -14 q 249 29 332 -14 q 119 158 165 72 q 72 368 72 243 q 115 582 72 494 q 233 716 157 669 q 410 763 308 763 m 410 649 q 283 597 331 649 q 226 451 235 546 l 579 451 q 561 554 579 510 q 506 624 543 599 q 410 649 468 649 m 632 1050 q 591 1003 617 1031 q 534 945 565 975 q 472 888 503 915 q 417 842 442 861 l 319 842 l 319 858 q 367 921 340 885 q 418 995 393 957 q 460 1064 443 1033 l 632 1064 l 632 1050 z "},"ê":{"ha":794,"x_min":72,"x_max":726,"o":"m 410 763 q 579 722 508 763 q 688 604 650 681 q 726 424 726 528 l 726 343 l 224 343 q 284 167 226 228 q 446 106 342 106 q 574 119 518 106 q 690 158 631 132 l 690 36 q 577 -1 635 11 q 440 -14 519 -14 q 249 29 332 -14 q 119 158 165 72 q 72 368 72 243 q 115 582 72 494 q 233 716 157 669 q 410 763 308 763 m 410 649 q 283 597 331 649 q 226 451 235 546 l 579 451 q 561 554 579 510 q 506 624 543 599 q 410 649 468 649 m 479 1064 q 528 995 497 1033 q 594 920 560 957 q 653 858 628 883 l 653 842 l 551 842 q 476 896 515 864 q 399 965 436 928 q 323 897 361 928 q 249 842 285 865 l 149 842 l 149 858 q 208 921 175 885 q 271 995 240 957 q 321 1064 301 1033 l 479 1064 z "},"ë":{"ha":794,"x_min":72,"x_max":726,"o":"m 410 763 q 579 722 508 763 q 688 604 650 681 q 726 424 726 528 l 726 343 l 224 343 q 284 167 226 228 q 446 106 342 106 q 574 119 518 106 q 690 158 631 132 l 690 36 q 577 -1 635 11 q 440 -14 519 -14 q 249 29 332 -14 q 119 158 165 72 q 72 368 72 243 q 115 582 72 494 q 233 716 157 669 q 410 763 308 763 m 410 649 q 283 597 331 649 q 226 451 235 546 l 579 451 q 561 554 579 510 q 506 624 543 599 q 410 649 468 649 m 194 947 q 217 1005 194 988 q 268 1022 239 1022 q 321 1005 299 1022 q 343 949 343 988 q 321 891 343 910 q 268 872 299 872 q 217 891 239 872 q 194 947 194 910 m 460 947 q 481 1005 460 988 q 533 1022 503 1022 q 585 1005 563 1022 q 607 949 607 988 q 585 891 607 910 q 533 872 563 872 q 481 891 503 872 q 460 947 460 910 z "},"ì":{"ha":378,"x_min":-12,"x_max":300,"o":"m 263 0 l 115 0 l 115 749 l 263 749 l 263 0 m 158 1064 q 200 995 175 1033 q 252 921 225 957 q 300 858 279 885 l 300 842 l 201 842 q 147 888 178 861 q 84 945 115 915 q 27 1003 53 975 q -12 1050 1 1031 l -12 1064 l 158 1064 z "},"í":{"ha":378,"x_min":108,"x_max":421,"o":"m 263 0 l 115 0 l 115 749 l 263 749 l 263 0 m 421 1050 q 380 1003 406 1031 q 323 945 354 975 q 261 888 292 915 q 206 842 231 861 l 108 842 l 108 858 q 156 921 129 885 q 207 995 182 957 q 249 1064 232 1033 l 421 1064 l 421 1050 z "},"î":{"ha":378,"x_min":-64,"x_max":442,"o":"m 263 0 l 115 0 l 115 749 l 263 749 l 263 0 m 267 1064 q 316 995 285 1033 q 381 920 347 957 q 440 858 415 883 l 440 842 l 339 842 q 263 896 303 864 q 186 965 224 928 q 110 897 149 928 q 36 842 72 865 l -64 842 l -64 858 q -5 921 -37 885 q 58 995 28 957 q 108 1064 89 1033 l 267 1064 z "},"ï":{"ha":378,"x_min":-17,"x_max":396,"o":"m 263 0 l 115 0 l 115 749 l 263 749 l 263 0 m -17 947 q 6 1005 -17 988 q 57 1022 28 1022 q 110 1005 88 1022 q 132 949 132 988 q 110 891 132 910 q 57 872 88 872 q 6 891 28 872 q -17 947 -17 910 m 249 947 q 270 1005 249 988 q 322 1022 292 1022 q 374 1005 351 1022 q 396 949 396 988 q 374 891 396 910 q 322 872 351 872 q 270 891 292 872 q 249 947 249 910 z "},"ð":{"ha":846,"x_min":72,"x_max":775,"o":"m 303 1063 q 394 1017 349 1042 q 478 964 439 992 l 636 1057 l 693 974 l 563 897 q 675 760 628 838 q 749 590 722 683 q 775 383 775 496 q 732 164 775 253 q 610 31 689 75 q 421 -14 531 -14 q 241 27 319 -14 q 117 144 163 68 q 72 326 72 221 q 113 507 72 432 q 227 622 154 582 q 399 663 300 663 q 486 654 447 663 q 556 629 525 646 q 607 586 586 613 l 613 589 q 548 722 590 661 q 451 831 506 782 l 279 729 l 221 814 l 367 899 q 309 935 339 917 q 249 968 279 953 l 303 1063 m 424 547 q 308 522 353 547 q 243 446 264 496 q 222 322 222 396 q 243 208 222 258 q 308 130 264 158 q 424 101 353 101 q 577 165 529 101 q 625 353 625 229 q 613 427 625 392 q 576 490 601 463 q 514 532 551 517 q 424 547 476 547 z "},"ñ":{"ha":875,"x_min":115,"x_max":764,"o":"m 494 763 q 694 697 625 763 q 764 488 764 632 l 764 0 l 618 0 l 618 467 q 581 598 618 554 q 464 642 544 642 q 306 574 350 642 q 263 378 263 506 l 263 0 l 115 0 l 115 749 l 232 749 l 253 649 l 261 649 q 322 713 286 688 q 403 750 358 738 q 494 763 447 763 m 175 842 q 192 921 179 886 q 226 979 206 956 q 275 1015 247 1003 q 338 1028 303 1028 q 395 1017 367 1028 q 449 990 424 1006 q 500 963 475 975 q 547 951 525 951 q 594 971 576 951 q 621 1029 613 990 l 700 1029 q 649 892 692 942 q 539 843 606 843 q 483 854 510 843 q 428 881 456 865 q 377 908 401 897 q 329 919 353 919 q 281 900 299 919 q 254 842 264 881 l 175 842 z "},"ò":{"ha":846,"x_min":72,"x_max":775,"o":"m 775 375 q 750 210 775 282 q 679 88 725 138 q 568 12 633 38 q 421 -14 503 -14 q 282 12 346 -14 q 172 88 218 38 q 99 210 125 138 q 72 376 72 282 q 115 586 72 500 q 237 717 157 672 q 425 763 317 763 q 606 717 528 763 q 730 586 685 672 q 775 375 775 500 m 224 375 q 244 231 224 292 q 310 139 265 171 q 424 107 354 107 q 538 139 493 107 q 603 231 582 171 q 624 375 624 292 q 602 519 624 461 q 537 609 581 578 q 422 640 493 640 q 271 571 318 640 q 224 375 224 501 m 393 1064 q 435 995 410 1033 q 487 921 460 957 q 535 858 514 885 l 535 842 l 436 842 q 381 888 413 861 q 319 945 350 915 q 262 1003 288 975 q 222 1050 236 1031 l 222 1064 l 393 1064 z "},"ó":{"ha":846,"x_min":72,"x_max":775,"o":"m 775 375 q 750 210 775 282 q 679 88 725 138 q 568 12 633 38 q 421 -14 503 -14 q 282 12 346 -14 q 172 88 218 38 q 99 210 125 138 q 72 376 72 282 q 115 586 72 500 q 237 717 157 672 q 425 763 317 763 q 606 717 528 763 q 730 586 685 672 q 775 375 775 500 m 224 375 q 244 231 224 292 q 310 139 265 171 q 424 107 354 107 q 538 139 493 107 q 603 231 582 171 q 624 375 624 292 q 602 519 624 461 q 537 609 581 578 q 422 640 493 640 q 271 571 318 640 q 224 375 224 501 m 656 1050 q 615 1003 640 1031 q 558 945 589 975 q 496 888 526 915 q 440 842 465 861 l 343 842 l 343 858 q 390 921 364 885 q 442 995 417 957 q 483 1064 467 1033 l 656 1064 l 656 1050 z "},"ô":{"ha":846,"x_min":72,"x_max":775,"o":"m 775 375 q 750 210 775 282 q 679 88 725 138 q 568 12 633 38 q 421 -14 503 -14 q 282 12 346 -14 q 172 88 218 38 q 99 210 125 138 q 72 376 72 282 q 115 586 72 500 q 237 717 157 672 q 425 763 317 763 q 606 717 528 763 q 730 586 685 672 q 775 375 775 500 m 224 375 q 244 231 224 292 q 310 139 265 171 q 424 107 354 107 q 538 139 493 107 q 603 231 582 171 q 624 375 624 292 q 602 519 624 461 q 537 609 581 578 q 422 640 493 640 q 271 571 318 640 q 224 375 224 501 m 501 1064 q 551 995 519 1033 q 616 920 582 957 q 675 858 650 883 l 675 842 l 574 842 q 498 896 538 864 q 421 965 458 928 q 345 897 383 928 q 271 842 307 865 l 171 842 l 171 858 q 230 921 197 885 q 293 995 263 957 q 343 1064 324 1033 l 501 1064 z "},"õ":{"ha":846,"x_min":72,"x_max":775,"o":"m 775 375 q 750 210 775 282 q 679 88 725 138 q 568 12 633 38 q 421 -14 503 -14 q 282 12 346 -14 q 172 88 218 38 q 99 210 125 138 q 72 376 72 282 q 115 586 72 500 q 237 717 157 672 q 425 763 317 763 q 606 717 528 763 q 730 586 685 672 q 775 375 775 500 m 224 375 q 244 231 224 292 q 310 139 265 171 q 424 107 354 107 q 538 139 493 107 q 603 231 582 171 q 624 375 624 292 q 602 519 624 461 q 537 609 581 578 q 422 640 493 640 q 271 571 318 640 q 224 375 224 501 m 161 842 q 178 921 165 886 q 213 979 192 956 q 261 1015 233 1003 q 324 1028 289 1028 q 381 1017 353 1028 q 435 990 410 1006 q 486 963 461 975 q 533 951 511 951 q 581 971 563 951 q 607 1029 599 990 l 686 1029 q 635 892 678 942 q 525 843 592 843 q 469 854 496 843 q 415 881 442 865 q 363 908 388 897 q 315 919 339 919 q 267 900 285 919 q 240 842 250 881 l 161 842 z "},"ö":{"ha":846,"x_min":72,"x_max":775,"o":"m 775 375 q 750 210 775 282 q 679 88 725 138 q 568 12 633 38 q 421 -14 503 -14 q 282 12 346 -14 q 172 88 218 38 q 99 210 125 138 q 72 376 72 282 q 115 586 72 500 q 237 717 157 672 q 425 763 317 763 q 606 717 528 763 q 730 586 685 672 q 775 375 775 500 m 224 375 q 244 231 224 292 q 310 139 265 171 q 424 107 354 107 q 538 139 493 107 q 603 231 582 171 q 624 375 624 292 q 602 519 624 461 q 537 609 581 578 q 422 640 493 640 q 271 571 318 640 q 224 375 224 501 m 218 947 q 240 1005 218 988 q 292 1022 263 1022 q 344 1005 322 1022 q 367 949 367 988 q 344 891 367 910 q 292 872 322 872 q 240 891 263 872 q 218 947 218 910 m 483 947 q 505 1005 483 988 q 557 1022 526 1022 q 608 1005 586 1022 q 631 949 631 988 q 608 891 631 910 q 557 872 586 872 q 505 891 526 872 q 483 947 483 910 z "},"÷":{"ha":794,"x_min":67,"x_max":726,"o":"m 67 433 l 67 546 l 726 546 l 726 433 l 67 433 m 396 163 q 338 184 363 163 q 313 253 313 206 q 338 322 313 303 q 396 342 363 342 q 453 322 429 342 q 478 253 478 303 q 453 184 478 206 q 396 163 429 163 m 396 636 q 338 658 363 636 q 313 726 313 679 q 338 796 313 776 q 396 815 363 815 q 453 796 429 815 q 478 726 478 776 q 453 658 478 679 q 396 636 429 636 z "},"ø":{"ha":846,"x_min":72,"x_max":775,"o":"m 775 375 q 732 164 775 251 q 610 31 689 76 q 421 -14 531 -14 q 329 -3 372 -14 q 247 28 286 8 l 196 -47 l 108 11 l 165 93 q 97 214 121 143 q 72 375 72 285 q 167 662 72 561 q 425 763 261 763 q 519 751 475 763 q 603 717 564 739 l 653 788 l 740 729 l 685 651 q 751 532 726 601 q 775 375 775 463 m 224 375 q 230 289 224 329 q 251 217 236 249 l 529 613 q 482 633 510 625 q 422 640 454 640 q 271 571 318 640 q 224 375 224 501 m 624 375 q 617 457 624 419 q 599 525 610 494 l 321 132 q 368 113 342 119 q 424 107 394 107 q 538 139 493 107 q 603 231 582 171 q 624 375 624 292 z "},"ù":{"ha":875,"x_min":108,"x_max":760,"o":"m 760 749 l 760 0 l 642 0 l 621 99 l 614 99 q 553 35 590 60 q 471 -2 515 10 q 379 -14 426 -14 q 231 15 292 -14 q 140 103 171 43 q 108 258 108 164 l 108 749 l 257 749 l 257 281 q 294 150 257 193 q 408 107 331 107 q 531 138 486 107 q 594 227 575 168 q 613 369 613 286 l 613 749 l 760 749 m 407 1064 q 449 995 424 1033 q 501 921 474 957 q 549 858 528 885 l 549 842 l 450 842 q 395 888 426 861 q 333 945 364 915 q 276 1003 301 975 q 236 1050 250 1031 l 236 1064 l 407 1064 z "},"ú":{"ha":875,"x_min":108,"x_max":760,"o":"m 760 749 l 760 0 l 642 0 l 621 99 l 614 99 q 553 35 590 60 q 471 -2 515 10 q 379 -14 426 -14 q 231 15 292 -14 q 140 103 171 43 q 108 258 108 164 l 108 749 l 257 749 l 257 281 q 294 150 257 193 q 408 107 331 107 q 531 138 486 107 q 594 227 575 168 q 613 369 613 286 l 613 749 l 760 749 m 669 1050 q 628 1003 654 1031 q 572 945 603 975 q 510 888 540 915 q 454 842 479 861 l 357 842 l 357 858 q 404 921 378 885 q 456 995 431 957 q 497 1064 481 1033 l 669 1064 l 669 1050 z "},"û":{"ha":875,"x_min":108,"x_max":760,"o":"m 760 749 l 760 0 l 642 0 l 621 99 l 614 99 q 553 35 590 60 q 471 -2 515 10 q 379 -14 426 -14 q 231 15 292 -14 q 140 103 171 43 q 108 258 108 164 l 108 749 l 257 749 l 257 281 q 294 150 257 193 q 408 107 331 107 q 531 138 486 107 q 594 227 575 168 q 613 369 613 286 l 613 749 l 760 749 m 515 1064 q 565 995 533 1033 q 630 920 596 957 q 689 858 664 883 l 689 842 l 588 842 q 512 896 551 864 q 435 965 472 928 q 359 897 397 928 q 285 842 321 865 l 185 842 l 185 858 q 244 921 211 885 q 307 995 276 957 q 357 1064 338 1033 l 515 1064 z "},"ü":{"ha":875,"x_min":108,"x_max":760,"o":"m 760 749 l 760 0 l 642 0 l 621 99 l 614 99 q 553 35 590 60 q 471 -2 515 10 q 379 -14 426 -14 q 231 15 292 -14 q 140 103 171 43 q 108 258 108 164 l 108 749 l 257 749 l 257 281 q 294 150 257 193 q 408 107 331 107 q 531 138 486 107 q 594 227 575 168 q 613 369 613 286 l 613 749 l 760 749 m 231 947 q 253 1005 231 988 q 304 1022 275 1022 q 357 1005 335 1022 q 379 949 379 988 q 357 891 379 910 q 304 872 335 872 q 253 891 275 872 q 231 947 231 910 m 496 947 q 517 1005 496 988 q 569 1022 539 1022 q 621 1005 599 1022 q 643 949 643 988 q 621 891 643 910 q 569 872 599 872 q 517 891 539 872 q 496 947 496 910 z "},"ý":{"ha":732,"x_min":1,"x_max":732,"o":"m 1 749 l 160 749 l 315 324 q 338 261 328 292 q 355 201 347 231 q 367 142 363 171 l 372 142 q 394 227 379 178 q 426 325 410 276 l 574 749 l 732 749 l 411 -101 q 346 -226 385 -174 q 253 -306 307 -278 q 128 -333 200 -333 q 68 -330 93 -333 q 25 -322 43 -326 l 25 -206 q 62 -211 40 -208 q 107 -214 83 -214 q 181 -197 150 -214 q 234 -150 213 -181 q 271 -81 256 -119 l 301 0 l 1 749 m 599 1050 q 558 1003 583 1031 q 501 945 532 975 q 439 888 469 915 q 383 842 408 861 l 286 842 l 286 858 q 333 921 307 885 q 385 995 360 957 q 426 1064 410 1033 l 599 1064 l 599 1050 z "},"þ":{"ha":861,"x_min":115,"x_max":789,"o":"m 789 375 q 751 161 789 249 q 647 30 714 74 q 489 -14 579 -14 q 389 0 432 -14 q 315 38 346 14 q 263 90 285 63 l 254 90 q 258 58 256 79 q 261 14 260 36 q 263 -24 263 -8 l 263 -333 l 115 -333 l 115 1056 l 263 1056 l 263 758 q 260 701 263 735 q 257 649 258 668 l 264 649 q 315 706 285 681 q 389 747 346 732 q 489 763 432 763 q 706 665 624 763 q 789 375 789 567 m 638 378 q 593 576 638 510 q 456 642 549 642 q 308 582 351 642 q 263 401 265 522 l 263 376 q 304 177 263 247 q 457 107 346 107 q 559 138 519 107 q 618 231 599 169 q 638 378 638 292 z "},"ÿ":{"ha":732,"x_min":1,"x_max":732,"o":"m 1 749 l 160 749 l 315 324 q 338 261 328 292 q 355 201 347 231 q 367 142 363 171 l 372 142 q 394 227 379 178 q 426 325 410 276 l 574 749 l 732 749 l 411 -101 q 346 -226 385 -174 q 253 -306 307 -278 q 128 -333 200 -333 q 68 -330 93 -333 q 25 -322 43 -326 l 25 -206 q 62 -211 40 -208 q 107 -214 83 -214 q 181 -197 150 -214 q 234 -150 213 -181 q 271 -81 256 -119 l 301 0 l 1 749 m 160 947 q 182 1005 160 988 q 233 1022 204 1022 q 286 1005 264 1022 q 308 949 308 988 q 286 891 308 910 q 233 872 264 872 q 182 891 204 872 q 160 947 160 910 m 425 947 q 447 1005 425 988 q 499 1022 468 1022 q 550 1005 528 1022 q 572 949 572 988 q 550 891 572 910 q 499 872 528 872 q 447 891 468 872 q 425 947 425 910 z "},"Ā":{"ha":908,"x_min":0,"x_max":907,"o":"m 750 0 l 644 286 l 261 286 l 156 0 l 0 0 l 376 996 l 532 996 l 907 0 l 750 0 m 503 696 q 488 742 499 711 q 468 806 478 774 q 453 860 458 839 q 437 799 446 832 q 419 740 428 767 q 406 696 411 713 l 306 417 l 603 417 l 503 696 m 665 1196 l 665 1085 l 239 1085 l 239 1196 l 665 1196 z "},"ā":{"ha":797,"x_min":63,"x_max":686,"o":"m 406 763 q 617 701 547 763 q 686 507 686 639 l 686 0 l 582 0 l 553 104 l 547 104 q 481 38 515 64 q 403 -1 447 11 q 297 -14 360 -14 q 177 10 231 -14 q 93 85 124 35 q 63 213 63 136 q 149 386 63 326 q 414 451 236 446 l 542 456 l 542 497 q 504 614 542 581 q 399 647 467 647 q 288 631 340 647 q 188 590 235 614 l 140 697 q 262 744 193 725 q 406 763 331 763 m 440 357 q 263 315 313 351 q 214 211 214 278 q 249 126 214 153 q 339 100 285 100 q 483 149 426 100 q 540 294 540 197 l 540 360 l 440 357 m 611 953 l 611 842 l 185 842 l 185 953 l 611 953 z "},"Ă":{"ha":908,"x_min":0,"x_max":907,"o":"m 750 0 l 644 286 l 261 286 l 156 0 l 0 0 l 376 996 l 532 996 l 907 0 l 750 0 m 503 696 q 488 742 499 711 q 468 806 478 774 q 453 860 458 839 q 437 799 446 832 q 419 740 428 767 q 406 696 411 713 l 306 417 l 603 417 l 503 696 m 683 1283 q 649 1180 679 1225 q 569 1110 619 1135 q 449 1085 518 1085 q 283 1139 340 1085 q 221 1283 226 1193 l 308 1283 q 331 1227 313 1246 q 379 1203 349 1208 q 451 1197 410 1197 q 517 1203 486 1197 q 569 1228 547 1210 q 594 1283 590 1247 l 683 1283 z "},"ă":{"ha":797,"x_min":63,"x_max":686,"o":"m 406 763 q 617 701 547 763 q 686 507 686 639 l 686 0 l 582 0 l 553 104 l 547 104 q 481 38 515 64 q 403 -1 447 11 q 297 -14 360 -14 q 177 10 231 -14 q 93 85 124 35 q 63 213 63 136 q 149 386 63 326 q 414 451 236 446 l 542 456 l 542 497 q 504 614 542 581 q 399 647 467 647 q 288 631 340 647 q 188 590 235 614 l 140 697 q 262 744 193 725 q 406 763 331 763 m 440 357 q 263 315 313 351 q 214 211 214 278 q 249 126 214 153 q 339 100 285 100 q 483 149 426 100 q 540 294 540 197 l 540 360 l 440 357 m 631 1040 q 597 937 626 982 q 516 867 567 892 q 396 842 465 842 q 231 896 288 842 q 168 1040 174 950 l 256 1040 q 278 984 260 1003 q 326 960 296 965 q 399 954 357 954 q 464 960 433 954 q 516 985 494 967 q 542 1040 538 1004 l 631 1040 z "},"Ą":{"ha":908,"x_min":0,"x_max":907,"o":"m 750 0 l 644 286 l 261 286 l 156 0 l 0 0 l 376 996 l 532 996 l 907 0 l 750 0 m 503 696 q 488 742 499 711 q 468 806 478 774 q 453 860 458 839 q 437 799 446 832 q 419 740 428 767 q 406 696 411 713 l 306 417 l 603 417 l 503 696 m 769 -160 q 786 -204 769 -189 q 829 -219 803 -219 q 870 -216 853 -219 q 900 -210 888 -212 l 900 -300 q 858 -310 879 -306 q 808 -314 838 -314 q 695 -276 733 -314 q 657 -176 657 -239 q 677 -99 657 -136 q 728 -30 697 -61 q 792 22 760 1 l 865 0 q 794 -81 818 -44 q 769 -160 769 -118 z "},"ą":{"ha":797,"x_min":63,"x_max":715,"o":"m 406 763 q 617 701 547 763 q 686 507 686 639 l 686 0 l 582 0 l 553 104 l 547 104 q 481 38 515 64 q 403 -1 447 11 q 297 -14 360 -14 q 177 10 231 -14 q 93 85 124 35 q 63 213 63 136 q 149 386 63 326 q 414 451 236 446 l 542 456 l 542 497 q 504 614 542 581 q 399 647 467 647 q 288 631 340 647 q 188 590 235 614 l 140 697 q 262 744 193 725 q 406 763 331 763 m 440 357 q 263 315 313 351 q 214 211 214 278 q 249 126 214 153 q 339 100 285 100 q 483 149 426 100 q 540 294 540 197 l 540 360 l 440 357 m 586 -160 q 603 -204 586 -189 q 646 -219 619 -219 q 687 -216 669 -219 q 717 -210 704 -212 l 717 -300 q 675 -310 696 -306 q 625 -314 654 -314 q 512 -276 550 -314 q 474 -176 474 -239 q 494 -99 474 -136 q 545 -30 514 -61 q 608 22 576 1 l 682 0 q 610 -81 635 -44 q 586 -160 586 -118 z "},"Ć":{"ha":879,"x_min":83,"x_max":835,"o":"m 556 876 q 424 851 482 876 q 324 775 365 825 q 262 654 283 725 q 240 494 240 583 q 275 292 240 378 q 379 161 310 207 q 554 115 449 115 q 677 127 618 115 q 797 158 736 139 l 797 29 q 678 -3 739 7 q 536 -14 617 -14 q 284 49 385 -14 q 133 226 183 111 q 83 496 83 342 q 115 702 83 608 q 206 864 146 796 q 353 969 265 932 q 557 1006 442 1006 q 704 990 632 1006 q 835 944 776 974 l 779 819 q 674 859 731 842 q 556 876 618 876 m 758 1293 q 717 1246 743 1274 q 660 1188 692 1218 q 599 1131 629 1158 q 543 1085 568 1104 l 446 1085 l 446 1101 q 493 1164 467 1128 q 544 1238 519 1200 q 586 1307 569 1276 l 758 1307 l 758 1293 z "},"ć":{"ha":681,"x_min":72,"x_max":636,"o":"m 417 -14 q 236 26 314 -14 q 115 152 158 67 q 72 369 72 238 q 119 594 72 508 q 245 722 165 681 q 428 763 325 763 q 545 749 490 763 q 636 719 600 736 l 592 600 q 509 626 553 615 q 426 638 465 638 q 312 608 357 638 q 245 519 267 578 q 224 371 224 460 q 246 228 224 286 q 312 140 268 169 q 421 110 356 110 q 531 124 483 110 q 619 160 578 138 l 619 32 q 532 -3 579 8 q 417 -14 485 -14 m 628 1050 q 587 1003 613 1031 q 530 945 561 975 q 468 888 499 915 q 413 842 438 861 l 315 842 l 315 858 q 363 921 336 885 q 414 995 389 957 q 456 1064 439 1033 l 628 1064 l 628 1050 z "},"Ĉ":{"ha":879,"x_min":83,"x_max":835,"o":"m 556 876 q 424 851 482 876 q 324 775 365 825 q 262 654 283 725 q 240 494 240 583 q 275 292 240 378 q 379 161 310 207 q 554 115 449 115 q 677 127 618 115 q 797 158 736 139 l 797 29 q 678 -3 739 7 q 536 -14 617 -14 q 284 49 385 -14 q 133 226 183 111 q 83 496 83 342 q 115 702 83 608 q 206 864 146 796 q 353 969 265 932 q 557 1006 442 1006 q 704 990 632 1006 q 835 944 776 974 l 779 819 q 674 859 731 842 q 556 876 618 876 m 604 1307 q 653 1238 622 1276 q 719 1163 685 1200 q 778 1101 753 1126 l 778 1085 l 676 1085 q 601 1139 640 1107 q 524 1208 561 1171 q 448 1140 486 1171 q 374 1085 410 1108 l 274 1085 l 274 1101 q 333 1164 300 1128 q 396 1238 365 1200 q 446 1307 426 1276 l 604 1307 z "},"ĉ":{"ha":681,"x_min":72,"x_max":649,"o":"m 417 -14 q 236 26 314 -14 q 115 152 158 67 q 72 369 72 238 q 119 594 72 508 q 245 722 165 681 q 428 763 325 763 q 545 749 490 763 q 636 719 600 736 l 592 600 q 509 626 553 615 q 426 638 465 638 q 312 608 357 638 q 245 519 267 578 q 224 371 224 460 q 246 228 224 286 q 312 140 268 169 q 421 110 356 110 q 531 124 483 110 q 619 160 578 138 l 619 32 q 532 -3 579 8 q 417 -14 485 -14 m 474 1064 q 523 995 492 1033 q 588 920 554 957 q 647 858 622 883 l 647 842 l 546 842 q 470 896 510 864 q 393 965 431 928 q 317 897 356 928 q 243 842 279 865 l 143 842 l 143 858 q 202 921 169 885 q 265 995 235 957 q 315 1064 296 1033 l 474 1064 z "},"Ċ":{"ha":879,"x_min":83,"x_max":835,"o":"m 556 876 q 424 851 482 876 q 324 775 365 825 q 262 654 283 725 q 240 494 240 583 q 275 292 240 378 q 379 161 310 207 q 554 115 449 115 q 677 127 618 115 q 797 158 736 139 l 797 29 q 678 -3 739 7 q 536 -14 617 -14 q 284 49 385 -14 q 133 226 183 111 q 83 496 83 342 q 115 702 83 608 q 206 864 146 796 q 353 969 265 932 q 557 1006 442 1006 q 704 990 632 1006 q 835 944 776 974 l 779 819 q 674 859 731 842 q 556 876 618 876 m 528 1276 q 585 1257 560 1276 q 610 1192 610 1238 q 585 1127 610 1147 q 528 1107 560 1107 q 467 1127 492 1107 q 443 1192 443 1147 q 467 1257 443 1238 q 528 1276 492 1276 z "},"ċ":{"ha":681,"x_min":72,"x_max":636,"o":"m 417 -14 q 236 26 314 -14 q 115 152 158 67 q 72 369 72 238 q 119 594 72 508 q 245 722 165 681 q 428 763 325 763 q 545 749 490 763 q 636 719 600 736 l 592 600 q 509 626 553 615 q 426 638 465 638 q 312 608 357 638 q 245 519 267 578 q 224 371 224 460 q 246 228 224 286 q 312 140 268 169 q 421 110 356 110 q 531 124 483 110 q 619 160 578 138 l 619 32 q 532 -3 579 8 q 417 -14 485 -14 m 397 1033 q 454 1014 429 1033 q 479 949 479 994 q 454 884 479 904 q 397 864 429 864 q 337 884 361 864 q 313 949 313 904 q 337 1014 313 994 q 397 1033 361 1033 z "},"Č":{"ha":879,"x_min":83,"x_max":835,"o":"m 556 876 q 424 851 482 876 q 324 775 365 825 q 262 654 283 725 q 240 494 240 583 q 275 292 240 378 q 379 161 310 207 q 554 115 449 115 q 677 127 618 115 q 797 158 736 139 l 797 29 q 678 -3 739 7 q 536 -14 617 -14 q 284 49 385 -14 q 133 226 183 111 q 83 496 83 342 q 115 702 83 608 q 206 864 146 796 q 353 969 265 932 q 557 1006 442 1006 q 704 990 632 1006 q 835 944 776 974 l 779 819 q 674 859 731 842 q 556 876 618 876 m 446 1085 q 396 1153 426 1117 q 332 1226 365 1190 q 274 1289 299 1263 l 274 1307 l 374 1307 q 449 1251 410 1283 q 524 1182 489 1219 q 601 1251 561 1219 q 676 1307 640 1283 l 778 1307 l 778 1289 q 719 1226 753 1263 q 653 1153 685 1190 q 604 1085 622 1117 l 446 1085 z "},"č":{"ha":681,"x_min":72,"x_max":649,"o":"m 417 -14 q 236 26 314 -14 q 115 152 158 67 q 72 369 72 238 q 119 594 72 508 q 245 722 165 681 q 428 763 325 763 q 545 749 490 763 q 636 719 600 736 l 592 600 q 509 626 553 615 q 426 638 465 638 q 312 608 357 638 q 245 519 267 578 q 224 371 224 460 q 246 228 224 286 q 312 140 268 169 q 421 110 356 110 q 531 124 483 110 q 619 160 578 138 l 619 32 q 532 -3 579 8 q 417 -14 485 -14 m 315 842 q 265 910 296 874 q 201 983 235 947 q 143 1046 168 1019 l 143 1064 l 243 1064 q 319 1008 279 1040 q 393 939 358 976 q 470 1008 431 976 q 546 1064 510 1040 l 647 1064 l 647 1046 q 588 983 622 1019 q 523 910 554 947 q 474 842 492 874 l 315 842 z "},"Ď":{"ha":1018,"x_min":132,"x_max":935,"o":"m 935 506 q 872 226 935 339 q 692 57 810 114 q 410 0 575 0 l 132 0 l 132 992 l 439 992 q 701 936 590 992 q 874 773 813 881 q 935 506 935 665 m 778 501 q 738 707 778 626 q 619 826 697 788 q 429 865 540 865 l 282 865 l 282 126 l 403 126 q 684 221 590 126 q 778 501 778 315 m 425 1085 q 375 1153 406 1117 q 311 1226 344 1190 q 253 1289 278 1263 l 253 1307 l 353 1307 q 428 1251 389 1283 q 503 1182 468 1219 q 580 1251 540 1219 q 656 1307 619 1283 l 757 1307 l 757 1289 q 698 1226 732 1263 q 633 1153 664 1190 q 583 1085 601 1117 l 425 1085 z "},"ď":{"ha":861,"x_min":72,"x_max":983,"o":"m 983 1043 q 960 980 976 1017 q 922 904 943 943 q 881 833 901 865 l 797 833 l 797 850 q 811 897 804 871 q 824 951 818 922 q 834 1006 829 979 q 842 1056 839 1033 l 983 1056 l 983 1043 m 372 -14 q 155 83 238 -14 q 72 372 72 181 q 156 664 72 565 q 375 763 239 763 q 474 748 432 763 q 548 708 517 733 q 601 653 579 683 l 610 653 q 603 709 607 672 q 599 775 599 746 l 599 1056 l 746 1056 l 746 0 l 631 0 l 606 100 l 599 100 q 547 42 578 68 q 472 1 515 17 q 372 -14 429 -14 m 407 107 q 560 167 515 107 q 604 349 604 228 l 604 371 q 562 572 604 503 q 406 642 519 642 q 269 569 315 642 q 224 369 224 496 q 269 175 224 243 q 407 107 315 107 z "},"Đ":{"ha":1018,"x_min":39,"x_max":935,"o":"m 439 992 q 701 936 590 992 q 874 773 813 881 q 935 506 935 665 q 872 226 935 339 q 692 57 810 114 q 408 0 575 0 l 139 0 l 139 426 l 39 426 l 39 554 l 139 554 l 139 992 l 439 992 m 429 865 l 289 865 l 289 554 l 511 554 l 511 426 l 289 426 l 289 126 l 403 126 q 685 221 592 126 q 778 501 778 315 q 736 707 778 626 q 617 826 694 788 q 429 865 540 865 z "},"đ":{"ha":869,"x_min":72,"x_max":851,"o":"m 372 -14 q 155 82 238 -14 q 72 365 72 178 q 156 652 72 557 q 374 747 239 747 q 474 733 431 747 q 548 693 517 718 q 601 638 579 668 l 610 638 q 602 697 606 658 q 599 761 599 736 l 599 832 l 328 832 l 328 936 l 599 936 l 599 1056 l 746 1056 l 746 936 l 851 936 l 851 832 l 746 832 l 746 0 l 629 0 l 604 100 l 599 100 q 545 42 576 68 q 472 1 514 17 q 372 -14 429 -14 m 408 107 q 560 165 515 107 q 604 342 604 224 l 604 364 q 562 560 604 493 q 406 626 519 626 q 269 557 315 626 q 224 363 224 488 q 269 173 224 239 q 408 107 315 107 z "},"Ē":{"ha":774,"x_min":132,"x_max":690,"o":"m 690 0 l 132 0 l 132 992 l 690 992 l 690 864 l 282 864 l 282 581 l 665 581 l 665 454 l 282 454 l 282 129 l 690 129 l 690 0 m 635 1196 l 635 1085 l 208 1085 l 208 1196 l 635 1196 z "},"ē":{"ha":794,"x_min":72,"x_max":726,"o":"m 410 763 q 579 722 508 763 q 688 604 650 681 q 726 424 726 528 l 726 343 l 224 343 q 284 167 226 228 q 446 106 342 106 q 574 119 518 106 q 690 158 631 132 l 690 36 q 577 -1 635 11 q 440 -14 519 -14 q 249 29 332 -14 q 119 158 165 72 q 72 368 72 243 q 115 582 72 494 q 233 716 157 669 q 410 763 308 763 m 410 649 q 283 597 331 649 q 226 451 235 546 l 579 451 q 561 554 579 510 q 506 624 543 599 q 410 649 468 649 m 613 953 l 613 842 l 186 842 l 186 953 l 613 953 z "},"Ĕ":{"ha":774,"x_min":132,"x_max":690,"o":"m 690 0 l 132 0 l 132 992 l 690 992 l 690 864 l 282 864 l 282 581 l 665 581 l 665 454 l 282 454 l 282 129 l 690 129 l 690 0 m 653 1283 q 619 1180 649 1225 q 538 1110 589 1135 q 418 1085 488 1085 q 253 1139 310 1085 q 190 1283 196 1193 l 278 1283 q 300 1227 282 1246 q 349 1203 318 1208 q 421 1197 379 1197 q 486 1203 456 1197 q 538 1228 517 1210 q 564 1283 560 1247 l 653 1283 z "},"ĕ":{"ha":794,"x_min":72,"x_max":726,"o":"m 410 763 q 579 722 508 763 q 688 604 650 681 q 726 424 726 528 l 726 343 l 224 343 q 284 167 226 228 q 446 106 342 106 q 574 119 518 106 q 690 158 631 132 l 690 36 q 577 -1 635 11 q 440 -14 519 -14 q 249 29 332 -14 q 119 158 165 72 q 72 368 72 243 q 115 582 72 494 q 233 716 157 669 q 410 763 308 763 m 410 649 q 283 597 331 649 q 226 451 235 546 l 579 451 q 561 554 579 510 q 506 624 543 599 q 410 649 468 649 m 632 1040 q 598 937 628 982 q 517 867 568 892 q 397 842 467 842 q 232 896 289 842 q 169 1040 175 950 l 257 1040 q 279 984 261 1003 q 328 960 297 965 q 400 954 358 954 q 465 960 435 954 q 517 985 496 967 q 543 1040 539 1004 l 632 1040 z "},"Ė":{"ha":774,"x_min":132,"x_max":690,"o":"m 690 0 l 132 0 l 132 992 l 690 992 l 690 864 l 282 864 l 282 581 l 665 581 l 665 454 l 282 454 l 282 129 l 690 129 l 690 0 m 424 1276 q 481 1257 456 1276 q 506 1192 506 1238 q 481 1127 506 1147 q 424 1107 456 1107 q 363 1127 388 1107 q 339 1192 339 1147 q 363 1257 339 1238 q 424 1276 388 1276 z "},"ė":{"ha":794,"x_min":72,"x_max":726,"o":"m 410 763 q 579 722 508 763 q 688 604 650 681 q 726 424 726 528 l 726 343 l 224 343 q 284 167 226 228 q 446 106 342 106 q 574 119 518 106 q 690 158 631 132 l 690 36 q 577 -1 635 11 q 440 -14 519 -14 q 249 29 332 -14 q 119 158 165 72 q 72 368 72 243 q 115 582 72 494 q 233 716 157 669 q 410 763 308 763 m 410 649 q 283 597 331 649 q 226 451 235 546 l 579 451 q 561 554 579 510 q 506 624 543 599 q 410 649 468 649 m 401 1033 q 458 1014 433 1033 q 483 949 483 994 q 458 884 483 904 q 401 864 433 864 q 341 884 365 864 q 317 949 317 904 q 341 1014 317 994 q 401 1033 365 1033 z "},"Ę":{"ha":774,"x_min":132,"x_max":690,"o":"m 690 0 l 132 0 l 132 992 l 690 992 l 690 864 l 282 864 l 282 581 l 665 581 l 665 454 l 282 454 l 282 129 l 690 129 l 690 0 m 556 -160 q 572 -204 556 -189 q 615 -219 589 -219 q 656 -216 639 -219 q 686 -210 674 -212 l 686 -300 q 644 -310 665 -306 q 594 -314 624 -314 q 481 -276 519 -314 q 443 -176 443 -239 q 463 -99 443 -136 q 515 -30 483 -61 q 578 22 546 1 l 651 0 q 580 -81 604 -44 q 556 -160 556 -118 z "},"ę":{"ha":794,"x_min":72,"x_max":726,"o":"m 550 -160 q 566 -204 550 -189 q 610 -219 582 -219 q 651 -216 633 -219 q 681 -210 668 -212 l 681 -300 q 639 -310 660 -306 q 589 -314 618 -314 q 476 -276 514 -314 q 438 -176 438 -239 q 458 -99 438 -136 q 509 -30 478 -61 q 572 22 540 1 l 690 36 q 604 -43 635 -10 q 562 -104 574 -76 q 550 -160 550 -132 m 410 763 q 579 722 508 763 q 688 604 650 681 q 726 424 726 528 l 726 343 l 224 343 q 284 167 226 228 q 446 106 342 106 q 574 119 518 106 q 690 158 631 132 l 690 36 q 577 -1 635 11 q 440 -14 519 -14 q 249 29 332 -14 q 119 158 165 72 q 72 368 72 243 q 115 582 72 494 q 233 716 157 669 q 410 763 308 763 m 410 649 q 283 597 331 649 q 226 451 235 546 l 579 451 q 561 554 579 510 q 506 624 543 599 q 410 649 468 649 z "},"Ě":{"ha":774,"x_min":132,"x_max":690,"o":"m 690 0 l 132 0 l 132 992 l 690 992 l 690 864 l 282 864 l 282 581 l 665 581 l 665 454 l 282 454 l 282 129 l 690 129 l 690 0 m 342 1085 q 292 1153 322 1117 q 228 1226 261 1190 q 169 1289 194 1263 l 169 1307 l 269 1307 q 345 1251 306 1283 q 419 1182 385 1219 q 497 1251 457 1219 q 572 1307 536 1283 l 674 1307 l 674 1289 q 615 1226 649 1263 q 549 1153 581 1190 q 500 1085 518 1117 l 342 1085 z "},"ě":{"ha":794,"x_min":72,"x_max":726,"o":"m 410 763 q 579 722 508 763 q 688 604 650 681 q 726 424 726 528 l 726 343 l 224 343 q 284 167 226 228 q 446 106 342 106 q 574 119 518 106 q 690 158 631 132 l 690 36 q 577 -1 635 11 q 440 -14 519 -14 q 249 29 332 -14 q 119 158 165 72 q 72 368 72 243 q 115 582 72 494 q 233 716 157 669 q 410 763 308 763 m 410 649 q 283 597 331 649 q 226 451 235 546 l 579 451 q 561 554 579 510 q 506 624 543 599 q 410 649 468 649 m 321 842 q 271 910 301 874 q 207 983 240 947 q 149 1046 174 1019 l 149 1064 l 249 1064 q 324 1008 285 1040 q 399 939 364 976 q 476 1008 436 976 q 551 1064 515 1040 l 653 1064 l 653 1046 q 594 983 628 1019 q 528 910 560 947 q 479 842 497 874 l 321 842 z "},"Ĝ":{"ha":1010,"x_min":83,"x_max":904,"o":"m 546 533 l 904 533 l 904 39 q 742 -1 825 13 q 554 -14 660 -14 q 298 47 403 -14 q 138 222 193 108 q 83 496 83 336 q 144 765 83 651 q 320 942 206 879 q 599 1006 435 1006 q 756 990 681 1006 q 894 946 831 974 l 840 821 q 726 860 789 844 q 593 876 663 876 q 403 830 483 876 q 281 698 324 783 q 239 494 239 613 q 274 297 239 383 q 383 163 308 211 q 579 114 458 114 q 679 120 638 114 q 756 135 721 126 l 756 404 l 546 404 l 546 533 m 639 1307 q 688 1238 657 1276 q 753 1163 719 1200 q 813 1101 788 1126 l 813 1085 l 711 1085 q 635 1139 675 1107 q 558 1208 596 1171 q 483 1140 521 1171 q 408 1085 444 1108 l 308 1085 l 308 1101 q 367 1164 335 1128 q 431 1238 400 1200 q 481 1307 461 1276 l 639 1307 z "},"ĝ":{"ha":861,"x_min":72,"x_max":746,"o":"m 374 763 q 504 735 446 763 q 603 650 563 707 l 610 650 l 626 749 l 746 749 l 746 -10 q 708 -187 746 -115 q 594 -297 671 -260 q 400 -333 517 -333 q 251 -322 319 -333 q 126 -287 183 -311 l 126 -158 q 256 -202 185 -187 q 408 -217 328 -217 q 550 -165 500 -217 q 600 -18 600 -112 l 600 7 q 601 55 600 25 q 604 99 603 85 l 599 99 q 503 13 560 40 q 374 -14 447 -14 q 152 88 232 -14 q 72 372 72 190 q 153 658 72 553 q 374 763 233 763 m 404 640 q 306 609 346 640 q 244 518 265 578 q 224 371 224 458 q 270 172 224 240 q 407 104 317 104 q 497 118 460 104 q 558 161 533 132 q 594 235 582 190 q 606 344 606 281 l 606 372 q 584 527 606 468 q 518 613 563 586 q 404 640 474 640 m 497 1064 q 547 995 515 1033 q 612 920 578 957 q 671 858 646 883 l 671 842 l 569 842 q 494 896 533 864 q 417 965 454 928 q 341 897 379 928 q 267 842 303 865 l 167 842 l 167 858 q 226 921 193 885 q 289 995 258 957 q 339 1064 319 1033 l 497 1064 z "},"Ğ":{"ha":1010,"x_min":83,"x_max":904,"o":"m 546 533 l 904 533 l 904 39 q 742 -1 825 13 q 554 -14 660 -14 q 298 47 403 -14 q 138 222 193 108 q 83 496 83 336 q 144 765 83 651 q 320 942 206 879 q 599 1006 435 1006 q 756 990 681 1006 q 894 946 831 974 l 840 821 q 726 860 789 844 q 593 876 663 876 q 403 830 483 876 q 281 698 324 783 q 239 494 239 613 q 274 297 239 383 q 383 163 308 211 q 579 114 458 114 q 679 120 638 114 q 756 135 721 126 l 756 404 l 546 404 l 546 533 m 792 1283 q 758 1180 788 1225 q 677 1110 728 1135 q 557 1085 626 1085 q 392 1139 449 1085 q 329 1283 335 1193 l 417 1283 q 439 1227 421 1246 q 488 1203 457 1208 q 560 1197 518 1197 q 625 1203 594 1197 q 677 1228 656 1210 q 703 1283 699 1247 l 792 1283 z "},"ğ":{"ha":861,"x_min":72,"x_max":746,"o":"m 374 763 q 504 735 446 763 q 603 650 563 707 l 610 650 l 626 749 l 746 749 l 746 -10 q 708 -187 746 -115 q 594 -297 671 -260 q 400 -333 517 -333 q 251 -322 319 -333 q 126 -287 183 -311 l 126 -158 q 256 -202 185 -187 q 408 -217 328 -217 q 550 -165 500 -217 q 600 -18 600 -112 l 600 7 q 601 55 600 25 q 604 99 603 85 l 599 99 q 503 13 560 40 q 374 -14 447 -14 q 152 88 232 -14 q 72 372 72 190 q 153 658 72 553 q 374 763 233 763 m 404 640 q 306 609 346 640 q 244 518 265 578 q 224 371 224 458 q 270 172 224 240 q 407 104 317 104 q 497 118 460 104 q 558 161 533 132 q 594 235 582 190 q 606 344 606 281 l 606 372 q 584 527 606 468 q 518 613 563 586 q 404 640 474 640 m 650 1040 q 616 937 646 982 q 535 867 586 892 q 415 842 485 842 q 250 896 307 842 q 188 1040 193 950 l 275 1040 q 297 984 279 1003 q 346 960 315 965 q 418 954 376 954 q 483 960 453 954 q 535 985 514 967 q 561 1040 557 1004 l 650 1040 z "},"Ġ":{"ha":1010,"x_min":83,"x_max":904,"o":"m 546 533 l 904 533 l 904 39 q 742 -1 825 13 q 554 -14 660 -14 q 298 47 403 -14 q 138 222 193 108 q 83 496 83 336 q 144 765 83 651 q 320 942 206 879 q 599 1006 435 1006 q 756 990 681 1006 q 894 946 831 974 l 840 821 q 726 860 789 844 q 593 876 663 876 q 403 830 483 876 q 281 698 324 783 q 239 494 239 613 q 274 297 239 383 q 383 163 308 211 q 579 114 458 114 q 679 120 638 114 q 756 135 721 126 l 756 404 l 546 404 l 546 533 m 563 1276 q 619 1257 594 1276 q 644 1192 644 1238 q 619 1127 644 1147 q 563 1107 594 1107 q 502 1127 526 1107 q 478 1192 478 1147 q 502 1257 478 1238 q 563 1276 526 1276 z "},"ġ":{"ha":861,"x_min":72,"x_max":746,"o":"m 374 763 q 504 735 446 763 q 603 650 563 707 l 610 650 l 626 749 l 746 749 l 746 -10 q 708 -187 746 -115 q 594 -297 671 -260 q 400 -333 517 -333 q 251 -322 319 -333 q 126 -287 183 -311 l 126 -158 q 256 -202 185 -187 q 408 -217 328 -217 q 550 -165 500 -217 q 600 -18 600 -112 l 600 7 q 601 55 600 25 q 604 99 603 85 l 599 99 q 503 13 560 40 q 374 -14 447 -14 q 152 88 232 -14 q 72 372 72 190 q 153 658 72 553 q 374 763 233 763 m 404 640 q 306 609 346 640 q 244 518 265 578 q 224 371 224 458 q 270 172 224 240 q 407 104 317 104 q 497 118 460 104 q 558 161 533 132 q 594 235 582 190 q 606 344 606 281 l 606 372 q 584 527 606 468 q 518 613 563 586 q 404 640 474 640 m 421 1033 q 478 1014 453 1033 q 503 949 503 994 q 478 884 503 904 q 421 864 453 864 q 360 884 385 864 q 336 949 336 904 q 360 1014 336 994 q 421 1033 385 1033 z "},"Ģ":{"ha":1010,"x_min":83,"x_max":904,"o":"m 546 533 l 904 533 l 904 39 q 742 -1 825 13 q 554 -14 660 -14 q 298 47 403 -14 q 138 222 193 108 q 83 496 83 336 q 144 765 83 651 q 320 942 206 879 q 599 1006 435 1006 q 756 990 681 1006 q 894 946 831 974 l 840 821 q 726 860 789 844 q 593 876 663 876 q 403 830 483 876 q 281 698 324 783 q 239 494 239 613 q 274 297 239 383 q 383 163 308 211 q 579 114 458 114 q 679 120 638 114 q 756 135 721 126 l 756 404 l 546 404 l 546 533 m 650 -97 q 624 -161 642 -124 q 585 -237 607 -199 q 539 -307 563 -275 l 456 -307 l 456 -290 q 477 -228 467 -265 q 497 -153 488 -192 q 508 -85 506 -114 l 650 -85 l 650 -97 z "},"ģ":{"ha":861,"x_min":72,"x_max":746,"o":"m 517 1047 q 495 985 506 1022 q 476 910 485 949 q 463 842 467 872 l 321 842 l 321 854 q 347 917 331 881 q 386 993 364 954 q 432 1064 408 1032 l 517 1064 l 517 1047 m 374 763 q 504 735 446 763 q 603 650 563 707 l 610 650 l 626 749 l 746 749 l 746 -10 q 708 -187 746 -115 q 594 -297 671 -260 q 400 -333 517 -333 q 251 -322 319 -333 q 126 -287 183 -311 l 126 -158 q 256 -202 185 -187 q 408 -217 328 -217 q 550 -165 500 -217 q 600 -18 600 -112 l 600 7 q 601 55 600 25 q 604 99 603 85 l 599 99 q 503 13 560 40 q 374 -14 447 -14 q 152 88 232 -14 q 72 372 72 190 q 153 658 72 553 q 374 763 233 763 m 404 640 q 306 609 346 640 q 244 518 265 578 q 224 371 224 458 q 270 172 224 240 q 407 104 317 104 q 497 118 460 104 q 558 161 533 132 q 594 235 582 190 q 606 344 606 281 l 606 372 q 584 527 606 468 q 518 613 563 586 q 404 640 474 640 z "},"Ĥ":{"ha":1039,"x_min":132,"x_max":906,"o":"m 906 0 l 756 0 l 756 453 l 282 453 l 282 0 l 132 0 l 132 992 l 282 992 l 282 581 l 756 581 l 756 992 l 906 992 l 906 0 m 599 1307 q 648 1238 617 1276 q 713 1163 679 1200 q 772 1101 747 1126 l 772 1085 l 671 1085 q 595 1139 635 1107 q 518 1208 556 1171 q 442 1140 481 1171 q 368 1085 404 1108 l 268 1085 l 268 1101 q 327 1164 294 1128 q 390 1238 360 1200 q 440 1307 421 1276 l 599 1307 z "},"ĥ":{"ha":875,"x_min":-61,"x_max":764,"o":"m 263 774 q 260 704 263 739 q 254 647 257 669 l 264 647 q 323 711 288 686 q 402 749 358 736 q 492 761 446 761 q 641 733 581 761 q 733 644 701 704 q 764 488 764 583 l 764 0 l 618 0 l 618 467 q 581 598 618 554 q 464 642 544 642 q 344 611 388 642 q 281 522 300 581 q 263 376 263 463 l 263 0 l 115 0 l 115 1056 l 263 1056 l 263 774 m 269 1371 q 319 1302 288 1340 q 384 1227 350 1264 q 443 1165 418 1190 l 443 1149 l 342 1149 q 266 1203 306 1171 q 189 1272 226 1235 q 113 1203 151 1235 q 39 1149 75 1172 l -61 1149 l -61 1165 q -2 1228 -35 1192 q 61 1302 31 1264 q 111 1371 92 1340 l 269 1371 z "},"Ħ":{"ha":1039,"x_min":0,"x_max":1038,"o":"m 132 0 l 132 726 l 0 726 l 0 836 l 132 836 l 132 992 l 282 992 l 282 836 l 756 836 l 756 992 l 906 992 l 906 836 l 1038 836 l 1038 726 l 906 726 l 906 0 l 756 0 l 756 453 l 282 453 l 282 0 l 132 0 m 282 581 l 756 581 l 756 726 l 282 726 l 282 581 z "},"ħ":{"ha":875,"x_min":10,"x_max":764,"o":"m 263 1056 l 263 935 l 533 935 l 533 831 l 263 831 l 263 742 q 260 673 263 707 q 254 617 257 639 l 264 617 q 324 681 289 656 q 402 718 358 706 q 493 731 446 731 q 642 702 582 731 q 733 613 701 674 q 764 456 764 551 l 764 0 l 618 0 l 618 435 q 581 566 618 522 q 464 610 544 610 q 344 579 388 610 q 281 490 300 549 q 263 346 263 432 l 263 0 l 115 0 l 115 831 l 10 831 l 10 935 l 115 935 l 115 1056 l 263 1056 z "},"Ĩ":{"ha":492,"x_min":-15,"x_max":510,"o":"m 438 0 l 53 0 l 53 86 l 171 121 l 171 869 l 53 906 l 53 992 l 438 992 l 438 906 l 321 869 l 321 121 l 438 86 l 438 0 m -15 1085 q 2 1164 -11 1129 q 36 1222 15 1199 q 85 1258 57 1246 q 147 1271 113 1271 q 205 1260 176 1271 q 259 1233 233 1249 q 310 1206 285 1218 q 357 1194 335 1194 q 404 1214 386 1194 q 431 1272 422 1233 l 510 1272 q 458 1135 501 1185 q 349 1086 415 1086 q 292 1097 319 1086 q 238 1124 265 1108 q 187 1151 211 1140 q 139 1163 163 1163 q 91 1143 108 1163 q 64 1085 74 1124 l -15 1085 z "},"ĩ":{"ha":378,"x_min":-74,"x_max":453,"o":"m 263 0 l 115 0 l 115 749 l 263 749 l 263 0 m -74 842 q -56 921 -69 886 q -22 979 -43 956 q 26 1015 -1 1003 q 89 1028 54 1028 q 147 1017 118 1028 q 201 990 175 1006 q 251 963 226 975 q 299 951 276 951 q 346 971 328 951 q 372 1029 364 990 l 451 1029 q 400 892 443 942 q 290 843 357 843 q 234 854 261 843 q 180 881 207 865 q 128 908 153 897 q 81 919 104 919 q 33 900 50 919 q 6 842 15 881 l -74 842 z "},"Ī":{"ha":492,"x_min":32,"x_max":458,"o":"m 438 0 l 53 0 l 53 86 l 171 121 l 171 869 l 53 906 l 53 992 l 438 992 l 438 906 l 321 869 l 321 121 l 438 86 l 438 0 m 458 1196 l 458 1085 l 32 1085 l 32 1196 l 458 1196 z "},"ī":{"ha":378,"x_min":-25,"x_max":401,"o":"m 263 0 l 115 0 l 115 749 l 263 749 l 263 0 m 401 953 l 401 842 l -25 842 l -25 953 l 401 953 z "},"Ĭ":{"ha":492,"x_min":15,"x_max":476,"o":"m 438 0 l 53 0 l 53 86 l 171 121 l 171 869 l 53 906 l 53 992 l 438 992 l 438 906 l 321 869 l 321 121 l 438 86 l 438 0 m 478 1283 q 444 1180 474 1225 q 363 1110 414 1135 q 243 1085 313 1085 q 78 1139 135 1085 q 15 1283 21 1193 l 103 1283 q 125 1227 107 1246 q 174 1203 143 1208 q 246 1197 204 1197 q 311 1203 281 1197 q 363 1228 342 1210 q 389 1283 385 1247 l 478 1283 z "},"ĭ":{"ha":378,"x_min":-43,"x_max":419,"o":"m 263 0 l 115 0 l 115 749 l 263 749 l 263 0 m 419 1040 q 385 937 415 982 q 305 867 356 892 q 185 842 254 842 q 19 896 76 842 q -43 1040 -37 950 l 44 1040 q 67 984 49 1003 q 115 960 85 965 q 188 954 146 954 q 253 960 222 954 q 305 985 283 967 q 331 1040 326 1004 l 419 1040 z "},"Į":{"ha":492,"x_min":53,"x_max":438,"o":"m 438 0 l 53 0 l 53 86 l 171 121 l 171 869 l 53 906 l 53 992 l 438 992 l 438 906 l 321 869 l 321 121 l 438 86 l 438 0 m 304 -160 q 321 -204 304 -189 q 364 -219 338 -219 q 405 -216 388 -219 q 435 -210 422 -212 l 435 -300 q 393 -310 414 -306 q 343 -314 372 -314 q 230 -276 268 -314 q 192 -176 192 -239 q 212 -99 192 -136 q 263 -30 232 -61 q 326 22 294 1 l 400 0 q 328 -81 353 -44 q 304 -160 304 -118 z "},"į":{"ha":378,"x_min":44,"x_max":288,"o":"m 263 749 l 263 0 l 115 0 l 115 749 l 263 749 m 190 1033 q 249 1014 224 1033 q 274 949 274 994 q 249 884 274 904 q 190 864 224 864 q 130 884 154 864 q 106 949 106 904 q 130 1014 106 994 q 190 1033 154 1033 m 157 -160 q 174 -204 157 -189 q 217 -219 190 -219 q 258 -216 240 -219 q 288 -210 275 -212 l 288 -300 q 246 -310 267 -306 q 196 -314 225 -314 q 83 -276 121 -314 q 44 -176 44 -239 q 65 -99 44 -136 q 116 -30 85 -61 q 179 22 147 1 l 253 0 q 181 -81 206 -44 q 157 -160 157 -118 z "},"İ":{"ha":492,"x_min":53,"x_max":438,"o":"m 438 0 l 53 0 l 53 86 l 171 121 l 171 869 l 53 906 l 53 992 l 438 992 l 438 906 l 321 869 l 321 121 l 438 86 l 438 0 m 249 1276 q 306 1257 281 1276 q 331 1192 331 1238 q 306 1127 331 1147 q 249 1107 281 1107 q 188 1127 213 1107 q 164 1192 164 1147 q 188 1257 164 1238 q 249 1276 213 1276 z "},"Ĳ":{"ha":894,"x_min":53,"x_max":768,"o":"m 438 0 l 53 0 l 53 86 l 171 121 l 171 869 l 53 906 l 53 992 l 438 992 l 438 906 l 321 869 l 321 121 l 438 86 l 438 0 m 493 -272 q 432 -267 458 -272 q 385 -254 406 -262 l 385 -129 q 432 -139 407 -135 q 485 -143 457 -143 q 551 -129 519 -143 q 600 -79 582 -115 q 618 22 618 -43 l 618 992 l 768 992 l 768 29 q 734 -142 768 -75 q 638 -241 700 -210 q 493 -272 576 -272 z "},"ĳ":{"ha":756,"x_min":106,"x_max":651,"o":"m 263 749 l 263 0 l 115 0 l 115 749 l 263 749 m 190 1033 q 249 1014 224 1033 q 274 949 274 994 q 249 884 274 904 q 190 864 224 864 q 130 884 154 864 q 106 949 106 904 q 130 1014 106 994 q 190 1033 154 1033 m 414 -333 q 349 -328 379 -333 q 297 -317 319 -324 l 297 -199 q 342 -208 319 -204 q 392 -212 364 -212 q 464 -188 435 -212 q 493 -96 493 -164 l 493 749 l 640 749 l 640 -103 q 617 -224 640 -172 q 544 -305 593 -276 q 414 -333 494 -333 m 483 949 q 508 1014 483 994 q 568 1033 532 1033 q 626 1014 601 1033 q 651 949 651 994 q 626 884 651 904 q 568 864 601 864 q 508 884 532 864 q 483 949 483 904 z "},"Ĵ":{"ha":403,"x_min":-107,"x_max":454,"o":"m 1 -272 q -60 -267 -33 -272 q -107 -254 -86 -262 l -107 -129 q -60 -139 -85 -135 q -7 -143 -35 -143 q 59 -129 28 -143 q 108 -79 90 -115 q 126 22 126 -43 l 126 992 l 276 992 l 276 29 q 242 -142 276 -75 q 147 -241 208 -210 q 1 -272 85 -272 m 281 1307 q 330 1238 299 1276 q 395 1163 361 1200 q 454 1101 429 1126 l 454 1085 l 353 1085 q 277 1139 317 1107 q 200 1208 238 1171 q 124 1140 163 1171 q 50 1085 86 1108 l -50 1085 l -50 1101 q 9 1164 -24 1128 q 72 1238 42 1200 q 122 1307 103 1276 l 281 1307 z "},"ĵ":{"ha":378,"x_min":-81,"x_max":442,"o":"m 36 -333 q -28 -328 1 -333 q -81 -317 -58 -324 l -81 -199 q -36 -208 -58 -204 q 14 -212 -14 -212 q 86 -188 57 -212 q 115 -96 115 -164 l 115 749 l 263 749 l 263 -103 q 239 -224 263 -172 q 166 -305 215 -276 q 36 -333 117 -333 m 267 1064 q 316 995 285 1033 q 381 920 347 957 q 440 858 415 883 l 440 842 l 339 842 q 263 896 303 864 q 186 965 224 928 q 110 897 149 928 q 36 842 72 865 l -64 842 l -64 858 q -5 921 -37 885 q 58 995 28 957 q 108 1064 89 1033 l 267 1064 z "},"Ķ":{"ha":878,"x_min":132,"x_max":878,"o":"m 878 0 l 704 0 l 379 457 l 282 376 l 282 0 l 132 0 l 132 992 l 282 992 l 282 513 q 354 597 318 556 q 426 681 390 639 l 694 992 l 867 992 l 488 558 l 878 0 m 563 -97 q 537 -161 554 -124 q 497 -237 519 -199 q 451 -307 475 -275 l 368 -307 l 368 -290 q 390 -228 379 -265 q 409 -153 400 -192 q 421 -85 418 -114 l 563 -85 l 563 -97 z "},"ķ":{"ha":776,"x_min":115,"x_max":768,"o":"m 261 528 q 259 461 261 499 q 254 392 257 424 l 258 392 q 285 426 269 406 q 318 467 301 446 q 349 503 335 488 l 578 749 l 749 749 l 447 428 l 768 0 l 594 0 l 347 335 l 261 263 l 261 0 l 115 0 l 115 1056 l 261 1056 l 261 528 m 486 -97 q 460 -161 478 -124 q 421 -237 443 -199 q 375 -307 399 -275 l 292 -307 l 292 -290 q 313 -228 303 -265 q 333 -153 324 -192 q 344 -85 342 -114 l 486 -85 l 486 -97 z "},"ĸ":{"ha":776,"x_min":115,"x_max":768,"o":"m 747 749 l 460 414 l 768 0 l 596 0 l 361 322 l 267 251 l 267 0 l 115 0 l 115 749 l 267 749 l 267 554 q 265 453 267 503 q 260 372 263 403 l 263 372 q 297 415 279 393 q 329 456 314 436 l 578 749 l 747 749 z "},"Ĺ":{"ha":744,"x_min":124,"x_max":706,"o":"m 132 0 l 132 992 l 282 992 l 282 129 l 706 129 l 706 0 l 132 0 m 436 1293 q 395 1246 421 1274 q 338 1188 369 1218 q 276 1131 307 1158 q 221 1085 246 1104 l 124 1085 l 124 1101 q 171 1164 144 1128 q 222 1238 197 1200 q 264 1307 247 1276 l 436 1307 l 436 1293 z "},"ĺ":{"ha":378,"x_min":108,"x_max":421,"o":"m 263 0 l 115 0 l 115 1056 l 263 1056 l 263 0 m 421 1357 q 380 1310 406 1338 q 323 1252 354 1282 q 261 1195 292 1222 q 206 1149 231 1168 l 108 1149 l 108 1165 q 156 1228 129 1192 q 207 1302 182 1264 q 249 1371 232 1340 l 421 1371 l 421 1357 z "},"Ļ":{"ha":744,"x_min":132,"x_max":706,"o":"m 132 0 l 132 992 l 282 992 l 282 129 l 706 129 l 706 0 l 132 0 m 517 -97 q 491 -161 508 -124 q 451 -237 474 -199 q 406 -307 429 -275 l 322 -307 l 322 -290 q 344 -228 333 -265 q 363 -153 354 -192 q 375 -85 372 -114 l 517 -85 l 517 -97 z "},"ļ":{"ha":378,"x_min":92,"x_max":286,"o":"m 263 0 l 115 0 l 115 1056 l 263 1056 l 263 0 m 286 -97 q 260 -161 278 -124 q 221 -237 243 -199 q 175 -307 199 -275 l 92 -307 l 92 -290 q 113 -228 103 -265 q 133 -153 124 -192 q 144 -85 142 -114 l 286 -85 l 286 -97 z "},"Ľ":{"ha":744,"x_min":132,"x_max":718,"o":"m 718 979 q 693 916 710 953 q 656 840 676 879 q 614 769 636 801 l 532 769 l 532 786 q 544 833 538 807 q 558 887 551 858 q 569 942 564 915 q 576 992 574 969 l 718 992 l 718 979 m 132 0 l 132 992 l 282 992 l 282 129 l 706 129 l 706 0 l 132 0 z "},"ľ":{"ha":378,"x_min":115,"x_max":503,"o":"m 503 1043 q 478 980 494 1017 q 442 904 463 943 q 399 833 421 865 l 317 833 l 317 850 q 330 897 324 871 q 342 951 336 922 q 353 1006 349 979 q 361 1056 358 1033 l 503 1056 l 503 1043 m 263 0 l 115 0 l 115 1056 l 263 1056 l 263 0 z "},"Ŀ":{"ha":744,"x_min":132,"x_max":706,"o":"m 132 0 l 132 992 l 282 992 l 282 129 l 706 129 l 706 0 l 132 0 m 556 596 q 613 576 588 596 q 638 511 638 557 q 613 447 638 467 q 556 426 588 426 q 495 447 519 426 q 471 511 471 467 q 495 576 471 557 q 556 596 519 596 z "},"ŀ":{"ha":411,"x_min":115,"x_max":478,"o":"m 263 0 l 115 0 l 115 1056 l 263 1056 l 263 0 m 394 611 q 451 592 426 611 q 476 526 476 572 q 451 462 476 482 q 394 442 426 442 q 334 462 358 442 q 310 526 310 482 q 334 592 310 572 q 394 611 358 611 z "},"Ł":{"ha":744,"x_min":13,"x_max":706,"o":"m 132 0 l 132 340 l 69 304 l 13 403 l 132 474 l 132 992 l 282 992 l 282 564 l 444 660 l 503 560 l 282 429 l 282 129 l 706 129 l 706 0 l 132 0 z "},"ł":{"ha":378,"x_min":-14,"x_max":392,"o":"m 108 0 l 108 375 l 44 335 l -14 432 l 108 510 l 108 1056 l 256 1056 l 256 603 l 332 654 l 392 557 l 256 468 l 256 0 l 108 0 z "},"Ń":{"ha":1078,"x_min":132,"x_max":946,"o":"m 946 0 l 764 0 l 263 801 l 257 801 q 262 721 260 765 q 266 628 264 676 q 268 528 268 579 l 268 0 l 132 0 l 132 992 l 313 992 l 813 194 l 817 194 q 814 268 815 224 q 810 363 813 313 q 807 458 808 414 l 807 992 l 946 992 l 946 0 m 771 1293 q 730 1246 756 1274 q 673 1188 704 1218 q 611 1131 642 1158 q 556 1085 581 1104 l 458 1085 l 458 1101 q 506 1164 479 1128 q 557 1238 532 1200 q 599 1307 582 1276 l 771 1307 l 771 1293 z "},"ń":{"ha":875,"x_min":115,"x_max":764,"o":"m 494 763 q 694 697 625 763 q 764 488 764 632 l 764 0 l 618 0 l 618 467 q 581 598 618 554 q 464 642 544 642 q 306 574 350 642 q 263 378 263 506 l 263 0 l 115 0 l 115 749 l 232 749 l 253 649 l 261 649 q 322 713 286 688 q 403 750 358 738 q 494 763 447 763 m 669 1050 q 628 1003 654 1031 q 572 945 603 975 q 510 888 540 915 q 454 842 479 861 l 357 842 l 357 858 q 404 921 378 885 q 456 995 431 957 q 497 1064 481 1033 l 669 1064 l 669 1050 z "},"Ņ":{"ha":1078,"x_min":132,"x_max":946,"o":"m 946 0 l 764 0 l 263 801 l 257 801 q 262 721 260 765 q 266 628 264 676 q 268 528 268 579 l 268 0 l 132 0 l 132 992 l 313 992 l 813 194 l 817 194 q 814 268 815 224 q 810 363 813 313 q 807 458 808 414 l 807 992 l 946 992 l 946 0 m 636 -97 q 610 -161 628 -124 q 571 -237 593 -199 q 525 -307 549 -275 l 442 -307 l 442 -290 q 463 -228 453 -265 q 483 -153 474 -192 q 494 -85 492 -114 l 636 -85 l 636 -97 z "},"ņ":{"ha":875,"x_min":115,"x_max":764,"o":"m 494 763 q 694 697 625 763 q 764 488 764 632 l 764 0 l 618 0 l 618 467 q 581 598 618 554 q 464 642 544 642 q 306 574 350 642 q 263 378 263 506 l 263 0 l 115 0 l 115 749 l 232 749 l 253 649 l 261 649 q 322 713 286 688 q 403 750 358 738 q 494 763 447 763 m 535 -97 q 509 -161 526 -124 q 469 -237 492 -199 q 424 -307 447 -275 l 340 -307 l 340 -290 q 362 -228 351 -265 q 381 -153 372 -192 q 393 -85 390 -114 l 535 -85 l 535 -97 z "},"Ň":{"ha":1078,"x_min":132,"x_max":946,"o":"m 946 0 l 764 0 l 263 801 l 257 801 q 262 721 260 765 q 266 628 264 676 q 268 528 268 579 l 268 0 l 132 0 l 132 992 l 313 992 l 813 194 l 817 194 q 814 268 815 224 q 810 363 813 313 q 807 458 808 414 l 807 992 l 946 992 l 946 0 m 458 1085 q 408 1153 439 1117 q 344 1226 378 1190 q 286 1289 311 1263 l 286 1307 l 386 1307 q 462 1251 422 1283 q 536 1182 501 1219 q 613 1251 574 1219 q 689 1307 653 1283 l 790 1307 l 790 1289 q 731 1226 765 1263 q 666 1153 697 1190 q 617 1085 635 1117 l 458 1085 z "},"ň":{"ha":875,"x_min":115,"x_max":764,"o":"m 494 763 q 694 697 625 763 q 764 488 764 632 l 764 0 l 618 0 l 618 467 q 581 598 618 554 q 464 642 544 642 q 306 574 350 642 q 263 378 263 506 l 263 0 l 115 0 l 115 749 l 232 749 l 253 649 l 261 649 q 322 713 286 688 q 403 750 358 738 q 494 763 447 763 m 357 842 q 307 910 338 874 q 243 983 276 947 q 185 1046 210 1019 l 185 1064 l 285 1064 q 360 1008 321 1040 q 435 939 400 976 q 512 1008 472 976 q 588 1064 551 1040 l 689 1064 l 689 1046 q 630 983 664 1019 q 565 910 596 947 q 515 842 533 874 l 357 842 z "},"ŉ":{"ha":989,"x_min":1,"x_max":879,"o":"m 610 763 q 810 697 740 763 q 879 488 879 632 l 879 0 l 733 0 l 733 467 q 697 598 733 554 q 579 642 660 642 q 422 574 465 642 q 378 378 378 506 l 378 0 l 231 0 l 231 749 l 347 749 l 368 649 l 376 649 q 438 713 401 688 q 518 750 474 738 q 610 763 563 763 m 228 976 q 196 871 215 928 q 154 758 176 814 q 108 651 132 701 l 1 651 q 22 736 11 692 q 41 826 32 781 q 58 913 50 871 q 71 992 65 956 l 218 992 l 228 976 z "},"Ŋ":{"ha":1078,"x_min":132,"x_max":946,"o":"m 668 -272 q 603 -267 631 -272 q 554 -254 575 -262 l 554 -132 q 604 -142 578 -137 q 663 -146 631 -146 q 735 -133 703 -146 q 788 -87 768 -119 q 810 1 808 -54 l 263 801 l 257 801 q 262 722 260 772 q 266 618 264 672 q 268 517 268 564 l 268 0 l 132 0 l 132 992 l 313 992 l 813 251 l 817 251 q 813 331 815 285 q 808 430 810 378 q 807 528 807 482 l 807 992 l 946 992 l 946 6 q 911 -151 946 -89 q 815 -242 876 -212 q 668 -272 753 -272 z "},"ŋ":{"ha":875,"x_min":115,"x_max":765,"o":"m 551 -333 q 492 -328 519 -333 q 446 -317 465 -324 l 446 -199 q 485 -208 465 -204 q 528 -212 504 -212 q 592 -188 567 -212 q 618 -96 618 -164 l 618 472 q 581 599 618 557 q 465 642 543 642 q 344 611 389 642 q 281 522 300 581 q 263 379 263 464 l 263 0 l 115 0 l 115 749 l 232 749 l 253 649 l 263 649 q 323 713 288 688 q 403 750 358 738 q 494 763 447 763 q 644 734 583 763 q 735 645 704 706 q 765 489 765 585 l 765 -103 q 743 -224 765 -172 q 674 -305 721 -276 q 551 -333 626 -333 z "},"Ō":{"ha":1090,"x_min":83,"x_max":1007,"o":"m 1007 497 q 978 288 1007 382 q 892 126 950 194 q 748 22 835 58 q 546 -14 661 -14 q 341 23 428 -14 q 197 127 254 60 q 111 289 139 194 q 83 499 83 383 q 133 765 83 651 q 287 943 183 879 q 547 1007 390 1007 q 802 944 700 1007 q 956 766 904 881 q 1007 497 1007 651 m 242 497 q 274 292 242 378 q 374 160 306 207 q 546 114 442 114 q 718 160 651 114 q 817 292 785 207 q 849 497 849 378 q 777 777 849 676 q 547 878 706 878 q 374 832 442 878 q 274 701 306 786 q 242 497 242 617 m 758 1196 l 758 1085 l 332 1085 l 332 1196 l 758 1196 z "},"ō":{"ha":846,"x_min":72,"x_max":775,"o":"m 775 375 q 750 210 775 282 q 679 88 725 138 q 568 12 633 38 q 421 -14 503 -14 q 282 12 346 -14 q 172 88 218 38 q 99 210 125 138 q 72 376 72 282 q 115 586 72 500 q 237 717 157 672 q 425 763 317 763 q 606 717 528 763 q 730 586 685 672 q 775 375 775 500 m 224 375 q 244 231 224 292 q 310 139 265 171 q 424 107 354 107 q 538 139 493 107 q 603 231 582 171 q 624 375 624 292 q 602 519 624 461 q 537 609 581 578 q 422 640 493 640 q 271 571 318 640 q 224 375 224 501 m 636 953 l 636 842 l 210 842 l 210 953 l 636 953 z "},"Ŏ":{"ha":1090,"x_min":83,"x_max":1007,"o":"m 1007 497 q 978 288 1007 382 q 892 126 950 194 q 748 22 835 58 q 546 -14 661 -14 q 341 23 428 -14 q 197 127 254 60 q 111 289 139 194 q 83 499 83 383 q 133 765 83 651 q 287 943 183 879 q 547 1007 390 1007 q 802 944 700 1007 q 956 766 904 881 q 1007 497 1007 651 m 242 497 q 274 292 242 378 q 374 160 306 207 q 546 114 442 114 q 718 160 651 114 q 817 292 785 207 q 849 497 849 378 q 777 777 849 676 q 547 878 706 878 q 374 832 442 878 q 274 701 306 786 q 242 497 242 617 m 776 1283 q 742 1180 772 1225 q 662 1110 713 1135 q 542 1085 611 1085 q 376 1139 433 1085 q 314 1283 319 1193 l 401 1283 q 424 1227 406 1246 q 472 1203 442 1208 q 544 1197 503 1197 q 610 1203 579 1197 q 662 1228 640 1210 q 688 1283 683 1247 l 776 1283 z "},"ŏ":{"ha":846,"x_min":72,"x_max":775,"o":"m 775 375 q 750 210 775 282 q 679 88 725 138 q 568 12 633 38 q 421 -14 503 -14 q 282 12 346 -14 q 172 88 218 38 q 99 210 125 138 q 72 376 72 282 q 115 586 72 500 q 237 717 157 672 q 425 763 317 763 q 606 717 528 763 q 730 586 685 672 q 775 375 775 500 m 224 375 q 244 231 224 292 q 310 139 265 171 q 424 107 354 107 q 538 139 493 107 q 603 231 582 171 q 624 375 624 292 q 602 519 624 461 q 537 609 581 578 q 422 640 493 640 q 271 571 318 640 q 224 375 224 501 m 654 1040 q 620 937 650 982 q 540 867 590 892 q 419 842 489 842 q 254 896 311 842 q 192 1040 197 950 l 279 1040 q 301 984 283 1003 q 350 960 319 965 q 422 954 381 954 q 488 960 457 954 q 540 985 518 967 q 565 1040 561 1004 l 654 1040 z "},"Ő":{"ha":1090,"x_min":83,"x_max":1007,"o":"m 1007 497 q 978 288 1007 382 q 892 126 950 194 q 748 22 835 58 q 546 -14 661 -14 q 341 23 428 -14 q 197 127 254 60 q 111 289 139 194 q 83 499 83 383 q 133 765 83 651 q 287 943 183 879 q 547 1007 390 1007 q 802 944 700 1007 q 956 766 904 881 q 1007 497 1007 651 m 242 497 q 274 292 242 378 q 374 160 306 207 q 546 114 442 114 q 718 160 651 114 q 817 292 785 207 q 849 497 849 378 q 777 777 849 676 q 547 878 706 878 q 374 832 442 878 q 274 701 306 786 q 242 497 242 617 m 811 1293 q 777 1247 800 1275 q 725 1189 754 1219 q 667 1131 696 1158 q 614 1085 638 1104 l 532 1085 l 532 1101 q 574 1164 551 1128 q 619 1238 597 1200 q 657 1307 642 1276 l 811 1307 l 811 1293 m 558 1293 q 525 1247 547 1275 q 474 1189 503 1219 q 415 1131 444 1158 q 363 1085 386 1104 l 281 1085 l 281 1101 q 323 1164 300 1128 q 367 1238 346 1200 q 404 1307 389 1276 l 558 1307 l 558 1293 z "},"ő":{"ha":846,"x_min":72,"x_max":775,"o":"m 775 375 q 750 210 775 282 q 679 88 725 138 q 568 12 633 38 q 421 -14 503 -14 q 282 12 346 -14 q 172 88 218 38 q 99 210 125 138 q 72 376 72 282 q 115 586 72 500 q 237 717 157 672 q 425 763 317 763 q 606 717 528 763 q 730 586 685 672 q 775 375 775 500 m 224 375 q 244 231 224 292 q 310 139 265 171 q 424 107 354 107 q 538 139 493 107 q 603 231 582 171 q 624 375 624 292 q 602 519 624 461 q 537 609 581 578 q 422 640 493 640 q 271 571 318 640 q 224 375 224 501 m 689 1050 q 655 1004 678 1032 q 603 946 632 976 q 544 888 574 915 q 492 842 515 861 l 410 842 l 410 858 q 452 921 429 885 q 497 995 475 957 q 535 1064 519 1033 l 689 1064 l 689 1050 m 436 1050 q 403 1004 425 1032 q 351 946 381 976 q 293 888 322 915 q 240 842 264 861 l 158 842 l 158 858 q 201 921 178 885 q 245 995 224 957 q 282 1064 267 1033 l 436 1064 l 436 1050 z "},"Œ":{"ha":1307,"x_min":83,"x_max":1225,"o":"m 533 1007 q 606 1003 569 1007 q 672 992 642 999 l 1225 992 l 1225 864 l 831 864 l 831 581 l 1199 581 l 1199 454 l 831 454 l 831 129 l 1225 129 l 1225 0 l 678 0 q 610 -10 647 -6 q 538 -14 574 -14 q 283 50 385 -14 q 133 229 182 114 q 83 499 83 344 q 133 767 83 653 q 282 944 182 881 q 533 1007 382 1007 m 542 878 q 406 852 464 878 q 313 776 349 826 q 258 656 276 726 q 239 497 239 586 q 272 292 239 378 q 371 160 304 207 q 540 114 438 114 q 617 121 579 114 q 682 139 654 128 l 682 854 q 617 872 654 867 q 542 878 581 878 z "},"œ":{"ha":1326,"x_min":71,"x_max":1258,"o":"m 943 761 q 1112 720 1042 761 q 1220 603 1182 679 q 1258 424 1258 528 l 1258 343 l 761 343 q 819 164 764 222 q 978 106 875 106 q 1108 119 1051 106 q 1222 158 1164 132 l 1222 36 q 1109 -1 1165 11 q 974 -14 1053 -14 q 810 21 882 -14 q 690 126 738 56 q 576 22 646 57 q 417 -14 506 -14 q 239 31 317 -14 q 116 164 161 76 q 71 375 71 251 q 113 585 71 499 q 233 716 154 671 q 419 761 311 761 q 573 726 504 761 q 685 622 642 692 q 753 699 714 668 q 840 746 792 731 q 943 761 888 761 m 415 640 q 269 574 314 640 q 224 375 224 508 q 244 228 224 288 q 307 138 264 168 q 418 107 350 107 q 527 137 485 107 q 590 226 569 167 q 611 372 611 285 q 590 522 611 463 q 526 610 569 581 q 415 640 483 640 m 943 647 q 819 598 865 647 q 764 451 772 549 l 1110 451 q 1092 554 1110 510 q 1038 623 1075 599 q 943 647 1001 647 z "},"Ŕ":{"ha":879,"x_min":132,"x_max":865,"o":"m 410 992 q 619 960 538 992 q 742 865 701 928 q 782 706 782 801 q 753 577 782 629 q 681 492 725 525 q 588 440 636 460 l 865 0 l 693 0 l 454 401 l 282 401 l 282 0 l 132 0 l 132 992 l 410 992 m 400 864 l 282 864 l 282 526 l 407 526 q 575 570 522 526 q 628 700 628 614 q 603 795 628 760 q 528 847 579 831 q 400 864 478 864 m 675 1293 q 634 1246 660 1274 q 577 1188 608 1218 q 515 1131 546 1158 q 460 1085 485 1104 l 363 1085 l 363 1101 q 410 1164 383 1128 q 461 1238 436 1200 q 503 1307 486 1276 l 675 1307 l 675 1293 z "},"ŕ":{"ha":590,"x_min":115,"x_max":571,"o":"m 485 763 q 528 760 504 763 q 567 756 551 758 l 551 618 q 515 625 536 622 q 476 628 494 628 q 397 612 435 628 q 328 566 358 596 q 280 493 297 536 q 263 394 263 450 l 263 0 l 115 0 l 115 749 l 232 749 l 251 615 l 257 615 q 314 689 281 656 q 390 742 347 722 q 485 763 433 763 m 571 1050 q 530 1003 556 1031 q 473 945 504 975 q 411 888 442 915 q 356 842 381 861 l 258 842 l 258 858 q 306 921 279 885 q 357 995 332 957 q 399 1064 382 1033 l 571 1064 l 571 1050 z "},"Ŗ":{"ha":879,"x_min":132,"x_max":865,"o":"m 410 992 q 619 960 538 992 q 742 865 701 928 q 782 706 782 801 q 753 577 782 629 q 681 492 725 525 q 588 440 636 460 l 865 0 l 693 0 l 454 401 l 282 401 l 282 0 l 132 0 l 132 992 l 410 992 m 400 864 l 282 864 l 282 526 l 407 526 q 575 570 522 526 q 628 700 628 614 q 603 795 628 760 q 528 847 579 831 q 400 864 478 864 m 565 -97 q 540 -161 557 -124 q 500 -237 522 -199 q 454 -307 478 -275 l 371 -307 l 371 -290 q 392 -228 382 -265 q 412 -153 403 -192 q 424 -85 421 -114 l 565 -85 l 565 -97 z "},"ŗ":{"ha":590,"x_min":90,"x_max":567,"o":"m 485 763 q 528 760 504 763 q 567 756 551 758 l 551 618 q 515 625 536 622 q 476 628 494 628 q 397 612 435 628 q 328 566 358 596 q 280 493 297 536 q 263 394 263 450 l 263 0 l 115 0 l 115 749 l 232 749 l 251 615 l 257 615 q 314 689 281 656 q 390 742 347 722 q 485 763 433 763 m 285 -97 q 259 -161 276 -124 q 219 -237 242 -199 q 174 -307 197 -275 l 90 -307 l 90 -290 q 112 -228 101 -265 q 131 -153 122 -192 q 143 -85 140 -114 l 285 -85 l 285 -97 z "},"Ř":{"ha":879,"x_min":132,"x_max":865,"o":"m 410 992 q 619 960 538 992 q 742 865 701 928 q 782 706 782 801 q 753 577 782 629 q 681 492 725 525 q 588 440 636 460 l 865 0 l 693 0 l 454 401 l 282 401 l 282 0 l 132 0 l 132 992 l 410 992 m 400 864 l 282 864 l 282 526 l 407 526 q 575 570 522 526 q 628 700 628 614 q 603 795 628 760 q 528 847 579 831 q 400 864 478 864 m 363 1085 q 313 1153 343 1117 q 249 1226 282 1190 q 190 1289 215 1263 l 190 1307 l 290 1307 q 366 1251 326 1283 q 440 1182 406 1219 q 517 1251 478 1219 q 593 1307 557 1283 l 694 1307 l 694 1289 q 635 1226 669 1263 q 570 1153 601 1190 q 521 1085 539 1117 l 363 1085 z "},"ř":{"ha":590,"x_min":86,"x_max":592,"o":"m 485 763 q 528 760 504 763 q 567 756 551 758 l 551 618 q 515 625 536 622 q 476 628 494 628 q 397 612 435 628 q 328 566 358 596 q 280 493 297 536 q 263 394 263 450 l 263 0 l 115 0 l 115 749 l 232 749 l 251 615 l 257 615 q 314 689 281 656 q 390 742 347 722 q 485 763 433 763 m 258 842 q 208 910 239 874 q 144 983 178 947 q 86 1046 111 1019 l 86 1064 l 186 1064 q 262 1008 222 1040 q 336 939 301 976 q 413 1008 374 976 q 489 1064 453 1040 l 590 1064 l 590 1046 q 531 983 565 1019 q 466 910 497 947 q 417 842 435 874 l 258 842 z "},"Ś":{"ha":764,"x_min":69,"x_max":701,"o":"m 701 268 q 658 117 701 179 q 535 20 615 54 q 343 -14 454 -14 q 239 -8 289 -14 q 146 10 189 -1 q 69 38 103 21 l 69 179 q 200 134 125 154 q 353 114 275 114 q 464 132 419 114 q 531 182 508 150 q 553 257 553 214 q 530 334 553 303 q 459 392 507 365 q 331 450 411 419 q 230 497 275 471 q 151 557 185 522 q 99 638 117 592 q 81 744 81 683 q 122 885 81 826 q 235 974 163 943 q 403 1006 307 1006 q 552 990 483 1006 q 683 946 621 974 l 636 822 q 521 861 579 846 q 399 876 463 876 q 306 860 343 876 q 249 814 268 843 q 231 746 231 785 q 251 669 231 700 q 318 613 272 639 q 439 557 364 588 q 581 488 522 525 q 671 398 640 450 q 701 268 701 346 m 626 1293 q 585 1246 611 1274 q 528 1188 560 1218 q 467 1131 497 1158 q 411 1085 436 1104 l 314 1085 l 314 1101 q 361 1164 335 1128 q 413 1238 388 1200 q 454 1307 438 1276 l 626 1307 l 626 1293 z "},"ś":{"ha":672,"x_min":68,"x_max":613,"o":"m 613 211 q 576 88 613 138 q 472 12 540 38 q 308 -14 404 -14 q 173 -2 229 -14 q 69 32 117 10 l 69 161 q 185 119 119 138 q 313 100 250 100 q 433 126 396 100 q 469 197 469 153 q 456 242 469 222 q 403 284 442 263 q 292 333 365 306 q 171 391 221 363 q 94 459 121 419 q 68 561 68 499 q 147 710 68 658 q 354 763 225 763 q 483 749 422 763 q 600 710 543 736 l 551 597 q 451 633 503 618 q 347 647 400 647 q 246 626 281 647 q 211 568 211 606 q 227 522 211 542 q 283 483 243 503 q 393 436 324 464 q 512 382 463 410 q 587 314 561 354 q 613 211 613 274 m 568 1050 q 527 1003 553 1031 q 470 945 501 975 q 408 888 439 915 q 353 842 378 861 l 256 842 l 256 858 q 303 921 276 885 q 354 995 329 957 q 396 1064 379 1033 l 568 1064 l 568 1050 z "},"Ŝ":{"ha":764,"x_min":69,"x_max":701,"o":"m 701 268 q 658 117 701 179 q 535 20 615 54 q 343 -14 454 -14 q 239 -8 289 -14 q 146 10 189 -1 q 69 38 103 21 l 69 179 q 200 134 125 154 q 353 114 275 114 q 464 132 419 114 q 531 182 508 150 q 553 257 553 214 q 530 334 553 303 q 459 392 507 365 q 331 450 411 419 q 230 497 275 471 q 151 557 185 522 q 99 638 117 592 q 81 744 81 683 q 122 885 81 826 q 235 974 163 943 q 403 1006 307 1006 q 552 990 483 1006 q 683 946 621 974 l 636 822 q 521 861 579 846 q 399 876 463 876 q 306 860 343 876 q 249 814 268 843 q 231 746 231 785 q 251 669 231 700 q 318 613 272 639 q 439 557 364 588 q 581 488 522 525 q 671 398 640 450 q 701 268 701 346 m 474 1307 q 523 1238 492 1276 q 588 1163 554 1200 q 647 1101 622 1126 l 647 1085 l 546 1085 q 470 1139 510 1107 q 393 1208 431 1171 q 317 1140 356 1171 q 243 1085 279 1108 l 143 1085 l 143 1101 q 202 1164 169 1128 q 265 1238 235 1200 q 315 1307 296 1276 l 474 1307 z "},"ŝ":{"ha":672,"x_min":68,"x_max":613,"o":"m 613 211 q 576 88 613 138 q 472 12 540 38 q 308 -14 404 -14 q 173 -2 229 -14 q 69 32 117 10 l 69 161 q 185 119 119 138 q 313 100 250 100 q 433 126 396 100 q 469 197 469 153 q 456 242 469 222 q 403 284 442 263 q 292 333 365 306 q 171 391 221 363 q 94 459 121 419 q 68 561 68 499 q 147 710 68 658 q 354 763 225 763 q 483 749 422 763 q 600 710 543 736 l 551 597 q 451 633 503 618 q 347 647 400 647 q 246 626 281 647 q 211 568 211 606 q 227 522 211 542 q 283 483 243 503 q 393 436 324 464 q 512 382 463 410 q 587 314 561 354 q 613 211 613 274 m 415 1064 q 465 995 433 1033 q 530 920 496 957 q 589 858 564 883 l 589 842 l 488 842 q 412 896 451 864 q 335 965 372 928 q 259 897 297 928 q 185 842 221 865 l 85 842 l 85 858 q 144 921 111 885 q 207 995 176 957 q 257 1064 238 1033 l 415 1064 z "},"Ş":{"ha":764,"x_min":69,"x_max":701,"o":"m 701 268 q 658 117 701 179 q 535 20 615 54 q 343 -14 454 -14 q 239 -8 289 -14 q 146 10 189 -1 q 69 38 103 21 l 69 179 q 200 134 125 154 q 353 114 275 114 q 464 132 419 114 q 531 182 508 150 q 553 257 553 214 q 530 334 553 303 q 459 392 507 365 q 331 450 411 419 q 230 497 275 471 q 151 557 185 522 q 99 638 117 592 q 81 744 81 683 q 122 885 81 826 q 235 974 163 943 q 403 1006 307 1006 q 552 990 483 1006 q 683 946 621 974 l 636 822 q 521 861 579 846 q 399 876 463 876 q 306 860 343 876 q 249 814 268 843 q 231 746 231 785 q 251 669 231 700 q 318 613 272 639 q 439 557 364 588 q 581 488 522 525 q 671 398 640 450 q 701 268 701 346 m 504 -186 q 454 -294 504 -256 q 297 -333 404 -333 q 253 -331 274 -333 q 219 -325 232 -328 l 219 -237 q 256 -243 233 -240 q 300 -246 279 -246 q 363 -234 340 -246 q 386 -190 386 -222 q 353 -140 386 -158 q 264 -115 319 -122 l 322 0 l 417 0 l 386 -64 q 445 -87 418 -72 q 488 -126 472 -103 q 504 -186 504 -150 z "},"ş":{"ha":672,"x_min":68,"x_max":613,"o":"m 613 211 q 576 88 613 138 q 472 12 540 38 q 308 -14 404 -14 q 173 -2 229 -14 q 69 32 117 10 l 69 161 q 185 119 119 138 q 313 100 250 100 q 433 126 396 100 q 469 197 469 153 q 456 242 469 222 q 403 284 442 263 q 292 333 365 306 q 171 391 221 363 q 94 459 121 419 q 68 561 68 499 q 147 710 68 658 q 354 763 225 763 q 483 749 422 763 q 600 710 543 736 l 551 597 q 451 633 503 618 q 347 647 400 647 q 246 626 281 647 q 211 568 211 606 q 227 522 211 542 q 283 483 243 503 q 393 436 324 464 q 512 382 463 410 q 587 314 561 354 q 613 211 613 274 m 481 -186 q 431 -294 481 -256 q 274 -333 381 -333 q 229 -331 250 -333 q 196 -325 208 -328 l 196 -237 q 233 -243 210 -240 q 276 -246 256 -246 q 340 -234 317 -246 q 363 -190 363 -222 q 329 -140 363 -158 q 240 -115 296 -122 l 299 0 l 393 0 l 363 -64 q 422 -87 394 -72 q 465 -126 449 -103 q 481 -186 481 -150 z "},"Š":{"ha":764,"x_min":69,"x_max":701,"o":"m 701 268 q 658 117 701 179 q 535 20 615 54 q 343 -14 454 -14 q 239 -8 289 -14 q 146 10 189 -1 q 69 38 103 21 l 69 179 q 200 134 125 154 q 353 114 275 114 q 464 132 419 114 q 531 182 508 150 q 553 257 553 214 q 530 334 553 303 q 459 392 507 365 q 331 450 411 419 q 230 497 275 471 q 151 557 185 522 q 99 638 117 592 q 81 744 81 683 q 122 885 81 826 q 235 974 163 943 q 403 1006 307 1006 q 552 990 483 1006 q 683 946 621 974 l 636 822 q 521 861 579 846 q 399 876 463 876 q 306 860 343 876 q 249 814 268 843 q 231 746 231 785 q 251 669 231 700 q 318 613 272 639 q 439 557 364 588 q 581 488 522 525 q 671 398 640 450 q 701 268 701 346 m 315 1085 q 265 1153 296 1117 q 201 1226 235 1190 q 143 1289 168 1263 l 143 1307 l 243 1307 q 319 1251 279 1283 q 393 1182 358 1219 q 470 1251 431 1219 q 546 1307 510 1283 l 647 1307 l 647 1289 q 588 1226 622 1263 q 523 1153 554 1190 q 474 1085 492 1117 l 315 1085 z "},"š":{"ha":672,"x_min":68,"x_max":613,"o":"m 613 211 q 576 88 613 138 q 472 12 540 38 q 308 -14 404 -14 q 173 -2 229 -14 q 69 32 117 10 l 69 161 q 185 119 119 138 q 313 100 250 100 q 433 126 396 100 q 469 197 469 153 q 456 242 469 222 q 403 284 442 263 q 292 333 365 306 q 171 391 221 363 q 94 459 121 419 q 68 561 68 499 q 147 710 68 658 q 354 763 225 763 q 483 749 422 763 q 600 710 543 736 l 551 597 q 451 633 503 618 q 347 647 400 647 q 246 626 281 647 q 211 568 211 606 q 227 522 211 542 q 283 483 243 503 q 393 436 324 464 q 512 382 463 410 q 587 314 561 354 q 613 211 613 274 m 257 842 q 207 910 238 874 q 143 983 176 947 q 85 1046 110 1019 l 85 1064 l 185 1064 q 260 1008 221 1040 q 335 939 300 976 q 412 1008 372 976 q 488 1064 451 1040 l 589 1064 l 589 1046 q 530 983 564 1019 q 465 910 496 947 q 415 842 433 874 l 257 842 z "},"Ț":{"ha":782,"x_min":18,"x_max":763,"o":"m 465 0 l 315 0 l 315 863 l 18 863 l 18 992 l 763 992 l 763 863 l 465 863 l 465 0 m 489 -97 q 463 -161 481 -124 q 424 -237 446 -199 q 378 -307 401 -275 l 294 -307 l 294 -290 q 316 -228 306 -265 q 335 -153 326 -192 q 347 -85 344 -114 l 489 -85 l 489 -97 z "},"ț":{"ha":532,"x_min":25,"x_max":497,"o":"m 385 106 q 444 111 414 106 q 497 124 475 117 l 497 13 q 433 -6 474 1 q 353 -14 393 -14 q 241 7 292 -14 q 160 79 190 28 q 129 222 129 131 l 129 636 l 25 636 l 25 703 l 135 758 l 186 917 l 276 917 l 276 749 l 490 749 l 490 636 l 276 636 l 276 225 q 306 135 276 164 q 385 106 336 106 m 406 -97 q 380 -161 397 -124 q 340 -237 363 -199 q 294 -307 318 -275 l 211 -307 l 211 -290 q 233 -228 222 -265 q 252 -153 243 -192 q 264 -85 261 -114 l 406 -85 l 406 -97 z "},"Ť":{"ha":782,"x_min":18,"x_max":763,"o":"m 465 0 l 315 0 l 315 863 l 18 863 l 18 992 l 763 992 l 763 863 l 465 863 l 465 0 m 311 1085 q 261 1153 292 1117 q 197 1226 231 1190 q 139 1289 164 1263 l 139 1307 l 239 1307 q 315 1251 275 1283 q 389 1182 354 1219 q 466 1251 426 1219 q 542 1307 506 1283 l 643 1307 l 643 1289 q 584 1226 618 1263 q 519 1153 550 1190 q 469 1085 488 1117 l 311 1085 z "},"ť":{"ha":532,"x_min":25,"x_max":694,"o":"m 694 1043 q 669 980 686 1017 q 632 904 653 943 q 590 833 611 865 l 507 833 l 507 850 q 521 897 514 871 q 533 951 528 922 q 544 1006 539 979 q 551 1056 549 1033 l 694 1056 l 694 1043 m 385 106 q 444 111 414 106 q 497 124 475 117 l 497 13 q 433 -6 474 1 q 353 -14 393 -14 q 241 7 292 -14 q 160 79 190 28 q 129 222 129 131 l 129 636 l 25 636 l 25 703 l 135 758 l 186 917 l 276 917 l 276 749 l 490 749 l 490 636 l 276 636 l 276 225 q 306 135 276 164 q 385 106 336 106 z "},"Ŧ":{"ha":782,"x_min":18,"x_max":763,"o":"m 315 0 l 315 438 l 119 438 l 119 561 l 315 561 l 315 861 l 18 861 l 18 992 l 763 992 l 763 861 l 465 861 l 465 561 l 660 561 l 660 438 l 465 438 l 465 0 l 315 0 z "},"ŧ":{"ha":532,"x_min":25,"x_max":497,"o":"m 36 374 l 36 478 l 475 478 l 475 374 l 36 374 m 385 106 q 444 111 414 106 q 497 124 475 117 l 497 13 q 433 -6 474 1 q 353 -14 393 -14 q 241 7 292 -14 q 160 79 190 28 q 129 222 129 131 l 129 636 l 25 636 l 25 703 l 135 758 l 186 917 l 276 917 l 276 749 l 490 749 l 490 636 l 276 636 l 276 225 q 306 135 276 164 q 385 106 336 106 z "},"Ũ":{"ha":1025,"x_min":124,"x_max":901,"o":"m 901 350 q 859 165 901 247 q 729 34 817 82 q 508 -14 642 -14 q 222 87 319 -14 q 124 353 124 188 l 124 992 l 274 992 l 274 360 q 333 176 274 238 q 515 114 393 114 q 651 144 599 114 q 728 230 704 175 q 753 361 753 285 l 753 992 l 901 992 l 901 350 m 251 1085 q 269 1164 256 1129 q 303 1222 282 1199 q 351 1258 324 1246 q 414 1271 379 1271 q 472 1260 443 1271 q 526 1233 500 1249 q 576 1206 551 1218 q 624 1194 601 1194 q 671 1214 653 1194 q 697 1272 689 1233 l 776 1272 q 725 1135 768 1185 q 615 1086 682 1086 q 559 1097 586 1086 q 505 1124 532 1108 q 453 1151 478 1140 q 406 1163 429 1163 q 358 1143 375 1163 q 331 1085 340 1124 l 251 1085 z "},"ũ":{"ha":875,"x_min":108,"x_max":760,"o":"m 760 749 l 760 0 l 642 0 l 621 99 l 614 99 q 553 35 590 60 q 471 -2 515 10 q 379 -14 426 -14 q 231 15 292 -14 q 140 103 171 43 q 108 258 108 164 l 108 749 l 257 749 l 257 281 q 294 150 257 193 q 408 107 331 107 q 531 138 486 107 q 594 227 575 168 q 613 369 613 286 l 613 749 l 760 749 m 175 842 q 192 921 179 886 q 226 979 206 956 q 275 1015 247 1003 q 338 1028 303 1028 q 395 1017 367 1028 q 449 990 424 1006 q 500 963 475 975 q 547 951 525 951 q 594 971 576 951 q 621 1029 613 990 l 700 1029 q 649 892 692 942 q 539 843 606 843 q 483 854 510 843 q 428 881 456 865 q 377 908 401 897 q 329 919 353 919 q 281 900 299 919 q 254 842 264 881 l 175 842 z "},"Ū":{"ha":1025,"x_min":124,"x_max":901,"o":"m 901 350 q 859 165 901 247 q 729 34 817 82 q 508 -14 642 -14 q 222 87 319 -14 q 124 353 124 188 l 124 992 l 274 992 l 274 360 q 333 176 274 238 q 515 114 393 114 q 651 144 599 114 q 728 230 704 175 q 753 361 753 285 l 753 992 l 901 992 l 901 350 m 726 1196 l 726 1085 l 300 1085 l 300 1196 l 726 1196 z "},"ū":{"ha":875,"x_min":108,"x_max":760,"o":"m 760 749 l 760 0 l 642 0 l 621 99 l 614 99 q 553 35 590 60 q 471 -2 515 10 q 379 -14 426 -14 q 231 15 292 -14 q 140 103 171 43 q 108 258 108 164 l 108 749 l 257 749 l 257 281 q 294 150 257 193 q 408 107 331 107 q 531 138 486 107 q 594 227 575 168 q 613 369 613 286 l 613 749 l 760 749 m 650 953 l 650 842 l 224 842 l 224 953 l 650 953 z "},"Ŭ":{"ha":1025,"x_min":124,"x_max":901,"o":"m 901 350 q 859 165 901 247 q 729 34 817 82 q 508 -14 642 -14 q 222 87 319 -14 q 124 353 124 188 l 124 992 l 274 992 l 274 360 q 333 176 274 238 q 515 114 393 114 q 651 144 599 114 q 728 230 704 175 q 753 361 753 285 l 753 992 l 901 992 l 901 350 m 744 1283 q 710 1180 740 1225 q 630 1110 681 1135 q 510 1085 579 1085 q 344 1139 401 1085 q 282 1283 288 1193 l 369 1283 q 392 1227 374 1246 q 440 1203 410 1208 q 513 1197 471 1197 q 578 1203 547 1197 q 630 1228 608 1210 q 656 1283 651 1247 l 744 1283 z "},"ŭ":{"ha":875,"x_min":108,"x_max":760,"o":"m 760 749 l 760 0 l 642 0 l 621 99 l 614 99 q 553 35 590 60 q 471 -2 515 10 q 379 -14 426 -14 q 231 15 292 -14 q 140 103 171 43 q 108 258 108 164 l 108 749 l 257 749 l 257 281 q 294 150 257 193 q 408 107 331 107 q 531 138 486 107 q 594 227 575 168 q 613 369 613 286 l 613 749 l 760 749 m 668 1040 q 634 937 664 982 q 553 867 604 892 q 433 842 503 842 q 268 896 325 842 q 206 1040 211 950 l 293 1040 q 315 984 297 1003 q 364 960 333 965 q 436 954 394 954 q 501 960 471 954 q 553 985 532 967 q 579 1040 575 1004 l 668 1040 z "},"Ů":{"ha":1025,"x_min":124,"x_max":901,"o":"m 901 350 q 859 165 901 247 q 729 34 817 82 q 508 -14 642 -14 q 222 87 319 -14 q 124 353 124 188 l 124 992 l 274 992 l 274 360 q 333 176 274 238 q 515 114 393 114 q 651 144 599 114 q 728 230 704 175 q 753 361 753 285 l 753 992 l 901 992 l 901 350 m 513 1085 q 399 1124 442 1085 q 356 1236 356 1164 q 399 1347 356 1307 q 513 1386 442 1386 q 625 1347 579 1386 q 671 1238 671 1307 q 626 1124 671 1164 q 513 1085 581 1085 m 513 1161 q 565 1181 544 1161 q 586 1236 586 1201 q 565 1290 586 1269 q 513 1310 543 1310 q 459 1290 481 1310 q 438 1236 438 1269 q 457 1181 438 1201 q 513 1161 476 1161 z "},"ů":{"ha":875,"x_min":108,"x_max":760,"o":"m 760 749 l 760 0 l 642 0 l 621 99 l 614 99 q 553 35 590 60 q 471 -2 515 10 q 379 -14 426 -14 q 231 15 292 -14 q 140 103 171 43 q 108 258 108 164 l 108 749 l 257 749 l 257 281 q 294 150 257 193 q 408 107 331 107 q 531 138 486 107 q 594 227 575 168 q 613 369 613 286 l 613 749 l 760 749 m 436 842 q 322 881 365 842 q 279 993 279 921 q 322 1103 279 1064 q 436 1143 365 1143 q 549 1103 503 1143 q 594 994 594 1064 q 549 881 594 921 q 436 842 504 842 m 436 918 q 489 938 468 918 q 510 993 510 958 q 488 1047 510 1026 q 436 1067 467 1067 q 383 1047 404 1067 q 361 993 361 1026 q 381 938 361 958 q 436 918 400 918 z "},"Ű":{"ha":1025,"x_min":124,"x_max":901,"o":"m 901 350 q 859 165 901 247 q 729 34 817 82 q 508 -14 642 -14 q 222 87 319 -14 q 124 353 124 188 l 124 992 l 274 992 l 274 360 q 333 176 274 238 q 515 114 393 114 q 651 144 599 114 q 728 230 704 175 q 753 361 753 285 l 753 992 l 901 992 l 901 350 m 778 1293 q 744 1247 767 1275 q 692 1189 721 1219 q 633 1131 663 1158 q 581 1085 604 1104 l 499 1085 l 499 1101 q 541 1164 518 1128 q 586 1238 564 1200 q 624 1307 608 1276 l 778 1307 l 778 1293 m 525 1293 q 492 1247 514 1275 q 440 1189 469 1219 q 382 1131 411 1158 q 329 1085 353 1104 l 247 1085 l 247 1101 q 290 1164 267 1128 q 334 1238 313 1200 q 371 1307 356 1276 l 525 1307 l 525 1293 z "},"ű":{"ha":875,"x_min":108,"x_max":760,"o":"m 760 749 l 760 0 l 642 0 l 621 99 l 614 99 q 553 35 590 60 q 471 -2 515 10 q 379 -14 426 -14 q 231 15 292 -14 q 140 103 171 43 q 108 258 108 164 l 108 749 l 257 749 l 257 281 q 294 150 257 193 q 408 107 331 107 q 531 138 486 107 q 594 227 575 168 q 613 369 613 286 l 613 749 l 760 749 m 703 1050 q 669 1004 692 1032 q 617 946 646 976 q 558 888 588 915 q 506 842 529 861 l 424 842 l 424 858 q 466 921 443 885 q 511 995 489 957 q 549 1064 533 1033 l 703 1064 l 703 1050 m 450 1050 q 417 1004 439 1032 q 365 946 394 976 q 307 888 336 915 q 254 842 278 861 l 172 842 l 172 858 q 215 921 192 885 q 259 995 238 957 q 296 1064 281 1033 l 450 1064 l 450 1050 z "},"Ų":{"ha":1025,"x_min":124,"x_max":901,"o":"m 656 -146 q 672 -202 656 -185 q 715 -219 689 -219 q 756 -216 739 -219 q 785 -210 774 -212 l 785 -300 q 744 -310 765 -306 q 693 -314 722 -314 q 580 -275 618 -314 q 542 -164 542 -236 q 564 -76 542 -119 q 619 1 586 -33 q 683 57 651 36 l 783 74 q 711 -11 740 26 q 669 -81 682 -49 q 656 -146 656 -114 m 901 350 q 859 165 901 247 q 729 34 817 82 q 508 -14 642 -14 q 222 87 319 -14 q 124 353 124 188 l 124 992 l 274 992 l 274 360 q 333 176 274 238 q 515 114 393 114 q 651 144 599 114 q 728 230 704 175 q 753 361 753 285 l 753 992 l 901 992 l 901 350 z "},"ų":{"ha":875,"x_min":108,"x_max":764,"o":"m 760 749 l 760 0 l 642 0 l 621 99 l 614 99 q 553 35 590 60 q 471 -2 515 10 q 379 -14 426 -14 q 231 15 292 -14 q 140 103 171 43 q 108 258 108 164 l 108 749 l 257 749 l 257 281 q 294 150 257 193 q 408 107 331 107 q 531 138 486 107 q 594 227 575 168 q 613 369 613 286 l 613 749 l 760 749 m 633 -160 q 650 -204 633 -189 q 693 -219 667 -219 q 734 -216 717 -219 q 764 -210 751 -212 l 764 -300 q 722 -310 743 -306 q 672 -314 701 -314 q 559 -276 597 -314 q 521 -176 521 -239 q 541 -99 521 -136 q 592 -30 561 -61 q 656 22 624 1 l 729 0 q 658 -81 682 -44 q 633 -160 633 -118 z "},"Ŵ":{"ha":1307,"x_min":11,"x_max":1294,"o":"m 1294 992 l 1033 0 l 874 0 l 699 613 q 683 668 690 638 q 668 728 675 699 q 656 782 661 758 q 649 818 651 806 q 643 782 647 806 q 632 728 639 758 q 618 667 625 699 q 603 608 611 636 l 431 0 l 271 0 l 11 992 l 165 992 l 311 406 q 325 343 318 375 q 338 279 332 311 q 349 217 344 247 q 358 163 354 188 q 367 219 363 189 q 379 283 372 250 q 394 347 386 315 q 410 406 401 379 l 575 992 l 725 992 l 896 403 q 912 343 904 375 q 926 278 919 311 q 938 216 933 246 q 947 163 943 186 q 959 238 951 197 q 976 323 967 279 q 996 406 986 367 l 1142 992 l 1294 992 m 732 1307 q 781 1238 750 1276 q 847 1163 813 1200 q 906 1101 881 1126 l 906 1085 l 804 1085 q 728 1139 768 1107 q 651 1208 689 1171 q 576 1140 614 1171 q 501 1085 538 1108 l 401 1085 l 401 1101 q 460 1164 428 1128 q 524 1238 493 1200 q 574 1307 554 1276 l 732 1307 z "},"ŵ":{"ha":1121,"x_min":15,"x_max":1106,"o":"m 621 375 q 605 436 614 403 q 588 503 596 469 q 572 567 579 538 q 561 613 565 596 l 556 613 q 547 567 553 596 q 532 503 540 538 q 515 435 524 469 q 497 374 507 401 l 386 1 l 222 1 l 15 750 l 165 750 l 263 371 q 283 289 274 332 q 299 206 292 246 q 310 140 307 167 l 315 140 q 324 185 318 158 q 335 242 329 213 q 348 300 342 272 q 361 346 354 328 l 481 750 l 642 750 l 758 346 q 776 280 767 318 q 794 205 786 242 q 804 142 801 168 l 810 142 q 819 203 813 165 q 837 286 826 242 q 857 371 847 331 l 957 750 l 1106 750 l 896 1 l 728 1 l 621 375 m 639 1064 q 688 995 657 1033 q 753 920 719 957 q 813 858 788 883 l 813 842 l 711 842 q 635 896 675 864 q 558 965 596 928 q 483 897 521 928 q 408 842 444 865 l 308 842 l 308 858 q 367 921 335 885 q 431 995 400 957 q 481 1064 461 1033 l 639 1064 z "},"Ŷ":{"ha":810,"x_min":0,"x_max":810,"o":"m 406 528 l 649 992 l 810 992 l 479 385 l 479 0 l 331 0 l 331 379 l 0 992 l 163 992 l 406 528 m 483 1307 q 533 1238 501 1276 q 598 1163 564 1200 q 657 1101 632 1126 l 657 1085 l 556 1085 q 480 1139 519 1107 q 403 1208 440 1171 q 327 1140 365 1171 q 253 1085 289 1108 l 153 1085 l 153 1101 q 212 1164 179 1128 q 275 1238 244 1200 q 325 1307 306 1276 l 483 1307 z "},"ŷ":{"ha":732,"x_min":1,"x_max":732,"o":"m 1 749 l 160 749 l 315 324 q 338 261 328 292 q 355 201 347 231 q 367 142 363 171 l 372 142 q 394 227 379 178 q 426 325 410 276 l 574 749 l 732 749 l 411 -101 q 346 -226 385 -174 q 253 -306 307 -278 q 128 -333 200 -333 q 68 -330 93 -333 q 25 -322 43 -326 l 25 -206 q 62 -211 40 -208 q 107 -214 83 -214 q 181 -197 150 -214 q 234 -150 213 -181 q 271 -81 256 -119 l 301 0 l 1 749 m 444 1064 q 494 995 463 1033 q 559 920 525 957 q 618 858 593 883 l 618 842 l 517 842 q 441 896 481 864 q 364 965 401 928 q 288 897 326 928 q 214 842 250 865 l 114 842 l 114 858 q 173 921 140 885 q 236 995 206 957 q 286 1064 267 1033 l 444 1064 z "},"Ÿ":{"ha":810,"x_min":0,"x_max":810,"o":"m 406 528 l 649 992 l 810 992 l 479 385 l 479 0 l 331 0 l 331 379 l 0 992 l 163 992 l 406 528 m 199 1190 q 221 1248 199 1231 q 272 1265 243 1265 q 325 1248 303 1265 q 347 1192 347 1231 q 325 1134 347 1153 q 272 1115 303 1115 q 221 1134 243 1115 q 199 1190 199 1153 m 464 1190 q 485 1248 464 1231 q 538 1265 507 1265 q 589 1248 567 1265 q 611 1192 611 1231 q 589 1134 611 1153 q 538 1115 567 1115 q 485 1134 507 1115 q 464 1190 464 1153 z "},"Ź":{"ha":797,"x_min":47,"x_max":749,"o":"m 749 0 l 47 0 l 47 107 l 556 863 l 63 863 l 63 992 l 736 992 l 736 885 l 228 129 l 749 129 l 749 0 m 636 1293 q 595 1246 621 1274 q 538 1188 569 1218 q 476 1131 507 1158 q 421 1085 446 1104 l 324 1085 l 324 1101 q 371 1164 344 1128 q 422 1238 397 1200 q 464 1307 447 1276 l 636 1307 l 636 1293 z "},"ź":{"ha":660,"x_min":49,"x_max":610,"o":"m 610 0 l 49 0 l 49 93 l 435 635 l 72 635 l 72 749 l 599 749 l 599 644 l 221 114 l 610 114 l 610 0 m 561 1050 q 520 1003 546 1031 q 463 945 494 975 q 401 888 432 915 q 346 842 371 861 l 249 842 l 249 858 q 296 921 269 885 q 347 995 322 957 q 389 1064 372 1033 l 561 1064 l 561 1050 z "},"Ż":{"ha":797,"x_min":47,"x_max":749,"o":"m 749 0 l 47 0 l 47 107 l 556 863 l 63 863 l 63 992 l 736 992 l 736 885 l 228 129 l 749 129 l 749 0 m 407 1276 q 464 1257 439 1276 q 489 1192 489 1238 q 464 1127 489 1147 q 407 1107 439 1107 q 347 1127 371 1107 q 322 1192 322 1147 q 347 1257 322 1238 q 407 1276 371 1276 z "},"ż":{"ha":660,"x_min":49,"x_max":610,"o":"m 610 0 l 49 0 l 49 93 l 435 635 l 72 635 l 72 749 l 599 749 l 599 644 l 221 114 l 610 114 l 610 0 m 332 1033 q 389 1014 364 1033 q 414 949 414 994 q 389 884 414 904 q 332 864 364 864 q 272 884 296 864 q 247 949 247 904 q 272 1014 247 994 q 332 1033 296 1033 z "},"Ž":{"ha":797,"x_min":47,"x_max":749,"o":"m 749 0 l 47 0 l 47 107 l 556 863 l 63 863 l 63 992 l 736 992 l 736 885 l 228 129 l 749 129 l 749 0 m 325 1085 q 275 1153 306 1117 q 211 1226 244 1190 q 153 1289 178 1263 l 153 1307 l 253 1307 q 328 1251 289 1283 q 403 1182 368 1219 q 480 1251 440 1219 q 556 1307 519 1283 l 657 1307 l 657 1289 q 598 1226 632 1263 q 533 1153 564 1190 q 483 1085 501 1117 l 325 1085 z "},"ž":{"ha":660,"x_min":49,"x_max":610,"o":"m 610 0 l 49 0 l 49 93 l 435 635 l 72 635 l 72 749 l 599 749 l 599 644 l 221 114 l 610 114 l 610 0 m 250 842 q 200 910 231 874 q 136 983 169 947 q 78 1046 103 1019 l 78 1064 l 178 1064 q 253 1008 214 1040 q 328 939 293 976 q 405 1008 365 976 q 481 1064 444 1040 l 582 1064 l 582 1046 q 523 983 557 1019 q 458 910 489 947 q 408 842 426 874 l 250 842 z "},"ſ":{"ha":476,"x_min":115,"x_max":521,"o":"m 374 943 q 291 910 319 943 q 263 803 263 876 l 263 0 l 115 0 l 115 806 q 147 957 115 901 q 235 1038 178 1013 q 367 1063 292 1063 q 455 1054 417 1063 q 521 1035 493 1046 l 483 922 q 433 936 461 929 q 374 943 404 943 z "},"ƒ":{"ha":617,"x_min":-10,"x_max":678,"o":"m 204 -336 q 47 -283 104 -336 q -10 -140 -10 -229 q -6 -99 -10 -119 q 3 -62 -3 -79 l 125 -94 q 120 -114 122 -103 q 118 -136 118 -125 q 140 -198 118 -176 q 192 -219 161 -219 q 249 -193 228 -219 q 271 -106 271 -167 l 271 636 l 144 636 l 144 706 l 271 751 l 271 799 q 300 952 271 894 q 385 1036 329 1010 q 519 1063 442 1063 q 610 1054 569 1063 q 678 1036 650 1046 l 640 924 q 588 937 617 931 q 528 943 560 943 q 445 907 472 943 q 418 797 418 871 l 418 749 l 603 749 l 603 636 l 418 636 l 418 -97 q 393 -227 418 -174 q 321 -308 368 -281 q 204 -336 274 -336 z "},"Ǻ":{"ha":910,"x_min":0,"x_max":910,"o":"m 353 858 q 311 906 326 876 q 296 975 296 936 q 340 1087 296 1047 q 453 1126 383 1126 q 566 1087 519 1126 q 613 976 613 1047 q 597 908 613 938 q 557 860 582 878 l 910 0 l 751 0 l 650 254 l 254 254 l 157 0 l 0 0 l 353 858 m 299 385 l 611 385 l 510 644 q 492 691 503 663 q 471 749 481 719 q 454 804 461 779 q 441 763 449 786 q 426 717 433 740 q 411 674 418 693 q 400 643 404 654 l 299 385 m 453 901 q 506 921 486 901 q 526 975 526 940 q 506 1031 526 1011 q 453 1050 485 1050 q 399 1031 419 1050 q 378 975 378 1011 q 397 922 378 942 q 453 901 417 901 m 382 1175 q 423 1223 401 1196 q 465 1278 444 1250 q 500 1331 486 1307 l 672 1331 l 672 1321 q 639 1285 661 1306 q 589 1241 617 1264 q 533 1197 561 1218 q 481 1163 504 1176 l 382 1163 l 382 1175 z "},"ǻ":{"ha":797,"x_min":63,"x_max":686,"o":"m 406 763 q 617 701 547 763 q 686 507 686 639 l 686 0 l 582 0 l 553 104 l 547 104 q 481 38 515 65 q 403 -1 447 11 q 297 -14 360 -14 q 177 10 231 -14 q 93 85 124 35 q 63 213 63 136 q 149 386 63 326 q 414 451 236 446 l 542 456 l 542 497 q 504 614 542 581 q 399 647 467 647 q 288 631 340 647 q 188 590 235 614 l 140 697 q 262 744 193 725 q 406 763 331 763 m 440 357 q 263 315 313 351 q 214 211 214 278 q 249 126 214 153 q 339 100 285 100 q 483 149 426 100 q 540 294 540 197 l 540 360 l 440 357 m 404 1058 q 351 1039 372 1058 q 331 985 331 1019 q 349 930 331 950 q 404 910 368 910 q 458 930 438 910 q 479 985 479 950 q 458 1039 479 1019 q 404 1058 436 1058 m 404 1135 q 486 1117 450 1135 q 543 1066 522 1099 q 564 986 564 1033 q 519 874 564 914 q 404 833 474 833 q 292 874 335 833 q 249 985 249 914 q 292 1095 249 1056 q 404 1135 335 1135 m 635 1322 q 582 1281 621 1307 q 499 1231 543 1256 q 422 1189 454 1206 l 319 1189 l 319 1200 q 360 1240 339 1218 q 403 1287 382 1263 q 438 1331 424 1311 l 635 1331 l 635 1322 z "},"Ǽ":{"ha":1253,"x_min":-1,"x_max":1169,"o":"m 1169 0 l 631 0 l 631 286 l 288 286 l 153 0 l -1 0 l 463 992 l 1169 992 l 1169 864 l 781 864 l 781 581 l 1144 581 l 1144 454 l 781 454 l 781 129 l 1169 129 l 1169 0 m 344 417 l 631 417 l 631 861 l 549 861 l 344 417 m 922 1293 q 881 1246 907 1274 q 824 1188 856 1218 q 763 1131 793 1158 q 707 1085 732 1104 l 610 1085 l 610 1101 q 657 1164 631 1128 q 708 1238 683 1200 q 750 1307 733 1276 l 922 1307 l 922 1293 z "},"ǽ":{"ha":1222,"x_min":63,"x_max":1154,"o":"m 853 763 q 1013 722 944 763 q 1117 605 1081 681 q 1154 426 1154 529 l 1154 343 l 674 343 q 730 165 676 224 q 881 106 783 106 q 1006 119 950 106 q 1118 158 1063 132 l 1118 36 q 1006 -1 1063 11 q 875 -14 950 -14 q 758 3 813 -14 q 662 53 704 19 q 589 138 619 88 q 516 56 556 90 q 425 4 476 22 q 300 -14 374 -14 q 180 10 233 -14 q 94 85 126 35 q 63 213 63 136 q 99 341 63 289 q 211 421 136 393 q 397 451 286 449 l 524 456 l 524 506 q 485 615 524 583 q 381 647 447 647 q 274 631 326 647 q 174 592 221 615 l 128 697 q 250 744 179 726 q 392 763 321 763 q 532 735 475 763 q 621 651 589 708 q 718 733 660 704 q 853 763 776 763 m 426 357 q 260 315 307 351 q 214 211 214 278 q 247 126 214 153 q 333 100 279 100 q 429 122 386 100 q 497 186 472 143 q 522 294 522 229 l 522 360 l 426 357 m 851 649 q 728 599 774 649 q 676 451 683 549 l 1006 451 q 989 554 1006 510 q 938 624 972 599 q 851 649 904 649 m 853 1050 q 812 1003 838 1031 q 755 945 786 975 q 693 888 724 915 q 638 842 663 861 l 540 842 l 540 858 q 588 921 561 885 q 639 995 614 957 q 681 1064 664 1033 l 853 1064 l 853 1050 z "},"Ǿ":{"ha":1090,"x_min":83,"x_max":1007,"o":"m 1007 497 q 978 288 1007 382 q 892 126 950 194 q 748 22 835 58 q 546 -14 661 -14 q 409 1 471 -14 q 297 46 347 17 l 232 -49 l 140 13 l 210 113 q 115 278 146 181 q 83 499 83 376 q 133 765 83 651 q 287 943 183 879 q 547 1007 390 1007 q 679 992 618 1007 q 790 949 740 976 l 853 1039 l 944 978 l 876 882 q 974 717 942 815 q 1007 497 1007 619 m 849 497 q 789 754 849 660 l 376 160 q 451 126 408 139 q 546 114 494 114 q 718 160 651 114 q 817 292 785 207 q 849 497 849 378 m 242 497 q 256 355 242 419 q 299 242 269 290 l 713 835 q 639 867 681 856 q 547 878 597 878 q 374 832 442 878 q 274 701 306 786 q 242 497 242 617 m 781 1293 q 740 1246 765 1274 q 683 1188 714 1218 q 621 1131 651 1158 q 565 1085 590 1104 l 468 1085 l 468 1101 q 515 1164 489 1128 q 567 1238 542 1200 q 608 1307 592 1276 l 781 1307 l 781 1293 z "},"ǿ":{"ha":846,"x_min":72,"x_max":775,"o":"m 775 375 q 732 164 775 251 q 610 31 689 76 q 421 -14 531 -14 q 329 -3 372 -14 q 247 28 286 8 l 196 -47 l 108 11 l 165 93 q 97 214 121 143 q 72 375 72 285 q 167 662 72 561 q 425 763 261 763 q 519 751 475 763 q 603 717 564 739 l 653 788 l 740 729 l 685 651 q 751 532 726 601 q 775 375 775 463 m 224 375 q 230 289 224 329 q 251 217 236 249 l 529 613 q 482 633 510 625 q 422 640 454 640 q 271 571 318 640 q 224 375 224 501 m 624 375 q 617 457 624 419 q 599 525 610 494 l 321 132 q 368 113 342 119 q 424 107 394 107 q 538 139 493 107 q 603 231 582 171 q 624 375 624 292 m 656 1050 q 615 1003 640 1031 q 558 945 589 975 q 496 888 526 915 q 440 842 465 861 l 343 842 l 343 858 q 390 921 364 885 q 442 995 417 957 q 483 1064 467 1033 l 656 1064 l 656 1050 z "},"Ș":{"ha":764,"x_min":69,"x_max":701,"o":"m 701 268 q 658 117 701 179 q 535 20 615 54 q 343 -14 454 -14 q 239 -8 289 -14 q 146 10 189 -1 q 69 38 103 21 l 69 179 q 200 134 125 154 q 353 114 275 114 q 464 132 419 114 q 531 182 508 150 q 553 257 553 214 q 530 334 553 303 q 459 392 507 365 q 331 450 411 419 q 230 497 275 471 q 151 557 185 522 q 99 638 117 592 q 81 744 81 683 q 122 885 81 826 q 235 974 163 943 q 403 1006 307 1006 q 552 990 483 1006 q 683 946 621 974 l 636 822 q 521 861 579 846 q 399 876 463 876 q 306 860 343 876 q 249 814 268 843 q 231 746 231 785 q 251 669 231 700 q 318 613 272 639 q 439 557 364 588 q 581 488 522 525 q 671 398 640 450 q 701 268 701 346 m 458 -97 q 433 -161 450 -124 q 393 -237 415 -199 q 347 -307 371 -275 l 264 -307 l 264 -290 q 285 -228 275 -265 q 305 -153 296 -192 q 317 -85 314 -114 l 458 -85 l 458 -97 z "},"ș":{"ha":672,"x_min":68,"x_max":613,"o":"m 613 211 q 576 88 613 138 q 472 12 540 38 q 308 -14 404 -14 q 173 -2 229 -14 q 69 32 117 10 l 69 161 q 185 119 119 138 q 313 100 250 100 q 433 126 396 100 q 469 197 469 153 q 456 242 469 222 q 403 284 442 263 q 292 333 365 306 q 171 391 221 363 q 94 459 121 419 q 68 561 68 499 q 147 710 68 658 q 354 763 225 763 q 483 749 422 763 q 600 710 543 736 l 551 597 q 451 633 503 618 q 347 647 400 647 q 246 626 281 647 q 211 568 211 606 q 227 522 211 542 q 283 483 243 503 q 393 436 324 464 q 512 382 463 410 q 587 314 561 354 q 613 211 613 274 m 435 -97 q 409 -161 426 -124 q 369 -237 392 -199 q 324 -307 347 -275 l 240 -307 l 240 -290 q 262 -228 251 -265 q 281 -153 272 -192 q 293 -85 290 -114 l 435 -85 l 435 -97 z "},"ˆ":{"ha":615,"x_min":56,"x_max":560,"o":"m 386 1064 q 435 995 404 1033 q 501 920 467 957 q 560 858 535 883 l 560 842 l 458 842 q 383 896 422 864 q 306 965 343 928 q 230 897 268 928 q 156 842 192 865 l 56 842 l 56 858 q 115 921 82 885 q 178 995 147 957 q 228 1064 208 1033 l 386 1064 z "},"ˇ":{"ha":615,"x_min":56,"x_max":560,"o":"m 228 842 q 178 910 208 874 q 114 983 147 947 q 56 1046 81 1019 l 56 1064 l 156 1064 q 231 1008 192 1040 q 306 939 271 976 q 383 1008 343 976 q 458 1064 422 1040 l 560 1064 l 560 1046 q 501 983 535 1019 q 435 910 467 947 q 386 842 404 874 l 228 842 z "},"ˉ":{"ha":538,"x_min":56,"x_max":482,"o":"m 482 953 l 482 842 l 56 842 l 56 953 l 482 953 z "},"˘":{"ha":574,"x_min":56,"x_max":518,"o":"m 518 1040 q 484 937 514 982 q 403 867 454 892 q 283 842 353 842 q 118 896 175 842 q 56 1040 61 950 l 143 1040 q 165 984 147 1003 q 214 960 183 965 q 286 954 244 954 q 351 960 321 954 q 403 985 382 967 q 429 1040 425 1004 l 518 1040 z "},"˙":{"ha":278,"x_min":56,"x_max":222,"o":"m 140 1033 q 197 1014 172 1033 q 222 949 222 994 q 197 884 222 904 q 140 864 172 864 q 80 884 104 864 q 56 949 56 904 q 80 1014 56 994 q 140 1033 104 1033 z "},"˚":{"ha":426,"x_min":56,"x_max":371,"o":"m 213 842 q 99 881 142 842 q 56 993 56 921 q 99 1103 56 1064 q 213 1143 142 1143 q 325 1103 279 1143 q 371 994 371 1064 q 326 881 371 921 q 213 842 281 842 m 213 918 q 265 938 244 918 q 286 993 286 958 q 265 1047 286 1026 q 213 1067 243 1067 q 159 1047 181 1067 q 138 993 138 1026 q 157 938 138 958 q 213 918 176 918 z "},"˛":{"ha":354,"x_min":56,"x_max":299,"o":"m 168 -160 q 185 -204 168 -189 q 228 -219 201 -219 q 269 -216 251 -219 q 299 -210 286 -212 l 299 -300 q 257 -310 278 -306 q 207 -314 236 -314 q 94 -276 132 -314 q 56 -176 56 -239 q 76 -99 56 -136 q 127 -30 96 -61 q 190 22 158 1 l 264 0 q 192 -81 217 -44 q 168 -160 168 -118 z "},"˜":{"ha":636,"x_min":56,"x_max":581,"o":"m 56 842 q 73 921 60 886 q 107 979 86 956 q 156 1015 128 1003 q 218 1028 183 1028 q 276 1017 247 1028 q 330 990 304 1006 q 381 963 356 975 q 428 951 406 951 q 475 971 457 951 q 501 1029 493 990 l 581 1029 q 529 892 572 942 q 419 843 486 843 q 363 854 390 843 q 309 881 336 865 q 258 908 282 897 q 210 919 233 919 q 162 900 179 919 q 135 842 144 881 l 56 842 z "},"˝":{"ha":642,"x_min":56,"x_max":586,"o":"m 586 1050 q 552 1004 575 1032 q 500 946 529 976 q 442 888 471 915 q 389 842 413 861 l 307 842 l 307 858 q 349 921 326 885 q 394 995 372 957 q 432 1064 417 1033 l 586 1064 l 586 1050 m 333 1050 q 300 1004 322 1032 q 249 946 278 976 q 190 888 219 915 q 138 842 161 861 l 56 842 l 56 858 q 98 921 75 885 q 142 995 121 957 q 179 1064 164 1033 l 333 1064 l 333 1050 z "},"΄":{"ha":350,"x_min":56,"x_max":294,"o":"m 56 842 l 56 858 l 122 1078 l 294 1078 l 294 1064 l 154 842 l 56 842 z "},"΅":{"ha":958,"x_min":201,"x_max":756,"o":"m 382 842 l 382 858 l 433 1078 l 606 1078 l 606 1064 l 481 842 l 382 842 m 275 872 q 224 891 246 872 q 201 947 201 910 q 224 1005 201 988 q 275 1022 246 1022 q 328 1005 306 1022 q 350 949 350 988 q 328 891 350 910 q 275 872 306 872 m 682 872 q 630 891 651 872 q 608 947 608 910 q 630 1005 608 988 q 681 1022 651 1022 q 733 1005 711 1022 q 756 949 756 988 q 733 891 756 910 q 682 872 711 872 z "},"Ά":{"ha":1021,"x_min":14,"x_max":1019,"o":"m 863 0 l 757 286 l 374 286 l 268 0 l 113 0 l 489 996 l 644 996 l 1019 0 l 863 0 m 615 696 q 601 742 611 711 q 581 806 590 774 q 565 860 571 839 q 549 799 558 832 q 532 740 540 767 q 518 696 524 713 l 418 417 l 715 417 l 615 696 m 14 756 l 14 772 l 81 992 l 253 992 l 253 978 l 113 756 l 14 756 z "},"·":{"ha":379,"x_min":94,"x_max":285,"o":"m 94 667 q 122 743 94 721 q 189 765 150 765 q 257 743 229 765 q 285 667 285 721 q 257 589 285 613 q 189 565 229 565 q 122 589 150 565 q 94 667 94 613 z "},"Έ":{"ha":1026,"x_min":14,"x_max":943,"o":"m 943 0 l 385 0 l 385 992 l 943 992 l 943 864 l 535 864 l 535 581 l 918 581 l 918 454 l 535 454 l 535 129 l 943 129 l 943 0 m 14 756 l 14 772 l 81 992 l 253 992 l 253 978 l 113 756 l 14 756 z "},"Ή":{"ha":1292,"x_min":14,"x_max":1158,"o":"m 1158 0 l 1008 0 l 1008 453 l 535 453 l 535 0 l 385 0 l 385 992 l 535 992 l 535 581 l 1008 581 l 1008 992 l 1158 992 l 1158 0 m 14 756 l 14 772 l 81 992 l 253 992 l 253 978 l 113 756 l 14 756 z "},"Ί":{"ha":771,"x_min":14,"x_max":718,"o":"m 718 0 l 333 0 l 333 86 l 451 121 l 451 869 l 333 906 l 333 992 l 718 992 l 718 906 l 601 869 l 601 121 l 718 86 l 718 0 m 14 756 l 14 772 l 81 992 l 253 992 l 253 978 l 113 756 l 14 756 z "},"Ό":{"ha":1274,"x_min":14,"x_max":1190,"o":"m 1190 497 q 1162 288 1190 382 q 1076 126 1133 194 q 931 22 1018 58 q 729 -14 844 -14 q 524 23 611 -14 q 380 127 438 60 q 294 289 322 194 q 267 499 267 383 q 317 765 267 651 q 470 943 367 879 q 731 1007 574 1007 q 985 944 883 1007 q 1139 766 1088 881 q 1190 497 1190 651 m 425 497 q 457 292 425 378 q 557 160 489 207 q 729 114 625 114 q 901 160 835 114 q 1000 292 968 207 q 1032 497 1032 378 q 960 777 1032 676 q 731 878 889 878 q 557 832 625 878 q 457 701 489 786 q 425 497 425 617 m 14 756 l 14 772 l 81 992 l 253 992 l 253 978 l 113 756 l 14 756 z "},"Ύ":{"ha":1132,"x_min":14,"x_max":1132,"o":"m 728 528 l 971 992 l 1132 992 l 801 385 l 801 0 l 653 0 l 653 379 l 322 992 l 485 992 l 728 528 m 14 756 l 14 772 l 81 992 l 253 992 l 253 978 l 113 756 l 14 756 z "},"Ώ":{"ha":1210,"x_min":14,"x_max":1172,"o":"m 236 0 l 236 129 l 453 129 q 349 227 397 168 q 273 365 301 286 q 244 542 244 444 q 299 780 244 675 q 456 946 353 885 q 703 1007 558 1007 q 953 947 850 1007 q 1110 781 1056 886 q 1164 543 1164 676 q 1135 365 1164 444 q 1060 227 1107 286 q 956 129 1013 168 l 1172 129 l 1172 0 l 789 0 l 789 126 q 920 242 872 181 q 988 375 968 303 q 1008 531 1008 447 q 974 711 1008 633 q 873 833 940 789 q 703 878 806 878 q 534 833 601 878 q 434 710 467 789 q 401 531 401 632 q 422 374 401 446 q 490 242 442 303 q 618 126 538 182 l 618 0 l 236 0 m 14 756 l 14 772 l 81 992 l 253 992 l 253 978 l 113 756 l 14 756 z "},"ΐ":{"ha":489,"x_min":-25,"x_max":529,"o":"m 339 -14 q 210 15 260 -14 q 136 95 160 43 q 113 217 113 147 l 113 749 l 260 749 l 260 224 q 289 131 260 156 q 361 107 318 107 q 411 111 389 107 q 454 121 433 115 l 454 3 q 405 -9 435 -4 q 339 -14 375 -14 m 156 842 l 156 858 l 207 1078 l 379 1078 l 379 1064 l 254 842 l 156 842 m 49 872 q -3 891 19 872 q -25 947 -25 910 q -3 1005 -25 988 q 49 1022 19 1022 q 101 1005 79 1022 q 124 949 124 988 q 101 891 124 910 q 49 872 79 872 m 456 872 q 403 891 425 872 q 382 947 382 910 q 403 1005 382 988 q 454 1022 425 1022 q 507 1005 485 1022 q 529 949 529 988 q 507 891 529 910 q 456 872 485 872 z "},"Α":{"ha":908,"x_min":0,"x_max":907,"o":"m 750 0 l 644 286 l 261 286 l 156 0 l 0 0 l 376 996 l 532 996 l 907 0 l 750 0 m 503 696 q 488 742 499 711 q 468 806 478 774 q 453 860 458 839 q 437 799 446 832 q 419 740 428 767 q 406 696 411 713 l 306 417 l 603 417 l 503 696 z "},"Β":{"ha":911,"x_min":132,"x_max":838,"o":"m 422 992 q 710 937 613 992 q 807 744 807 882 q 786 641 807 686 q 726 566 765 596 q 628 526 686 536 l 628 519 q 735 484 688 510 q 810 410 782 458 q 838 283 838 361 q 795 130 838 193 q 674 33 753 67 q 488 0 596 0 l 132 0 l 132 992 l 422 992 m 447 578 q 608 615 564 578 q 651 726 651 653 q 599 833 651 801 q 431 865 546 865 l 282 865 l 282 578 l 447 578 m 282 456 l 282 125 l 464 125 q 632 172 585 125 q 679 297 679 219 q 658 381 679 344 q 588 436 638 417 q 454 456 539 456 l 282 456 z "},"Γ":{"ha":706,"x_min":132,"x_max":663,"o":"m 132 0 l 132 992 l 663 992 l 663 864 l 281 864 l 281 0 l 132 0 z "},"Δ":{"ha":900,"x_min":14,"x_max":886,"o":"m 14 0 l 14 82 l 372 996 l 528 996 l 886 82 l 886 0 l 14 0 m 186 132 l 713 132 l 504 696 q 489 742 500 711 q 467 806 478 774 q 450 860 456 839 q 433 799 443 832 q 413 740 422 767 q 397 696 403 713 l 186 132 z "},"Ε":{"ha":774,"x_min":132,"x_max":690,"o":"m 690 0 l 132 0 l 132 992 l 690 992 l 690 864 l 282 864 l 282 581 l 665 581 l 665 454 l 282 454 l 282 129 l 690 129 l 690 0 z "},"Ζ":{"ha":797,"x_min":47,"x_max":749,"o":"m 749 0 l 47 0 l 47 107 l 556 863 l 63 863 l 63 992 l 736 992 l 736 885 l 228 129 l 749 129 l 749 0 z "},"Η":{"ha":1039,"x_min":132,"x_max":906,"o":"m 906 0 l 756 0 l 756 453 l 282 453 l 282 0 l 132 0 l 132 992 l 282 992 l 282 581 l 756 581 l 756 992 l 906 992 l 906 0 z "},"Θ":{"ha":1090,"x_min":83,"x_max":1007,"o":"m 346 440 l 346 568 l 746 568 l 746 440 l 346 440 m 1007 497 q 978 288 1007 382 q 892 126 950 194 q 748 22 835 58 q 546 -14 661 -14 q 341 23 428 -14 q 197 127 254 60 q 111 289 139 194 q 83 499 83 383 q 133 765 83 651 q 287 943 183 879 q 547 1007 390 1007 q 802 944 700 1007 q 956 766 904 881 q 1007 497 1007 651 m 242 497 q 274 292 242 378 q 374 160 306 207 q 546 114 442 114 q 718 160 651 114 q 817 293 785 207 q 849 497 849 379 q 777 777 849 676 q 547 878 706 878 q 374 832 442 878 q 274 701 306 786 q 242 497 242 617 z "},"Ι":{"ha":492,"x_min":53,"x_max":438,"o":"m 438 0 l 53 0 l 53 86 l 171 121 l 171 869 l 53 906 l 53 992 l 438 992 l 438 906 l 321 869 l 321 121 l 438 86 l 438 0 z "},"Κ":{"ha":878,"x_min":132,"x_max":878,"o":"m 878 0 l 704 0 l 379 457 l 282 376 l 282 0 l 132 0 l 132 992 l 282 992 l 282 513 q 354 597 318 556 q 426 681 390 639 l 694 992 l 867 992 l 488 558 l 878 0 z "},"Λ":{"ha":871,"x_min":0,"x_max":869,"o":"m 0 0 l 358 996 l 513 996 l 869 0 l 713 0 l 483 696 q 468 742 478 711 q 449 806 458 774 q 433 860 440 839 q 418 799 426 832 q 402 740 410 767 q 389 696 394 713 l 156 0 l 0 0 z "},"Μ":{"ha":1275,"x_min":132,"x_max":1143,"o":"m 564 0 l 264 843 l 258 843 q 263 768 260 815 q 267 667 265 721 q 268 560 268 613 l 268 0 l 132 0 l 132 992 l 346 992 l 631 196 l 636 196 l 929 992 l 1143 992 l 1143 0 l 997 0 l 997 568 q 999 669 997 617 q 1003 767 1001 721 q 1007 842 1006 813 l 1001 842 l 693 0 l 564 0 z "},"Ν":{"ha":1078,"x_min":132,"x_max":946,"o":"m 946 0 l 764 0 l 263 801 l 257 801 q 262 721 260 765 q 266 628 264 676 q 268 528 268 579 l 268 0 l 132 0 l 132 992 l 313 992 l 813 194 l 817 194 q 814 268 815 224 q 810 363 813 313 q 807 458 808 414 l 807 992 l 946 992 l 946 0 z "},"Ξ":{"ha":868,"x_min":83,"x_max":785,"o":"m 83 0 l 83 131 l 785 131 l 785 0 l 83 0 m 167 453 l 167 583 l 701 583 l 701 453 l 167 453 m 111 861 l 111 992 l 757 992 l 757 861 l 111 861 z "},"Ο":{"ha":1090,"x_min":83,"x_max":1007,"o":"m 1007 497 q 978 288 1007 382 q 892 126 950 194 q 748 22 835 58 q 546 -14 661 -14 q 341 23 428 -14 q 197 127 254 60 q 111 289 139 194 q 83 499 83 383 q 133 765 83 651 q 287 943 183 879 q 547 1007 390 1007 q 802 944 700 1007 q 956 766 904 881 q 1007 497 1007 651 m 242 497 q 274 292 242 378 q 374 160 306 207 q 546 114 442 114 q 718 160 651 114 q 817 292 785 207 q 849 497 849 378 q 777 777 849 676 q 547 878 706 878 q 374 832 442 878 q 274 701 306 786 q 242 497 242 617 z "},"Π":{"ha":1025,"x_min":132,"x_max":892,"o":"m 132 0 l 132 992 l 892 992 l 892 0 l 743 0 l 743 863 l 282 863 l 282 0 l 132 0 z "},"Ρ":{"ha":850,"x_min":132,"x_max":782,"o":"m 410 992 q 693 913 604 992 q 782 694 782 835 q 762 575 782 632 q 696 473 742 518 q 574 402 650 428 q 389 376 499 376 l 282 376 l 282 0 l 132 0 l 132 992 l 410 992 m 399 865 l 282 865 l 282 503 l 372 503 q 514 522 457 503 q 599 581 571 540 q 628 689 628 622 q 573 822 628 778 q 399 865 518 865 z "},"Σ":{"ha":797,"x_min":47,"x_max":749,"o":"m 47 0 l 47 121 l 368 514 l 61 872 l 61 992 l 733 992 l 733 863 l 386 863 q 315 863 356 863 q 247 865 275 864 l 521 546 l 521 504 l 214 128 q 312 129 265 128 q 411 131 358 131 l 749 131 l 749 0 l 47 0 z "},"Τ":{"ha":782,"x_min":18,"x_max":763,"o":"m 465 0 l 315 0 l 315 863 l 18 863 l 18 992 l 763 992 l 763 863 l 465 863 l 465 0 z "},"Υ":{"ha":810,"x_min":0,"x_max":810,"o":"m 406 528 l 649 992 l 810 992 l 479 385 l 479 0 l 331 0 l 331 379 l 0 992 l 163 992 l 406 528 z "},"Φ":{"ha":1197,"x_min":69,"x_max":1126,"o":"m 526 -4 l 526 125 q 299 164 388 128 q 160 258 210 200 q 90 383 110 317 q 69 514 69 450 q 92 655 69 588 q 166 776 114 722 q 306 863 218 831 q 526 897 394 896 l 526 996 l 669 996 l 669 897 q 892 863 803 896 q 1031 778 981 831 q 1104 656 1082 725 q 1126 514 1126 588 q 1106 381 1126 449 q 1034 256 1085 313 q 894 164 983 200 q 669 125 806 128 l 669 -4 l 526 -4 m 526 246 l 526 775 q 338 736 406 771 q 244 644 271 701 q 217 515 217 588 q 247 379 217 439 q 344 285 276 319 q 526 246 413 250 m 669 246 q 854 285 786 250 q 951 381 922 321 q 979 515 979 442 q 953 645 979 588 q 859 737 926 703 q 669 775 792 771 l 669 246 z "},"Χ":{"ha":847,"x_min":4,"x_max":843,"o":"m 843 0 l 672 0 l 419 414 l 164 0 l 4 0 l 333 515 l 25 992 l 192 992 l 425 613 l 660 992 l 819 992 l 511 514 l 843 0 z "},"Ψ":{"ha":1164,"x_min":124,"x_max":1040,"o":"m 511 0 l 511 258 q 341 289 414 261 q 220 369 268 317 q 148 497 172 421 q 124 671 124 572 l 124 992 l 271 992 l 271 667 q 301 497 271 558 q 385 409 331 435 q 511 383 439 383 l 511 992 l 653 992 l 653 383 q 776 409 722 383 q 861 496 831 435 q 892 665 892 557 l 892 992 l 1040 992 l 1040 671 q 997 448 1040 539 q 867 310 953 357 q 653 258 781 263 l 653 0 l 511 0 z "},"Ω":{"ha":1014,"x_min":39,"x_max":975,"o":"m 39 0 l 39 129 l 256 129 q 152 227 200 168 q 76 365 104 286 q 47 542 47 444 q 101 780 47 675 q 258 946 156 885 q 506 1007 361 1007 q 756 947 653 1007 q 913 781 858 886 q 967 543 967 676 q 938 365 967 444 q 863 227 910 286 q 758 129 815 168 l 975 129 l 975 0 l 592 0 l 592 126 q 723 242 675 181 q 791 375 771 303 q 811 531 811 447 q 777 711 811 633 q 676 833 743 789 q 506 878 608 878 q 337 833 404 878 q 237 710 269 789 q 204 531 204 632 q 224 374 204 446 q 292 242 244 303 q 421 126 340 182 l 421 0 l 39 0 z "},"Ϊ":{"ha":492,"x_min":40,"x_max":453,"o":"m 438 0 l 53 0 l 53 86 l 171 121 l 171 869 l 53 906 l 53 992 l 438 992 l 438 906 l 321 869 l 321 121 l 438 86 l 438 0 m 40 1190 q 63 1248 40 1231 q 114 1265 85 1265 q 167 1248 144 1265 q 189 1192 189 1231 q 167 1134 189 1153 q 114 1115 144 1115 q 63 1134 85 1115 q 40 1190 40 1153 m 306 1190 q 327 1248 306 1231 q 379 1265 349 1265 q 431 1248 408 1265 q 453 1192 453 1231 q 431 1134 453 1153 q 379 1115 408 1115 q 327 1134 349 1115 q 306 1190 306 1153 z "},"Ϋ":{"ha":810,"x_min":0,"x_max":810,"o":"m 406 528 l 649 992 l 810 992 l 479 385 l 479 0 l 331 0 l 331 379 l 0 992 l 163 992 l 406 528 m 199 1190 q 221 1248 199 1231 q 272 1265 243 1265 q 325 1248 303 1265 q 347 1192 347 1231 q 325 1134 347 1153 q 272 1115 303 1115 q 221 1134 243 1115 q 199 1190 199 1153 m 464 1190 q 485 1248 464 1231 q 538 1265 507 1265 q 589 1248 567 1265 q 611 1192 611 1231 q 589 1134 611 1153 q 538 1115 567 1115 q 485 1134 507 1115 q 464 1190 464 1153 z "},"ά":{"ha":879,"x_min":72,"x_max":844,"o":"m 369 -14 q 214 31 281 -14 q 110 161 147 75 q 72 371 72 247 q 154 663 72 563 q 375 763 236 763 q 472 748 429 763 q 547 708 514 733 q 603 649 579 682 l 608 649 l 626 749 l 746 749 l 746 186 q 763 125 746 142 q 803 108 781 108 q 826 111 814 108 q 844 115 839 114 l 844 4 q 824 -4 838 0 q 794 -11 810 -8 q 763 -14 778 -14 q 669 11 706 -14 q 614 100 632 36 l 604 100 q 549 42 582 68 q 470 1 515 15 q 369 -14 425 -14 m 410 106 q 523 133 481 106 q 585 219 565 161 q 604 364 604 276 l 604 372 q 561 573 604 504 q 408 642 518 642 q 269 572 314 642 q 224 369 224 503 q 271 172 224 239 q 410 106 318 106 m 372 842 l 372 858 l 439 1078 l 611 1078 l 611 1064 l 471 842 l 372 842 z "},"έ":{"ha":667,"x_min":58,"x_max":622,"o":"m 376 -14 q 135 48 213 -14 q 58 204 58 110 q 80 296 58 260 q 138 353 101 332 q 218 386 174 375 l 218 393 q 122 453 157 413 q 86 560 86 494 q 119 669 86 624 q 215 738 151 714 q 369 763 278 763 q 512 747 446 763 q 622 706 578 732 l 578 592 q 480 632 529 618 q 374 646 431 646 q 263 619 296 646 q 229 547 229 593 q 274 467 229 490 q 383 443 318 443 l 483 443 l 483 333 l 383 333 q 287 319 325 333 q 229 280 249 306 q 210 215 210 254 q 255 133 210 160 q 383 106 300 106 q 506 117 453 106 q 606 156 558 129 l 606 32 q 504 -3 561 7 q 376 -14 447 -14 m 332 842 l 332 858 l 399 1078 l 571 1078 l 571 1064 l 431 842 l 332 842 z "},"ή":{"ha":861,"x_min":115,"x_max":750,"o":"m 604 -333 l 604 467 q 568 597 604 553 q 457 642 532 642 q 342 611 385 642 q 281 522 299 581 q 263 378 263 463 l 263 0 l 115 0 l 115 749 l 232 749 l 253 649 l 261 649 q 320 713 286 688 q 397 750 354 738 q 488 763 440 763 q 630 734 571 763 q 719 644 689 706 q 750 488 750 583 l 750 -333 l 604 -333 m 318 842 l 318 858 l 385 1078 l 557 1078 l 557 1064 l 417 842 l 318 842 z "},"ί":{"ha":489,"x_min":113,"x_max":454,"o":"m 339 -14 q 210 15 260 -14 q 136 95 160 43 q 113 217 113 147 l 113 749 l 260 749 l 260 224 q 289 131 260 156 q 361 107 318 107 q 411 111 389 107 q 454 121 433 115 l 454 3 q 405 -9 435 -4 q 339 -14 375 -14 m 157 842 l 157 858 l 224 1078 l 396 1078 l 396 1064 l 256 842 l 157 842 z "},"ΰ":{"ha":847,"x_min":108,"x_max":754,"o":"m 404 -14 q 251 11 310 -14 q 162 81 193 36 q 119 189 131 126 q 108 326 108 251 l 108 749 l 256 749 l 256 326 q 268 203 256 251 q 315 130 281 154 q 413 106 350 106 q 519 138 475 106 q 584 238 563 169 q 606 413 606 306 q 594 585 606 508 q 561 749 583 663 l 710 749 q 735 640 725 693 q 749 531 744 588 q 754 407 754 475 q 664 89 754 192 q 404 -14 574 -14 m 365 842 l 365 858 l 417 1078 l 589 1078 l 589 1064 l 464 842 l 365 842 m 258 872 q 207 891 229 872 q 185 947 185 910 q 207 1005 185 988 q 258 1022 229 1022 q 311 1005 289 1022 q 333 949 333 988 q 311 891 333 910 q 258 872 289 872 m 665 872 q 613 891 635 872 q 592 947 592 910 q 613 1005 592 988 q 664 1022 635 1022 q 717 1005 694 1022 q 739 949 739 988 q 717 891 739 910 q 665 872 694 872 z "},"α":{"ha":879,"x_min":72,"x_max":844,"o":"m 369 -14 q 214 31 281 -14 q 110 161 147 75 q 72 371 72 247 q 154 663 72 563 q 375 763 236 763 q 472 748 429 763 q 547 708 514 733 q 603 649 579 682 l 608 649 l 626 749 l 746 749 l 746 186 q 763 125 746 142 q 803 108 781 108 q 826 111 814 108 q 844 115 839 114 l 844 4 q 824 -4 838 0 q 794 -11 810 -8 q 763 -14 778 -14 q 669 11 706 -14 q 614 100 632 36 l 604 100 q 549 42 582 68 q 470 1 515 15 q 369 -14 425 -14 m 410 106 q 523 133 481 106 q 585 219 565 161 q 604 364 604 276 l 604 372 q 561 573 604 504 q 408 642 518 642 q 269 572 314 642 q 224 369 224 503 q 271 172 224 239 q 410 106 318 106 z "},"β":{"ha":860,"x_min":115,"x_max":788,"o":"m 115 -333 l 115 735 q 157 924 115 851 q 272 1029 199 996 q 439 1063 346 1063 q 602 1032 535 1063 q 705 942 669 1001 q 740 797 740 883 q 715 682 740 731 q 645 604 689 633 q 546 564 601 575 l 546 558 q 672 516 618 549 q 756 426 725 483 q 788 285 788 369 q 744 123 788 190 q 628 21 701 56 q 465 -14 556 -14 q 382 -8 417 -14 q 319 8 347 -3 q 263 32 292 18 l 263 -333 l 115 -333 m 446 106 q 586 156 535 106 q 638 296 638 206 q 611 410 638 365 q 542 476 585 454 q 450 497 499 497 l 350 497 l 350 610 l 436 610 q 519 632 485 610 q 572 694 554 654 q 590 786 590 735 q 545 904 590 865 q 436 943 500 943 q 351 925 390 943 q 287 861 311 907 q 263 731 263 815 l 263 160 q 348 120 307 135 q 446 106 389 106 z "},"γ":{"ha":736,"x_min":0,"x_max":694,"o":"m 267 -292 l 267 -1 l 0 749 l 151 749 l 286 342 q 310 271 296 311 q 338 191 325 231 q 357 126 350 151 l 363 126 q 472 301 432 208 q 530 505 513 394 q 547 749 547 615 l 694 749 q 669 478 694 604 q 584 236 644 353 q 414 0 524 119 l 414 -292 l 267 -292 z "},"δ":{"ha":825,"x_min":58,"x_max":754,"o":"m 407 -14 q 227 26 306 -14 q 103 139 149 65 q 58 311 58 213 q 90 468 58 403 q 176 578 121 533 q 306 651 232 622 q 242 698 272 672 q 193 761 213 724 q 174 850 174 799 q 205 954 174 906 q 298 1033 236 1003 q 453 1063 360 1063 q 572 1049 519 1063 q 663 1014 624 1035 q 724 971 701 993 l 664 863 q 566 924 619 900 q 454 947 513 947 q 371 932 401 947 q 329 894 340 917 q 318 851 318 872 q 331 803 318 826 q 378 756 344 781 q 474 699 411 732 q 651 577 590 638 q 733 455 711 517 q 754 328 754 393 q 707 135 754 211 q 581 23 660 60 q 407 -14 503 -14 m 410 106 q 518 134 474 106 q 585 213 563 163 q 608 328 608 264 q 585 440 608 390 q 519 526 563 489 q 419 590 476 564 q 331 550 371 574 q 265 494 292 526 q 223 421 238 463 q 208 326 208 379 q 233 210 208 260 q 303 133 258 161 q 410 106 349 106 z "},"ε":{"ha":667,"x_min":58,"x_max":622,"o":"m 376 -14 q 135 48 213 -14 q 58 204 58 110 q 80 296 58 260 q 138 353 101 332 q 218 386 174 375 l 218 393 q 122 453 157 413 q 86 560 86 494 q 119 669 86 624 q 215 738 151 714 q 369 763 278 763 q 512 747 446 763 q 622 706 578 732 l 578 592 q 480 632 529 618 q 374 646 431 646 q 263 619 296 646 q 229 547 229 593 q 274 467 229 490 q 383 443 318 443 l 483 443 l 483 333 l 383 333 q 287 319 325 333 q 229 280 249 306 q 210 215 210 254 q 255 133 210 160 q 383 106 300 106 q 506 117 453 106 q 606 156 558 129 l 606 32 q 504 -3 561 7 q 376 -14 447 -14 z "},"ζ":{"ha":649,"x_min":72,"x_max":646,"o":"m 436 -281 q 478 -187 461 -233 q 496 -111 496 -142 q 488 -67 496 -85 q 453 -37 479 -50 q 374 -14 426 -25 q 196 50 261 13 q 101 142 131 88 q 72 269 72 196 q 108 433 72 353 q 207 597 144 513 q 346 779 269 682 l 481 951 q 440 948 471 950 q 367 945 408 946 q 286 944 325 944 l 111 944 l 111 1056 l 646 1056 l 646 965 l 446 704 q 319 530 368 601 q 247 402 269 458 q 224 290 224 346 q 240 213 224 246 q 303 156 257 181 q 439 108 349 131 q 558 69 514 92 q 622 15 603 47 q 642 -71 642 -18 q 633 -147 642 -111 q 610 -215 625 -182 q 579 -281 596 -249 l 436 -281 z "},"η":{"ha":861,"x_min":115,"x_max":750,"o":"m 604 -333 l 604 467 q 568 597 604 553 q 457 642 532 642 q 342 611 385 642 q 281 522 299 581 q 263 378 263 463 l 263 0 l 115 0 l 115 749 l 232 749 l 253 649 l 261 649 q 320 713 286 688 q 397 750 354 738 q 488 763 440 763 q 630 734 571 763 q 719 644 689 706 q 750 488 750 583 l 750 -333 l 604 -333 z "},"θ":{"ha":831,"x_min":72,"x_max":760,"o":"m 414 -14 q 223 51 299 -14 q 110 235 147 115 q 72 524 72 356 q 106 814 72 693 q 216 999 140 935 q 414 1063 292 1063 q 608 999 532 1063 q 722 815 685 936 q 760 524 760 694 q 725 235 760 356 q 615 51 690 115 q 414 -14 539 -14 m 414 103 q 523 141 481 103 q 587 262 565 179 q 611 479 608 344 l 221 479 q 243 264 224 347 q 305 142 263 181 q 414 103 347 103 m 221 592 l 610 592 q 585 791 607 713 q 521 907 563 869 q 415 944 479 944 q 308 907 350 944 q 247 791 267 869 q 221 592 226 713 z "},"ι":{"ha":489,"x_min":113,"x_max":454,"o":"m 339 -14 q 210 15 260 -14 q 136 95 160 43 q 113 217 113 147 l 113 749 l 260 749 l 260 224 q 289 131 260 156 q 361 107 318 107 q 411 111 389 107 q 454 121 433 115 l 454 3 q 405 -9 435 -4 q 339 -14 375 -14 z "},"κ":{"ha":776,"x_min":115,"x_max":768,"o":"m 747 749 l 460 414 l 768 0 l 596 0 l 361 322 l 267 251 l 267 0 l 115 0 l 115 749 l 267 749 l 267 554 q 265 453 267 503 q 260 372 263 403 l 263 372 q 297 415 279 393 q 329 456 314 436 l 578 749 l 747 749 z "},"λ":{"ha":743,"x_min":7,"x_max":743,"o":"m 653 -14 q 592 -3 617 -14 q 551 32 567 8 q 521 93 535 56 l 426 367 q 407 423 418 392 q 385 488 396 454 q 365 551 374 521 q 353 607 357 582 l 347 607 q 322 492 339 553 q 285 372 304 431 l 168 0 l 8 0 l 282 749 l 251 828 q 188 917 229 890 q 85 943 147 943 q 41 940 60 943 q 7 935 22 938 l 7 1051 q 35 1058 19 1056 q 68 1061 50 1060 q 106 1063 86 1063 q 234 1040 181 1063 q 326 969 288 1018 q 394 840 365 921 l 642 183 q 663 136 654 153 q 681 114 671 119 q 703 108 690 108 q 725 110 715 108 q 743 115 735 113 l 743 4 q 718 -5 733 0 q 686 -12 703 -10 q 653 -14 669 -14 z "},"μ":{"ha":892,"x_min":115,"x_max":857,"o":"m 115 -333 l 115 749 l 263 749 l 263 279 q 301 151 263 194 q 418 107 340 107 q 568 175 525 107 q 611 369 611 243 l 611 749 l 758 749 l 758 186 q 775 125 758 142 q 815 108 792 108 q 839 111 826 108 q 857 115 851 114 l 857 4 q 836 -4 850 0 q 806 -11 822 -8 q 774 -14 789 -14 q 681 11 718 -14 q 625 100 643 36 l 615 100 q 565 38 593 64 q 499 -1 536 13 q 414 -14 461 -14 q 325 3 364 -14 q 261 49 286 19 l 256 49 q 260 6 258 32 q 262 -51 261 -19 q 263 -117 263 -83 l 263 -333 l 115 -333 z "},"ν":{"ha":736,"x_min":0,"x_max":694,"o":"m 265 0 l 0 749 l 151 749 l 286 342 q 310 271 296 311 q 338 191 325 231 q 357 126 350 151 l 363 126 q 472 301 432 208 q 530 505 513 394 q 547 749 547 615 l 694 749 q 669 475 694 601 q 583 232 644 349 q 414 0 522 115 l 265 0 z "},"ξ":{"ha":694,"x_min":72,"x_max":650,"o":"m 440 -281 q 482 -190 464 -233 q 500 -108 500 -146 q 492 -68 500 -85 q 458 -38 483 -51 q 379 -14 433 -25 q 213 44 282 8 q 108 135 144 79 q 72 278 72 192 q 99 405 72 350 q 172 496 125 460 q 279 549 218 532 l 279 557 q 190 594 226 569 q 136 657 154 619 q 118 746 118 694 q 144 846 118 806 q 216 912 171 886 q 321 953 261 938 q 269 949 300 951 q 208 946 239 947 q 150 944 176 944 l 115 944 l 115 1056 l 650 1056 l 650 951 l 610 951 q 473 943 536 951 q 363 913 410 935 q 288 854 315 892 q 261 760 261 817 q 282 681 261 715 q 351 628 303 647 q 476 608 399 608 l 628 608 l 628 497 l 474 497 q 326 472 382 497 q 247 401 271 446 q 222 297 222 356 q 247 199 222 233 q 324 144 272 164 q 457 106 375 125 q 575 63 535 89 q 631 5 615 38 q 646 -65 646 -28 q 638 -142 646 -107 q 616 -211 631 -178 q 583 -281 601 -244 l 440 -281 z "},"ο":{"ha":846,"x_min":72,"x_max":775,"o":"m 775 375 q 750 210 775 282 q 679 88 725 138 q 568 12 633 38 q 421 -14 503 -14 q 282 12 346 -14 q 172 88 218 38 q 99 210 125 138 q 72 376 72 282 q 115 586 72 500 q 237 717 157 672 q 425 763 317 763 q 606 717 528 763 q 730 586 685 672 q 775 375 775 500 m 224 375 q 244 231 224 292 q 310 139 265 171 q 424 107 354 107 q 538 139 493 107 q 603 231 582 171 q 624 375 624 292 q 602 519 624 461 q 537 609 581 578 q 422 640 493 640 q 271 571 318 640 q 224 375 224 501 z "},"π":{"ha":946,"x_min":25,"x_max":911,"o":"m 785 -14 q 659 33 703 -14 q 615 176 615 81 l 615 636 l 325 636 l 325 0 l 179 0 l 179 636 l 25 636 l 25 749 l 911 749 l 911 636 l 761 636 l 761 185 q 779 122 761 140 q 825 104 797 104 q 863 109 846 104 q 893 121 881 114 l 893 10 q 849 -6 879 1 q 785 -14 819 -14 z "},"ρ":{"ha":840,"x_min":94,"x_max":768,"o":"m 94 -333 l 94 382 q 135 592 94 507 q 249 719 176 676 q 421 763 322 763 q 607 716 529 763 q 726 582 685 669 q 768 367 768 494 q 724 161 768 247 q 604 31 679 75 q 438 -14 529 -14 q 333 2 383 -14 q 243 46 283 18 l 235 46 q 240 -30 238 21 q 242 -137 242 -81 l 242 -333 l 94 -333 m 428 107 q 530 136 488 107 q 594 223 572 165 q 617 367 617 281 q 565 575 617 510 q 417 640 514 640 q 287 577 331 640 q 243 383 243 514 l 243 172 q 328 123 281 139 q 428 107 376 107 z "},"σ":{"ha":869,"x_min":72,"x_max":821,"o":"m 414 -14 q 234 31 311 -14 q 115 159 157 75 q 72 360 72 243 q 121 585 72 500 q 258 710 169 671 q 468 749 347 749 l 821 749 l 821 636 l 650 636 q 711 560 688 603 q 747 467 735 518 q 760 354 760 417 q 738 217 760 283 q 674 99 717 150 q 565 17 631 47 q 414 -14 500 -14 m 417 107 q 528 141 486 107 q 591 232 571 175 q 611 357 611 289 q 601 467 611 417 q 569 559 590 517 q 515 636 547 601 l 469 636 q 333 609 389 636 q 250 522 278 582 q 222 360 222 461 q 242 228 222 286 q 304 139 261 171 q 417 107 347 107 z "},"τ":{"ha":703,"x_min":25,"x_max":654,"o":"m 464 -15 q 344 5 399 -15 q 256 76 289 25 q 222 222 222 128 l 222 636 l 25 636 l 25 749 l 654 749 l 654 636 l 371 636 l 371 231 q 385 156 371 185 q 428 115 400 128 q 492 103 456 103 q 555 108 522 103 q 613 121 588 114 l 613 11 q 549 -7 590 1 q 464 -15 508 -15 z "},"υ":{"ha":847,"x_min":108,"x_max":754,"o":"m 404 -14 q 251 11 310 -14 q 162 81 193 36 q 119 189 131 126 q 108 326 108 251 l 108 749 l 256 749 l 256 326 q 268 203 256 251 q 315 130 281 154 q 413 106 350 106 q 519 138 475 106 q 584 238 563 169 q 606 413 606 306 q 594 585 606 508 q 561 749 583 663 l 710 749 q 735 640 725 693 q 749 531 744 588 q 754 407 754 475 q 664 89 754 192 q 404 -14 574 -14 z "},"φ":{"ha":1043,"x_min":72,"x_max":972,"o":"m 453 -333 l 453 -10 q 251 50 336 1 q 119 181 165 99 q 72 374 72 264 q 115 569 72 486 q 244 701 158 653 q 453 757 329 749 l 453 1056 l 593 1056 l 593 757 q 795 698 710 747 q 926 567 881 649 q 972 374 972 485 q 928 181 972 264 q 799 49 883 99 q 593 -10 714 0 l 593 -333 l 453 -333 m 453 103 l 453 644 q 324 602 375 636 q 249 511 274 568 q 225 374 225 454 q 249 238 225 296 q 324 145 274 179 q 453 103 374 111 m 593 103 q 721 147 671 113 q 796 238 771 181 q 821 374 821 296 q 764 561 821 493 q 593 643 707 629 l 593 103 z "},"χ":{"ha":836,"x_min":22,"x_max":831,"o":"m 731 -333 q 640 -317 675 -333 q 578 -262 604 -300 q 522 -164 551 -225 l 189 524 q 142 606 163 578 q 86 633 121 633 q 58 631 72 633 q 31 624 44 629 l 31 740 q 66 750 49 746 q 117 754 83 754 q 192 740 163 754 q 247 694 222 726 q 299 607 272 663 l 644 -99 q 680 -161 664 -136 q 716 -199 696 -186 q 767 -211 736 -211 q 799 -210 783 -211 q 831 -206 815 -208 l 831 -319 q 803 -327 818 -324 q 770 -332 788 -331 q 731 -333 753 -333 m 22 -333 l 381 239 l 439 107 l 175 -333 l 22 -333 m 475 136 l 417 269 l 678 749 l 831 749 l 475 136 z "},"ψ":{"ha":1074,"x_min":108,"x_max":981,"o":"m 467 -333 l 467 -12 q 278 27 358 -8 q 153 143 197 63 q 108 361 108 224 l 108 749 l 250 749 l 250 357 q 276 208 250 261 q 351 133 301 154 q 467 106 400 111 l 467 1056 l 607 1056 l 607 107 q 736 144 685 114 q 814 235 788 175 q 840 390 840 296 q 828 568 840 485 q 793 749 815 651 l 935 749 q 969 569 958 654 q 981 392 981 483 q 932 163 981 250 q 799 35 883 76 q 607 -12 715 -6 l 607 -333 l 467 -333 z "},"ω":{"ha":1138,"x_min":86,"x_max":1053,"o":"m 364 -14 q 211 34 272 -14 q 118 167 150 82 q 86 363 86 251 q 123 594 86 497 q 213 749 160 690 l 356 749 q 292 654 321 710 q 247 526 264 599 q 229 364 229 454 q 267 172 229 239 q 374 106 306 106 q 447 128 418 106 q 488 190 475 150 q 500 282 500 231 l 500 499 l 639 499 l 639 282 q 653 186 639 226 q 694 126 667 146 q 764 106 722 106 q 843 135 811 106 q 892 224 875 165 q 910 364 910 282 q 894 521 910 450 q 851 649 879 592 q 783 749 824 706 l 926 749 q 994 649 965 706 q 1038 522 1022 593 q 1053 363 1053 450 q 1021 167 1053 251 q 927 34 989 82 q 775 -14 865 -14 q 647 23 696 -14 q 572 140 597 60 l 565 140 q 524 53 550 88 q 457 2 497 18 q 364 -14 417 -14 z "},"ϊ":{"ha":489,"x_min":-11,"x_max":454,"o":"m 339 -14 q 210 15 260 -14 q 136 95 160 43 q 113 217 113 147 l 113 749 l 260 749 l 260 224 q 289 131 260 156 q 361 107 318 107 q 411 111 389 107 q 454 121 433 115 l 454 3 q 405 -9 435 -4 q 339 -14 375 -14 m -12 947 q 10 1005 -12 988 q 61 1022 32 1022 q 114 1005 92 1022 q 136 949 136 988 q 114 891 136 910 q 61 872 92 872 q 10 891 32 872 q -12 947 -12 910 m 253 947 q 274 1005 253 988 q 326 1022 296 1022 q 378 1005 356 1022 q 400 949 400 988 q 378 891 400 910 q 326 872 356 872 q 274 891 296 872 q 253 947 253 910 z "},"ϋ":{"ha":847,"x_min":108,"x_max":754,"o":"m 404 -14 q 251 11 310 -14 q 162 81 193 36 q 119 189 131 126 q 108 326 108 251 l 108 749 l 256 749 l 256 326 q 268 203 256 251 q 315 130 281 154 q 413 106 350 106 q 519 138 475 106 q 584 238 563 169 q 606 413 606 306 q 594 585 606 508 q 561 749 583 663 l 710 749 q 735 640 725 693 q 749 531 744 588 q 754 407 754 475 q 664 89 754 192 q 404 -14 574 -14 m 197 947 q 219 1005 197 988 q 271 1022 242 1022 q 324 1005 301 1022 q 346 949 346 988 q 324 891 346 910 q 271 872 301 872 q 219 891 242 872 q 197 947 197 910 m 463 947 q 484 1005 463 988 q 536 1022 506 1022 q 588 1005 565 1022 q 610 949 610 988 q 588 891 610 910 q 536 872 565 872 q 484 891 506 872 q 463 947 463 910 z "},"ό":{"ha":846,"x_min":72,"x_max":775,"o":"m 775 375 q 750 210 775 282 q 679 88 725 138 q 568 12 633 38 q 421 -14 503 -14 q 282 12 346 -14 q 172 88 218 38 q 99 210 125 138 q 72 376 72 282 q 115 586 72 500 q 237 717 157 672 q 425 763 317 763 q 606 717 528 763 q 730 586 685 672 q 775 375 775 500 m 224 375 q 244 231 224 292 q 310 139 265 171 q 424 107 354 107 q 538 139 493 107 q 603 231 582 171 q 624 375 624 292 q 602 519 624 461 q 537 609 581 578 q 422 640 493 640 q 271 571 318 640 q 224 375 224 501 m 386 842 l 386 858 l 453 1078 l 625 1078 l 625 1064 l 485 842 l 386 842 z "},"ύ":{"ha":847,"x_min":108,"x_max":754,"o":"m 404 -14 q 251 11 310 -14 q 162 81 193 36 q 119 189 131 126 q 108 326 108 251 l 108 749 l 256 749 l 256 326 q 268 203 256 251 q 315 130 281 154 q 413 106 350 106 q 519 138 475 106 q 584 238 563 169 q 606 413 606 306 q 594 585 606 508 q 561 749 583 663 l 710 749 q 735 640 725 693 q 749 531 744 588 q 754 407 754 475 q 664 89 754 192 q 404 -14 574 -14 m 367 842 l 367 858 l 433 1078 l 606 1078 l 606 1064 l 465 842 l 367 842 z "},"ώ":{"ha":1138,"x_min":86,"x_max":1053,"o":"m 364 -14 q 211 34 272 -14 q 118 167 150 82 q 86 363 86 251 q 123 594 86 497 q 213 749 160 690 l 356 749 q 292 654 321 710 q 247 526 264 599 q 229 364 229 454 q 267 172 229 239 q 374 106 306 106 q 447 128 418 106 q 488 190 475 150 q 500 282 500 231 l 500 499 l 639 499 l 639 282 q 653 186 639 226 q 694 126 667 146 q 764 106 722 106 q 843 135 811 106 q 892 224 875 165 q 910 364 910 282 q 894 521 910 450 q 851 649 879 592 q 783 749 824 706 l 926 749 q 994 649 965 706 q 1038 522 1022 593 q 1053 363 1053 450 q 1021 167 1053 251 q 927 34 989 82 q 775 -14 865 -14 q 647 23 696 -14 q 572 140 597 60 l 565 140 q 524 53 550 88 q 457 2 497 18 q 364 -14 417 -14 m 532 842 l 532 858 l 599 1078 l 771 1078 l 771 1064 l 631 842 l 532 842 z "},"Ё":{"ha":774,"x_min":132,"x_max":690,"o":"m 132 0 l 132 992 l 690 992 l 690 864 l 282 864 l 282 581 l 665 581 l 665 454 l 282 454 l 282 129 l 690 129 l 690 0 l 132 0 m 300 1096 q 246 1118 265 1096 q 226 1181 226 1140 q 247 1244 226 1222 q 300 1265 267 1265 q 356 1244 336 1265 q 375 1181 375 1222 q 356 1118 375 1140 q 300 1096 336 1096 m 544 1096 q 490 1117 510 1096 q 471 1181 471 1139 q 490 1244 471 1222 q 544 1265 510 1265 q 599 1244 581 1265 q 618 1181 618 1222 q 599 1117 618 1139 q 544 1096 579 1096 z "},"Ђ":{"ha":1014,"x_min":18,"x_max":947,"o":"m 649 -17 q 585 -12 615 -17 q 529 0 554 -8 l 529 124 q 585 113 561 115 q 632 111 608 111 q 752 159 710 111 q 793 292 794 207 l 793 292 q 742 434 793 388 q 589 481 690 481 q 476 468 536 481 q 361 432 417 456 l 404 514 l 404 0 l 256 0 l 254 863 l 18 863 l 18 992 l 733 992 l 733 863 l 403 863 l 404 524 l 365 558 q 481 594 419 581 q 610 607 542 607 q 859 527 771 607 q 947 296 947 447 l 947 293 q 910 128 947 199 q 806 21 874 58 q 649 -17 739 -17 z "},"Ѓ":{"ha":729,"x_min":132,"x_max":693,"o":"m 132 0 l 132 992 l 693 992 l 693 863 l 282 863 l 282 0 l 132 0 m 338 1085 l 338 1101 l 475 1307 l 647 1307 l 647 1293 l 435 1085 l 338 1085 z "},"Є":{"ha":893,"x_min":82,"x_max":838,"o":"m 549 -14 q 290 47 393 -14 q 134 221 186 107 q 82 493 82 335 q 139 767 82 651 q 302 944 196 882 q 556 1006 408 1006 q 698 992 628 1006 q 838 946 768 978 l 781 822 q 668 863 724 850 q 560 876 613 876 q 390 835 461 876 q 281 713 318 793 q 239 517 243 632 l 175 572 l 708 572 l 708 444 l 174 444 l 239 501 q 274 290 238 376 q 385 160 311 204 q 569 115 460 115 q 687 127 625 115 q 813 163 749 139 l 813 32 q 687 -2 754 10 q 549 -14 619 -14 z "},"Ѕ":{"ha":761,"x_min":67,"x_max":699,"o":"m 342 -14 q 238 -8 288 -14 q 145 10 188 -1 q 67 38 103 21 l 67 179 q 200 132 128 150 q 347 114 272 114 q 460 132 415 114 q 528 182 506 150 q 550 257 550 214 q 528 334 550 303 q 458 392 506 365 q 329 450 410 419 q 228 497 274 471 q 149 557 182 522 q 97 638 115 592 q 79 744 79 683 q 119 885 79 826 q 233 974 160 943 q 401 1006 306 1006 q 551 990 482 1006 q 682 946 619 974 l 633 822 q 519 861 578 846 q 397 876 461 876 q 304 860 342 876 q 248 814 267 843 q 229 746 229 785 q 250 669 229 700 q 317 613 271 639 q 438 557 363 588 q 579 488 521 525 q 668 398 638 450 q 699 268 699 346 q 656 117 699 179 q 533 20 613 54 q 342 -14 453 -14 z "},"І":{"ha":414,"x_min":132,"x_max":282,"o":"m 132 0 l 132 992 l 282 992 l 282 0 l 132 0 z "},"Ї":{"ha":414,"x_min":36,"x_max":378,"o":"m 132 0 l 132 992 l 282 992 l 282 0 l 132 0 m 110 1096 q 55 1118 74 1096 q 36 1181 36 1140 q 56 1243 36 1221 q 110 1265 75 1265 q 164 1243 144 1265 q 183 1181 183 1221 q 165 1117 183 1139 q 110 1096 146 1096 m 304 1096 q 250 1117 269 1096 q 231 1181 231 1139 q 250 1244 231 1222 q 306 1265 269 1265 q 359 1243 340 1265 q 378 1181 378 1221 q 359 1117 378 1139 q 304 1096 340 1096 z "},"Ј":{"ha":403,"x_min":-107,"x_max":276,"o":"m 1 -272 q -60 -267 -33 -272 q -107 -254 -86 -262 l -107 -129 q -60 -139 -85 -135 q -7 -143 -35 -143 q 59 -129 28 -143 q 108 -79 90 -115 q 126 22 126 -43 l 126 992 l 276 992 l 276 29 q 242 -142 276 -75 q 147 -241 208 -210 q 1 -272 85 -272 z "},"Љ":{"ha":1413,"x_min":6,"x_max":1344,"o":"m 104 -15 q 54 -11 81 -15 q 6 0 28 -7 l 6 133 q 40 125 25 128 q 74 122 56 122 q 140 140 115 122 q 180 201 165 158 q 200 315 194 243 q 210 440 206 376 q 218 578 214 503 q 228 754 222 654 q 239 992 233 854 l 839 992 l 839 618 l 967 618 q 1249 541 1154 618 q 1344 311 1344 464 q 1249 80 1344 160 q 968 0 1153 0 l 689 0 l 689 863 l 372 863 q 363 690 367 769 q 356 542 360 611 q 348 413 353 474 q 338 294 343 351 q 299 115 326 183 q 225 16 272 47 q 104 -15 178 -15 m 839 126 l 964 126 q 1135 172 1079 126 q 1190 311 1190 218 q 1135 449 1190 406 q 963 492 1079 492 l 839 492 l 839 126 z "},"Њ":{"ha":1442,"x_min":132,"x_max":1372,"o":"m 132 0 l 132 992 l 282 992 l 282 600 l 715 600 l 715 992 l 865 992 l 865 600 l 994 600 q 1277 524 1182 600 q 1372 301 1372 449 q 1276 78 1372 156 q 996 0 1181 0 l 715 0 l 715 472 l 282 472 l 282 0 l 132 0 m 865 126 l 990 126 q 1163 171 1107 126 q 1218 301 1218 215 q 1163 431 1218 389 q 990 472 1107 472 l 865 472 l 865 126 z "},"Ћ":{"ha":1019,"x_min":18,"x_max":939,"o":"m 256 0 l 256 863 l 18 863 l 18 992 l 732 992 l 732 863 l 404 863 l 404 503 l 361 557 q 491 594 425 582 q 624 606 557 606 q 860 530 782 606 q 939 293 939 454 l 938 0 l 789 0 l 789 293 q 742 434 789 389 q 590 479 694 479 q 478 467 535 479 q 357 429 421 454 l 404 513 l 404 0 l 256 0 z "},"Ќ":{"ha":896,"x_min":132,"x_max":885,"o":"m 711 0 l 381 501 l 381 532 l 693 992 l 854 992 l 524 510 l 525 543 l 885 0 l 711 0 m 132 0 l 132 992 l 282 992 l 282 0 l 132 0 m 229 453 l 229 582 l 461 582 l 461 453 l 229 453 m 383 1085 l 383 1101 l 521 1307 l 693 1307 l 693 1293 l 481 1085 l 383 1085 z "},"Ў":{"ha":868,"x_min":8,"x_max":868,"o":"m 215 -15 q 159 -11 188 -15 q 106 1 131 -7 l 106 133 q 151 126 129 129 q 200 122 172 122 q 286 141 251 122 q 347 201 321 160 q 399 308 372 242 l 404 193 l 8 992 l 174 992 l 417 481 q 429 453 422 469 q 443 421 436 438 q 456 390 450 404 l 461 390 q 472 418 465 401 q 484 451 478 435 q 496 481 490 468 l 711 992 l 868 992 l 558 288 q 464 115 511 182 q 358 17 417 49 q 215 -15 300 -15 m 457 1072 q 293 1122 353 1072 q 221 1265 233 1171 l 354 1265 q 386 1192 361 1215 q 457 1168 411 1168 q 526 1192 500 1168 q 558 1265 551 1215 l 692 1265 q 620 1122 681 1171 q 457 1072 560 1072 z "},"Џ":{"ha":1029,"x_min":132,"x_max":897,"o":"m 442 -215 l 442 0 l 132 0 l 132 992 l 282 992 l 282 128 l 747 128 l 747 992 l 897 992 l 897 0 l 586 0 l 586 -215 l 442 -215 z "}}}
